<svg width="144" height="88" viewBox="0 0 144 88" fill="none" xmlns="http://www.w3.org/2000/svg">
<g id="Frame" clip-path="url(#clip0_133_3114)">
<g id="Group">
<path id="Vector" d="M7.33889 7.66598C3.96822 8.4896 0.874891 10.348 0.213557 14.0015C-0.767776 19.3022 1.98422 25.2364 4.33089 29.8613C10.2189 41.413 18.2829 52.3101 28.3949 60.5462C39.2749 69.4159 52.6936 75.1812 66.7522 76.4906C71.5736 76.934 76.4376 76.934 81.2589 76.5539C101.718 74.9489 122.624 67.2196 134.934 50.1771C140.48 42.5112 144.619 32.6912 143.915 23.1035C142.272 1.11931 114.176 -2.3441 96.9389 1.20378C89.6216 2.70318 82.7096 5.97652 76.7576 10.4114C71.0189 14.6773 66.2402 20.4214 59.4562 23.1246C49.8989 26.9259 42.3042 19.1332 34.8376 14.5294C26.8162 9.60887 16.9389 5.30073 7.33889 7.66598Z" fill="#F7FDFF"/>
<g id="Group_2">
<path id="Vector_2" d="M72 88C109.326 88 139.584 86.4399 139.584 84.5155C139.584 82.591 109.326 81.0309 72 81.0309C34.6744 81.0309 4.41599 82.591 4.41599 84.5155C4.41599 86.4399 34.6744 88 72 88Z" fill="#E6E6FF"/>
<g id="Group_3">
<g id="Group_4">
<g id="Group_5">
<path id="Vector_3" d="M87.04 12.7132H87.424V14.4238C87.424 14.994 87.1253 15.543 86.6347 15.8598L83.4133 17.9928C83.264 18.0984 83.1787 18.2673 83.1787 18.4363V19.1543" stroke="#0C3956" stroke-width="1.0486" stroke-miterlimit="10" stroke-linecap="round" stroke-linejoin="round"/>
<path id="Vector_4" d="M86.7413 13.6213H74.304C73.92 13.6213 73.6213 13.3045 73.6213 12.9455V12.5231C73.6213 12.143 73.9413 11.8474 74.304 11.8474H86.7413C87.1253 11.8474 87.424 12.1641 87.424 12.5231V12.9455C87.4453 13.3045 87.1253 13.6213 86.7413 13.6213Z" fill="#0C3956"/>
<path id="Vector_5" d="M83.2 26.1233C82.8587 26.1233 82.56 25.8488 82.56 25.4898V19.6189C82.56 19.281 82.8373 18.9854 83.2 18.9854C83.5413 18.9854 83.84 19.2599 83.84 19.6189V25.4898C83.84 25.8488 83.5413 26.1233 83.2 26.1233Z" fill="#B6CCFE"/>
<path id="Vector_6" d="M85.6747 14.3182H75.4133C74.816 14.3182 74.3253 13.8325 74.3253 13.2412V12.1852C74.3253 11.5939 74.816 11.1082 75.4133 11.1082H85.6747C86.272 11.1082 86.7627 11.5939 86.7627 12.1852V13.2412C86.7414 13.8325 86.2507 14.3182 85.6747 14.3182Z" fill="#FAE625"/>
</g>
<g id="Group_6">
<path id="Vector_7" d="M100.16 38.2241C103.019 34.8029 103.744 30.4948 103.915 29.0165C102.165 27.9606 100.651 27.3059 100.459 26.6724C100.416 26.5034 100.395 26.3556 100.395 26.2078C98.6027 26.5245 97.1093 26.4189 96.256 26.3134C96.1707 26.4823 96.0427 26.6724 95.8293 26.7991C95.808 26.7991 95.808 26.8202 95.7867 26.8202C97.5147 30.0091 99.136 38.2241 99.136 38.2241H100.16Z" fill="#CECFFF"/>
<path id="Vector_8" d="M100.416 26.2078C100.395 25.6798 100.587 25.2364 100.587 25.2364C100.587 25.2364 96.7253 24.7084 96.448 25.6376C96.448 25.6376 96.4693 25.9966 96.2986 26.3345C97.1306 26.4401 98.624 26.5246 100.416 26.2078Z" fill="#FFCCD3"/>
<path id="Vector_9" d="M88.448 27.6649C86.6773 28.1084 85.0347 28.5519 85.0347 28.5519C85.0347 28.5519 84.032 27.4326 83.9893 26.0811C83.9467 24.7295 83.6267 24.3916 83.6267 24.3916C83.6267 24.3916 82.688 24.3494 82.2827 24.7295C81.8773 25.1307 81.3013 29.5445 82.0053 30.6004C82.5387 31.3818 85.1627 32.0575 88.0427 32.0787C87.7227 30.5581 88.1493 28.7208 88.448 27.6649Z" fill="#FFCCD3"/>
<path id="Vector_10" d="M107.541 38.1185C107.435 36.5558 107.243 34.993 106.923 33.7048C106.261 31.0228 106.731 30.8749 104.704 29.5234C104.683 29.5023 104.661 29.5023 104.661 29.5023C104.213 34.4228 100.928 38.2452 100.928 38.2452L102.101 38.5198C102.101 39.7446 102.485 41.3285 102.763 42.3211C102.784 41.6875 102.869 41.0962 102.997 40.6738C103.509 38.9844 104.704 37.2738 104.704 37.2738C104.704 37.2738 104.661 37.6539 104.64 38.2452C105.216 38.2241 106.496 38.2241 107.541 38.1185Z" fill="#CECFFF"/>
<path id="Vector_11" d="M94.4427 45.8267C96.6827 44.9819 97.6853 38.2241 97.6853 38.2241H98.496C98.496 38.2241 96.128 29.101 94.9547 26.8835C94.272 26.7991 93.312 26.5879 92.1173 26.7991C91.3067 26.9469 89.8347 27.3059 88.4267 27.6649C88.128 28.7208 87.7013 30.5792 88.0427 32.0786C89.0027 32.0786 90.0053 32.0153 90.9653 31.8675C90.9653 31.8675 92.2027 38.1607 91.9893 40.9906C91.8827 42.4055 91.4987 44.1794 91.136 46.249C91.9467 46.3335 93.1627 46.3124 94.4427 45.8267Z" fill="#CECFFF"/>
<path id="Vector_12" d="M104.661 38.2241C104.619 39.0689 104.597 40.3148 104.725 41.3496C104.939 43.1025 105.216 45.1087 105.344 46.1224C105.472 47.136 105.344 48.7833 105.344 48.7833C105.344 48.7833 105.963 49.1423 106.923 48.9945C106.923 48.9945 107.371 45.1932 107.563 42.7857C107.648 41.5186 107.669 39.8291 107.563 38.1185C106.496 38.2241 105.216 38.2241 104.661 38.2241Z" fill="#FFCCD3"/>
<path id="Vector_13" d="M104.704 37.2526L105.621 35.3309" stroke="#0C3956" stroke-width="0.2795" stroke-miterlimit="10" stroke-linecap="round" stroke-linejoin="round"/>
<path id="Vector_14" d="M90.9867 31.8675V30.8749" stroke="#0C3956" stroke-width="0.2795" stroke-miterlimit="10" stroke-linecap="round" stroke-linejoin="round"/>
<path id="Vector_15" d="M85.0347 28.5519C85.0347 28.5519 84.8427 28.742 84.7147 28.9743" stroke="#0C3956" stroke-width="0.2795" stroke-miterlimit="10" stroke-linecap="round" stroke-linejoin="round"/>
<path id="Vector_16" d="M82.2187 24.8773C82.2187 24.8773 81.7493 24.1804 81.6427 23.8848C81.536 23.5891 81.8347 22.7444 82.2187 22.5543C82.2187 22.5543 82.2187 21.8785 82.5173 21.8363C82.816 21.7941 83.3707 22.5754 83.6053 22.491C83.84 22.4065 83.7973 21.5829 83.7973 21.5829C83.7973 21.5829 84.416 22.3431 84.3733 22.6388C84.3307 22.9345 84.2667 23.209 84.1173 23.5258C83.968 23.8425 83.6693 24.5183 83.6693 24.5183L82.2187 24.8773Z" fill="#FFCCD3"/>
<g id="Group_7">
<path id="Vector_17" d="M105.344 48.4454C105.365 48.4454 106.56 48.4876 106.837 48.8466C107.115 49.2268 107.179 51.2119 107.115 51.5286C107.051 51.8665 105.899 53.4293 105.707 53.4082C105.493 53.3871 105.472 53.197 105.472 53.197C105.472 53.197 105.003 53.6827 104.939 53.1336C104.939 53.1336 104.491 53.2815 104.597 52.8169C104.597 52.8169 104.363 52.8802 104.427 52.3945C104.491 51.9088 105.088 51.3386 105.131 51.0218C105.173 50.705 105.237 50.2193 105.045 50.2404C104.875 50.2615 104.875 50.874 104.811 51.064C104.747 51.233 104.512 51.2963 104.427 51.0852C104.341 50.874 104.533 50.0715 104.683 49.6702C104.832 49.3112 105.344 48.4454 105.344 48.4454Z" fill="#FFCCD3"/>
<path id="Vector_18" d="M105.472 53.2181C105.472 53.2181 105.899 52.6479 106.091 52.3311C106.261 52.0355 106.325 51.4864 106.325 51.4864" stroke="#0C3956" stroke-width="0.2341" stroke-miterlimit="10" stroke-linecap="round" stroke-linejoin="round"/>
<path id="Vector_19" d="M104.939 53.1547C104.939 53.1547 105.771 52.2466 105.877 51.3597" stroke="#0C3956" stroke-width="0.2341" stroke-miterlimit="10" stroke-linecap="round" stroke-linejoin="round"/>
<path id="Vector_20" d="M104.619 52.838C104.619 52.838 105.408 52.0143 105.472 51.3386" stroke="#0C3956" stroke-width="0.2341" stroke-miterlimit="10" stroke-linecap="round" stroke-linejoin="round"/>
</g>
<path id="Vector_21" d="M104.96 63.3549C104.96 63.3549 103.616 56.5337 103.744 52.9224C103.872 49.3112 102.955 46.5869 102.955 46.5869C102.955 46.5869 102.699 44.2006 102.784 42.2999C102.507 41.2862 102.123 39.7235 102.123 38.4986L100.949 38.2241C100.949 38.2241 104.235 34.4017 104.683 29.4811C104.427 29.3122 104.192 29.1643 103.957 29.0165C103.787 30.4948 103.04 34.8029 100.203 38.2241H99.1786C99.1786 38.2241 97.5573 29.9879 95.8293 26.8202C95.616 26.9258 95.3386 26.9258 94.9973 26.8835C96.1706 29.1221 98.5386 38.2241 98.5386 38.2241H97.728C97.728 38.2241 96.704 44.9819 94.4853 45.8267C93.2053 46.3124 91.9893 46.3335 91.2 46.2702C90.8373 48.3186 90.4747 50.6628 90.4533 53.197C90.3893 58.2654 90.0906 63.376 90.0906 63.376L88.64 83.016H91.392L95.488 65.0232C95.744 63.9251 96.0427 62.848 96.4267 61.7921L97.2586 59.4691L98.9013 63.3971L106.645 83.0371H109.44L104.96 63.3549Z" fill="#6166FF"/>
<path id="Vector_22" d="M97.216 59.448L98.7947 56.1536L100.928 54.8231" stroke="#0C3956" stroke-width="0.2795" stroke-miterlimit="10" stroke-linecap="round" stroke-linejoin="round"/>
<path id="Vector_23" d="M92.3306 46.8615C92.3306 46.8615 91.6907 51.761 91.5627 55.1399C91.4347 58.5188 89.4933 82.9949 89.4933 82.9949" stroke="#0C3956" stroke-width="0.2795" stroke-miterlimit="10" stroke-linecap="round" stroke-linejoin="round"/>
<path id="Vector_24" d="M109.397 82.9949H106.603L103.467 84.5155H109.205C109.44 84.5155 109.611 84.3043 109.589 84.0931L109.397 82.9949Z" fill="#0C3956"/>
<path id="Vector_25" d="M91.392 82.9949H88.5973L85.4613 84.5155H91.2C91.4347 84.5155 91.6053 84.3043 91.584 84.0931L91.392 82.9949Z" fill="#0C3956"/>
<path id="Vector_26" d="M97.6426 18.5207C96.6186 18.7108 95.7013 19.2387 95.0613 20.0624C94.9333 20.2102 94.8693 20.3369 94.848 20.4002C94.8053 20.6537 94.72 20.9704 94.72 20.9704C94.72 20.9704 93.888 21.7941 93.4186 22.1742C93.312 22.2798 93.2906 22.4487 93.3973 22.5543C93.504 22.6599 93.6106 22.7655 93.7173 22.85C93.952 23.0189 93.7386 23.4413 93.824 23.5891C93.888 23.7369 93.888 23.7369 93.888 23.7369C93.888 23.7369 93.76 23.8425 93.824 24.0537C93.888 24.2649 93.952 24.455 93.888 24.7717C93.824 25.1096 93.4826 25.2997 93.952 25.7854C94.4213 26.2711 96.8746 25.9121 97.856 25.7854C98.816 25.6587 99.456 26.0388 100.629 25.532C101.803 25.0252 102.357 20.8649 100.992 19.2176C100.267 18.2462 98.7946 18.2884 97.6426 18.5207Z" fill="#FFCCD3"/>
<path id="Vector_27" d="M95.4666 18.4996C95.4666 18.4996 95.424 19.5766 96.4693 20.1046C97.5146 20.6325 98.112 20.2735 98.112 20.2735C98.112 20.2735 97.3653 21.076 97.4506 21.7307C97.536 22.3854 97.8133 22.491 97.6 22.9767C97.3866 23.4413 97.3866 23.5258 97.3866 23.5258L97.728 23.4202C97.728 23.4202 98.176 22.7444 98.5173 22.6599C98.8586 22.5754 99.0506 22.7866 99.008 23.3568C98.9866 23.9059 98.5173 23.8848 98.2613 24.1382C98.0266 24.3916 98.7093 25.6165 99.7333 25.8488C100.757 26.0811 101.227 25.5109 101.717 24.8773C102.229 24.2438 102.741 20.4847 101.312 18.9431C99.904 17.3592 94.9333 16.8524 95.4666 18.4996Z" fill="#0C3956"/>
</g>
</g>
<g id="Group_8">
<g id="Group_9">
<path id="Vector_28" d="M79.6579 30.1688L46.1319 17.0457L43.6845 23.1727L77.2104 36.2959L79.6579 30.1688Z" fill="#C97F89"/>
<g id="Group_10" opacity="0.33">
<g id="Group_11">
<path id="Vector_29" d="M47.04 18.7319C47.3173 18.5419 47.6587 18.4785 48 18.4996C48.3413 18.4996 48.6613 18.6052 48.96 18.7319C49.1093 18.8164 49.2587 18.8798 49.3867 18.9642C49.536 19.0487 49.664 19.1543 49.792 19.2388C50.048 19.45 50.2827 19.6823 50.5387 19.8934C51.52 20.7804 52.672 21.4773 53.8667 22.0264C56.2773 23.1457 58.8373 23.8848 61.376 24.6451C62.6347 25.0674 63.872 25.5531 65.024 26.1867C65.6 26.5035 66.176 26.8625 66.688 27.2637C66.944 27.4749 67.2 27.6861 67.4133 27.9395C67.6267 28.1929 67.84 28.4464 67.9467 28.7631C67.9893 28.911 68.032 29.101 67.968 29.2489C67.9253 29.4178 67.7973 29.5445 67.648 29.6079C67.4987 29.6712 67.328 29.6712 67.1573 29.6923C66.9867 29.6923 66.816 29.6923 66.6667 29.6712C66.0053 29.629 65.344 29.5234 64.704 29.3967C63.4027 29.1433 62.1013 28.8265 60.8213 28.4886C59.5413 28.1296 58.2827 27.7495 57.024 27.306C55.7867 26.8625 54.528 26.3768 53.376 25.7221C53.0987 25.5531 52.8 25.3842 52.5653 25.1519C52.4373 25.0463 52.3093 24.9196 52.224 24.7929C52.1173 24.6662 52.0533 24.4972 52.0533 24.3283C52.0533 24.1593 52.16 23.9904 52.288 23.8848C52.4373 23.7792 52.5867 23.737 52.7573 23.7159C53.0987 23.6525 53.4187 23.6736 53.76 23.6947C54.4213 23.7581 55.0827 23.8848 55.7227 24.0326C56.3627 24.1805 57.0027 24.3705 57.6427 24.5817C58.9013 24.983 60.16 25.4476 61.3547 26.0389C61.6533 26.1867 61.952 26.3345 62.2293 26.5246C62.3787 26.6091 62.5067 26.7147 62.6347 26.8202C62.6773 26.8836 62.7627 26.947 62.7413 27.0526C62.6987 27.137 62.6347 27.2004 62.5493 27.2215C62.2293 27.3482 61.888 27.3482 61.568 27.3482C61.2267 27.3482 60.9067 27.306 60.5653 27.2848C59.904 27.2004 59.2427 27.0948 58.6027 26.9258C57.9627 26.778 57.3227 26.5879 56.704 26.3134C56.5547 26.2501 56.4053 26.1656 56.256 26.0811C56.1067 25.9966 55.9787 25.891 55.872 25.7643C55.8293 25.701 55.7867 25.6165 55.7653 25.5531L55.744 25.4898C55.744 25.4687 55.744 25.4476 55.744 25.4264C55.7653 25.3842 55.7867 25.342 55.8293 25.3208C55.7653 25.3631 55.744 25.4476 55.7653 25.532C55.7867 25.6165 55.8293 25.6799 55.872 25.7432C55.9787 25.8699 56.1067 25.9755 56.256 26.06C56.4053 26.1445 56.5547 26.2078 56.704 26.2923C57.3013 26.5668 57.9627 26.7358 58.6027 26.8836C59.2427 27.0314 59.904 27.1581 60.5653 27.2215C60.8853 27.2637 61.2267 27.2848 61.5467 27.2848C61.8667 27.2848 62.208 27.2849 62.528 27.1581C62.6133 27.137 62.656 27.0737 62.6987 27.0103C62.72 26.947 62.656 26.8836 62.6133 26.8202C62.5067 26.7147 62.3573 26.6091 62.2293 26.5246C61.952 26.3556 61.6533 26.2078 61.3547 26.06C60.16 25.4898 58.9227 25.0252 57.664 24.6239C57.024 24.4128 56.4053 24.2438 55.744 24.0749C55.104 23.927 54.4427 23.7792 53.7813 23.737C53.4613 23.7159 53.12 23.6947 52.8 23.7581C52.6293 23.7792 52.48 23.8426 52.352 23.927C52.224 24.0115 52.1387 24.1593 52.1387 24.3283C52.1387 24.4761 52.2027 24.6451 52.3093 24.7718C52.3947 24.8985 52.5227 25.0252 52.6507 25.1308C52.9067 25.342 53.184 25.532 53.4613 25.6799C54.6133 26.3345 55.8507 26.8202 57.088 27.2637C58.3253 27.7072 59.6053 28.1085 60.8853 28.4675C62.1653 28.8265 63.4453 29.1433 64.7467 29.3967C65.408 29.5234 66.048 29.629 66.7093 29.6712C66.88 29.6712 67.0507 29.6923 67.2 29.6923C67.3707 29.6923 67.5413 29.6712 67.6907 29.6079C67.84 29.5234 67.9467 29.4178 68.0107 29.2489C68.0533 29.101 68.032 28.9321 67.9893 28.7631C67.8827 28.4464 67.6693 28.1929 67.456 27.9395C67.2427 27.7072 66.9867 27.4749 66.7307 27.2848C66.2187 26.8836 65.6427 26.5246 65.0667 26.2078C63.8933 25.5743 62.6773 25.0885 61.4187 24.6662C58.88 23.9059 56.32 23.1668 53.9093 22.0264C52.7147 21.4562 51.5627 20.7593 50.5813 19.8723C50.3467 19.64 50.0907 19.4288 49.8347 19.2177C49.7067 19.1121 49.5787 19.0065 49.4293 18.922C49.3013 18.8375 49.152 18.7531 49.0027 18.6897C48.704 18.563 48.384 18.4574 48.0427 18.4574C47.6587 18.4785 47.3173 18.5419 47.04 18.7319Z" fill="#0C3956"/>
</g>
<g id="Group_12">
<path id="Vector_30" d="M45.888 21.6463C46.3573 21.8997 46.8267 22.1531 47.3173 22.3643C47.808 22.5543 48.32 22.7233 48.8533 22.7655C49.1093 22.7866 49.3867 22.7866 49.6427 22.7233C49.8987 22.6599 50.1547 22.5755 50.4107 22.5121C50.6667 22.4487 50.944 22.4276 51.2213 22.4487C51.4987 22.4699 51.7547 22.5543 52.0107 22.6388L51.9893 22.6599C51.6053 22.1742 51.1573 21.773 50.6453 21.4351C50.1547 21.0761 49.6 20.8015 49.024 20.6115C48.7253 20.527 48.4267 20.4636 48.128 20.4847C47.9787 20.5059 47.8293 20.527 47.7227 20.6326C47.616 20.717 47.5733 20.886 47.616 21.0127C47.7227 21.2872 48.0213 21.4562 48.2987 21.5618C48.576 21.6674 48.9173 21.6674 49.1947 21.5407C48.9173 21.6674 48.576 21.6885 48.2987 21.5829C48.1493 21.5407 48.0213 21.4562 47.8933 21.3717C47.7653 21.2872 47.6587 21.1605 47.5947 21.0127C47.5307 20.8649 47.5733 20.6748 47.7013 20.5692C47.8293 20.4636 47.9787 20.4214 48.1493 20.4003C48.4693 20.3792 48.768 20.4425 49.0667 20.527C49.6427 20.717 50.1973 21.0127 50.7093 21.3506C51.2 21.7096 51.6693 22.132 52.032 22.5966V22.6177C52.032 22.6177 52.032 22.6177 52.0107 22.6177C51.7547 22.5332 51.4987 22.4487 51.2427 22.4276C50.9867 22.4065 50.7093 22.4276 50.4533 22.491C50.1973 22.5543 49.9413 22.6599 49.6853 22.7233C49.4293 22.7866 49.152 22.8078 48.8747 22.7866C48.3413 22.7444 47.808 22.5755 47.3173 22.3643C46.8053 22.1742 46.336 21.9208 45.888 21.6463Z" fill="#0C3956"/>
</g>
<g id="Group_13">
<path id="Vector_31" d="M50.752 24.5183C50.3467 24.3283 49.8987 24.2015 49.472 24.0748C49.2587 24.0115 49.0453 23.9481 48.8107 23.9059L48.1493 23.7581C47.7013 23.6525 47.2747 23.5046 46.8693 23.3146C46.464 23.1245 46.0587 22.9133 45.696 22.6177C46.0587 22.8711 46.464 23.0823 46.8907 23.2723C47.296 23.4624 47.7227 23.6102 48.1707 23.7369C48.5973 23.8637 49.0453 23.927 49.4933 24.0537C49.7067 24.1171 49.9413 24.1804 50.1547 24.2438C50.3467 24.3283 50.56 24.3916 50.752 24.5183Z" fill="#0C3956"/>
</g>
<g id="Group_14">
<path id="Vector_32" d="M65.3014 30.347C65.408 30.3047 65.536 30.2836 65.664 30.2836C65.792 30.2836 65.92 30.2836 66.0267 30.3047C66.2614 30.347 66.5174 30.4103 66.752 30.4948C67.2214 30.6426 67.6694 30.8538 68.096 31.1072C68.5227 31.3395 68.9494 31.6141 69.376 31.8675C69.8027 32.1209 70.2507 32.3321 70.6774 32.5433C71.5734 32.9445 72.4907 33.3036 73.4294 33.5992C74.368 33.8949 75.328 34.1483 76.3094 34.2539C75.8187 34.2116 75.328 34.1272 74.8374 34.0216C74.3467 33.916 73.8774 33.7893 73.408 33.6414C72.4694 33.3458 71.552 32.9868 70.656 32.5644C70.4427 32.4588 70.208 32.3532 69.9947 32.2265C69.7814 32.0998 69.568 31.9942 69.3547 31.8675C68.928 31.6141 68.5014 31.3607 68.0747 31.1284C67.648 30.8961 67.2 30.6849 66.7307 30.5159C66.496 30.4315 66.2614 30.3681 66.0267 30.3259C65.8987 30.3048 65.792 30.2836 65.664 30.2836C65.536 30.3047 65.408 30.3047 65.3014 30.347Z" fill="#0C3956"/>
</g>
<g id="Group_15">
<path id="Vector_33" d="M76.096 33.0079C76.0534 32.839 75.904 32.7334 75.7547 32.6489C75.6054 32.5644 75.4347 32.5222 75.2853 32.4799C74.944 32.3955 74.6027 32.3743 74.2614 32.3321C73.5787 32.2265 72.9387 31.952 72.32 31.6563C71.7014 31.3607 71.1254 31.0017 70.528 30.6426C69.952 30.2836 69.376 29.9035 68.8214 29.5023C68.8214 29.5023 68.8214 29.5023 68.8214 29.4811C70.016 29.3333 71.2534 29.3967 72.4267 29.6712C73.0027 29.819 73.5787 29.988 74.1547 30.1992C74.7094 30.4103 75.2853 30.6426 75.7973 30.9383C75.9253 31.0228 76.0534 31.0861 76.1814 31.1917C76.2454 31.234 76.288 31.2973 76.3307 31.3607C76.352 31.4029 76.3734 31.424 76.3734 31.4874C76.3734 31.5296 76.352 31.5719 76.3094 31.6141C76.1814 31.7197 76.0107 31.7197 75.8614 31.7197C75.712 31.7197 75.5627 31.7197 75.4134 31.6986C74.816 31.6352 74.2187 31.5085 73.6427 31.3184C73.344 31.234 73.0667 31.1284 72.7894 31.0228C72.512 30.8961 72.2347 30.7905 72 30.6004C71.936 30.5582 71.8934 30.4737 71.9147 30.3892C71.9147 30.3048 72 30.2414 72.064 30.2414C72.2133 30.1992 72.3627 30.2203 72.512 30.2414C72.8107 30.2836 73.1094 30.3892 73.3867 30.4737C73.1094 30.3681 72.8107 30.2836 72.512 30.2414C72.3627 30.2203 72.2133 30.1992 72.064 30.2414C72 30.2625 71.936 30.3048 71.9147 30.3892C71.9147 30.4526 71.9574 30.5159 72 30.5793C72.2347 30.7694 72.512 30.8749 72.7894 31.0017C73.0667 31.1073 73.3654 31.1917 73.6427 31.2762C74.2187 31.4451 74.816 31.5719 75.4134 31.6352C75.5627 31.6563 75.712 31.6563 75.8614 31.6563C76.0107 31.6563 76.16 31.6352 76.2667 31.5507C76.3094 31.5085 76.3094 31.4451 76.2667 31.3818C76.224 31.3184 76.1813 31.2762 76.1173 31.234C76.0107 31.1495 75.8827 31.065 75.7547 30.9805C75.2427 30.6849 74.6667 30.4526 74.112 30.2414C73.5574 30.0302 72.9813 29.8402 72.384 29.6923C71.808 29.5445 71.2107 29.46 70.592 29.4178C69.9947 29.3755 69.376 29.3967 68.8 29.4811V29.46C69.9307 30.2414 71.0827 30.9805 72.2987 31.593C72.9174 31.8886 73.536 32.1843 74.2187 32.2899C74.56 32.3321 74.9014 32.3532 75.2427 32.4588C75.4134 32.5011 75.5627 32.5644 75.712 32.6489C75.904 32.7334 76.0747 32.839 76.096 33.0079C76.1174 33.0079 76.1174 33.0079 76.096 33.0079Z" fill="#0C3956"/>
</g>
<g id="Group_16">
<path id="Vector_34" d="M68.6507 27.5805C68.864 27.4327 69.1413 27.4115 69.3973 27.4327C69.6533 27.4538 69.9093 27.496 70.144 27.5805C70.4 27.6438 70.6347 27.7494 70.8693 27.855C71.104 27.9606 71.3173 28.0873 71.552 28.1929C72.4693 28.6575 73.408 29.0165 74.3893 29.3544L77.2907 30.347C77.4187 30.3892 77.5253 30.4315 77.6533 30.4948C77.7173 30.537 77.7813 30.5582 77.824 30.6004L77.888 30.6638L77.952 30.7482C78.1013 30.9805 78.1013 31.2551 78.08 31.4874C78.0587 31.7408 77.9733 31.9942 77.8667 32.2265C77.76 32.4588 77.632 32.6911 77.3973 32.8178C77.6107 32.67 77.7387 32.4377 77.8453 32.2054C77.952 31.9731 78.016 31.7197 78.0373 31.4874C78.0587 31.234 78.0373 30.9805 77.9093 30.7693C77.7813 30.5582 77.5253 30.4737 77.2907 30.3892C76.3307 30.0513 75.3493 29.7346 74.3893 29.3755C73.4293 29.0165 72.4693 28.6575 71.552 28.214C71.104 27.9817 70.6347 27.7494 70.1653 27.6016C69.9307 27.5171 69.6747 27.4749 69.4187 27.4538C69.1413 27.4327 68.8853 27.4538 68.6507 27.5805Z" fill="#0C3956"/>
</g>
<g id="Group_17">
<path id="Vector_35" d="M54.848 21.3506L56.7467 22.1953C57.3867 22.4699 58.0267 22.7655 58.6667 22.9978C59.3067 23.2512 59.968 23.5047 60.608 23.737C61.2693 23.9693 61.9093 24.2016 62.592 24.3916C61.9093 24.2227 61.248 24.0115 60.608 23.7792C59.9467 23.5469 59.3067 23.2935 58.6667 23.0189L56.7467 22.2164C56.4267 22.0897 56.1067 21.9419 55.7867 21.7941C55.4667 21.6674 55.1467 21.5195 54.848 21.3506Z" fill="#0C3956"/>
</g>
</g>
</g>
<g id="Group_18">
<g id="Group_19">
<path id="Vector_36" d="M49.4293 35.352C49.4293 35.352 52.0533 35.7744 54.1013 34.7396C54.1013 34.7396 52.992 30.0936 52.1813 28.3408C51.6693 28.2141 51.2427 28.0662 51.1147 27.8339C51.072 27.7706 51.0507 27.7072 51.0293 27.6227C50.6667 28.0662 50.0267 28.5942 49.1307 28.4886C48 28.3619 47.2533 27.7917 46.7627 27.3693C46.72 27.4538 46.656 27.5172 46.592 27.5805C46.4 27.7495 45.7813 28.0029 45.0773 28.3196C46.2293 29.2066 48.5973 31.5085 49.4293 35.352Z" fill="#CECFFF"/>
<path id="Vector_37" d="M61.568 30.178L61.184 32.311C61.184 32.311 60.1173 31.7197 58.8373 31.0228C58.7947 31.9097 58.624 33.2402 57.984 34.5073C59.84 34.9508 62.6133 35.4787 63.232 34.993C63.7013 34.634 63.7867 32.8389 63.7013 30.9805C62.8693 30.6638 62.3147 30.4103 61.568 30.178Z" fill="#FFCCD3"/>
<path id="Vector_38" d="M43.136 38.8154C43.3067 38.4353 43.4774 38.0129 43.648 37.5483C43.648 37.5483 45.2054 41.0329 45.248 42.1732C45.248 42.3844 45.248 42.6167 45.248 42.9124C46.72 42.3844 48.2347 40.0614 48.192 35.9222C48.1707 32.1209 45.4614 29.8402 44.0747 28.742C43.3067 29.1221 42.6027 29.5656 42.3467 30.0302C41.8987 30.8538 40.9173 33.9371 40.192 36.3235C40.832 37.1049 41.9627 38.3297 43.136 38.8154Z" fill="#CECFFF"/>
<path id="Vector_39" d="M51.008 27.6228C50.7947 26.9892 50.816 25.8911 50.816 25.8911L47.0613 25.5532C47.0613 25.5532 47.104 26.778 46.7627 27.3693C47.2533 27.7917 47.9787 28.3619 49.1307 28.4886C50.0267 28.5942 50.6453 28.0662 51.008 27.6228Z" fill="#FFCCD3"/>
<path id="Vector_40" d="M54.3147 28.742C54.0373 28.6575 53.6107 28.5942 53.1627 28.5097C53.632 29.9457 55.3387 35.1409 55.7867 36.7881C55.8933 37.1682 55.9573 37.5272 56.0213 37.8651C56.1707 36.1123 56.2773 34.6551 56.2133 34.0638C56.2133 34.0638 56.96 34.275 57.984 34.5073C58.624 33.2402 58.7947 31.9098 58.8373 31.0228C57.0453 30.0725 54.8053 28.8898 54.3147 28.742Z" fill="#CECFFF"/>
<path id="Vector_41" d="M41.792 41.2652C41.792 41.2652 42.4533 40.3571 43.136 38.8154C41.9627 38.3086 40.8107 37.0837 40.192 36.3446C39.936 37.2105 39.7013 37.9707 39.5307 38.5198C38.912 40.5683 38.7627 41.0962 38.8907 41.941C39.0187 42.7646 44.2667 50.0504 44.4373 50.3038C44.544 49.2901 44.672 48.2976 44.7787 47.5795L41.792 41.2652Z" fill="#FFCCD3"/>
<path id="Vector_42" d="M45.5253 49.0789L44.8213 47.6006C44.7147 48.2976 44.5867 49.3112 44.48 50.3249C44.48 50.3249 45.44 49.3746 45.5253 49.0789Z" stroke="#0C3956" stroke-width="0.2567" stroke-miterlimit="10" stroke-linecap="round" stroke-linejoin="round"/>
<path id="Vector_43" d="M56.512 55.33C56.2347 52.479 55.4667 48.4665 55.424 45.869C55.4027 44.264 55.7867 40.7161 56.0427 37.8862C55.9787 37.5483 55.9147 37.1893 55.808 36.8092C55.36 35.162 53.6533 29.9669 53.184 28.5308C52.864 28.4675 52.5227 28.4252 52.2027 28.3408C53.0133 30.0936 54.1227 34.7396 54.1227 34.7396C52.0747 35.7744 49.4507 35.352 49.4507 35.352C48.64 31.4874 46.272 29.2066 45.12 28.2985C44.8 28.4464 44.4587 28.5942 44.1387 28.7631C45.504 29.8613 48.2133 32.1421 48.256 35.9434C48.2773 40.0825 46.784 42.4056 45.312 42.9335C45.2907 44.2428 45.1413 46.1646 44.992 46.9038C44.9707 47.0727 44.928 47.305 44.864 47.6007L45.568 49.0789C45.4613 49.3957 44.5227 50.3249 44.5227 50.3249C44.4373 51.1485 44.352 51.9933 44.3307 52.6902C44.288 53.5983 44.416 56.8082 44.544 59.8915C44.736 64.3264 44.544 68.7401 43.968 73.1327L43.072 83.1005H45.632L49.3653 66.7972L51.2427 60.2294V66.396L51.456 83.1005H54.144L55.9787 66.396C55.936 66.4171 56.768 58.1598 56.512 55.33Z" fill="#6166FF"/>
<path id="Vector_44" d="M42.3893 42.4901L45.5253 49.0578C45.5253 49.0578 45.056 50.0082 44.48 50.3038L39.8507 43.6093L42.3893 42.4901Z" fill="#FFCCD3"/>
<path id="Vector_45" d="M61.184 32.311C61.184 32.311 61.1627 33.0291 61.4614 33.4725" stroke="#0C3956" stroke-width="0.2567" stroke-miterlimit="10" stroke-linecap="round" stroke-linejoin="round"/>
<path id="Vector_46" d="M41.792 41.2652C41.792 41.2652 41.2374 41.1173 41.024 41.2652" stroke="#0C3956" stroke-width="0.2567" stroke-miterlimit="10" stroke-linecap="round" stroke-linejoin="round"/>
<path id="Vector_47" d="M43.648 37.5484L43.9253 35.0986" stroke="#0C3956" stroke-width="0.2567" stroke-miterlimit="10" stroke-linecap="round" stroke-linejoin="round"/>
<path id="Vector_48" d="M56.2133 34.085L55.936 32.3955" stroke="#0C3956" stroke-width="0.2567" stroke-miterlimit="10" stroke-linecap="round" stroke-linejoin="round"/>
<path id="Vector_49" d="M45.7173 48.2764C45.7173 48.2764 45.312 49.9448 45.2693 54.274C45.2053 58.6033 45.2693 64.5586 45.2693 64.5586L43.712 83.1005" stroke="#0C3956" stroke-width="0.2567" stroke-miterlimit="10" stroke-linecap="round" stroke-linejoin="round"/>
<path id="Vector_50" d="M51.2213 60.2505C51.2213 60.2505 52.9067 54.8865 53.0133 54.2952L54.0373 53.4927" stroke="#0C3956" stroke-width="0.2567" stroke-miterlimit="10" stroke-linecap="round" stroke-linejoin="round"/>
<path id="Vector_51" d="M46.144 22.1742C46.144 22.1742 45.6747 21.7096 45.4187 21.8786C45.1627 22.0475 45.2907 23.2513 46.144 23.5469C46.144 23.5469 46.7627 26.778 49.1947 27.0103C51.6267 27.2426 51.7547 23.4413 51.7547 23.4413C51.7547 23.4413 52.0747 23.6314 52.2667 23.1035C52.4587 22.5755 51.8827 21.4351 51.712 21.6252C51.712 21.6252 51.6907 17.7183 49.0453 17.7394C46.4 17.7605 45.888 20.9072 46.144 22.1742Z" fill="#FFCCD3"/>
<path id="Vector_52" d="M45.76 21.8997C45.76 21.8997 45.3547 21.2872 45.76 19.4922C46.1653 17.6971 46.976 16.8946 48.896 17.1269C50.816 17.3592 51.6053 18.1406 51.904 19.7034C52.2027 21.2661 51.6693 22.3643 51.6693 22.3643C51.6693 22.3643 51.6053 21.6885 50.8373 20.4636C50.0907 19.2599 48.5973 19.9779 48.0427 19.2177C48.0427 19.2177 47.3387 20.7382 46.784 21.1183C46.2293 21.4984 46.3147 22.491 46.3147 22.491L45.76 21.8997Z" fill="#0C3956"/>
<path id="Vector_53" d="M47.0613 25.701C47.0613 25.701 48.0213 26.9259 49.1733 27.0103C50.3253 27.0948 50.816 26.3134 50.816 26.3134" stroke="#0C3956" stroke-width="0.2567" stroke-miterlimit="10" stroke-linecap="round" stroke-linejoin="round"/>
<path id="Vector_54" d="M45.3547 20.9071C45.44 21.1394 49.2373 19.5978 52.1813 20.0835C52.1813 20.0835 51.776 17.4015 50.816 16.7468C49.856 16.0922 48.9173 16.071 48.9173 16.071C48.9173 16.071 48.448 15.5642 47.6373 15.8387C46.8267 16.1133 46.848 16.5779 46.848 16.5779C46.848 16.5779 44.4587 18.3518 45.3547 20.9071Z" fill="#FAE625" stroke="#FAE625" stroke-width="0.9467" stroke-miterlimit="10" stroke-linecap="round" stroke-linejoin="round"/>
<path id="Vector_55" d="M45.3547 20.6959C45.2267 20.3369 45.1627 19.9779 45.1627 19.6611C45.1413 20.0413 45.2053 20.4636 45.3547 20.9071C45.44 21.1394 49.2373 19.5978 52.1813 20.0835C52.1813 20.0835 52.16 19.999 52.1387 19.8723C49.216 19.4077 45.44 20.9282 45.3547 20.6959Z" fill="#FAD225"/>
<path id="Vector_56" d="M46.848 16.5779C46.848 16.5779 47.4027 17.0002 47.4027 17.4648L46.6987 16.7046C46.6773 16.7046 46.6133 16.6835 46.848 16.5779Z" fill="#FAD225"/>
<path id="Vector_57" d="M48.9173 16.0499C48.9173 16.0499 49.3867 16.5567 49.3227 17.0002C49.3227 17.0002 49.472 16.5779 49.1947 16.0499C49.1947 16.0499 48.9813 15.9232 48.9173 16.0499Z" fill="#FAD225"/>
</g>
<path id="Vector_58" d="M45.568 83.1216H42.9867L40.1067 84.5155H45.376C45.5893 84.5155 45.76 84.3254 45.7173 84.1142L45.568 83.1216Z" fill="#0C3956"/>
<path id="Vector_59" d="M51.4347 83.1216H54.016L56.896 84.5155H51.6267C51.4133 84.5155 51.2427 84.3254 51.2853 84.1142L51.4347 83.1216Z" fill="#0C3956"/>
</g>
<g id="Group_20">
<path id="Vector_60" d="M64.7893 24.3494C64.7893 24.3494 64.896 22.9345 64.384 23.0823C64.384 23.0823 64.1707 22.5121 63.744 22.9556C63.744 22.9556 63.3387 22.5121 62.976 22.9345C62.976 22.9345 62.3787 22.5543 62.208 22.9134C62.0587 23.2724 62.1013 24.4128 62.3147 24.4761C62.528 24.5183 62.5067 24.1382 62.5067 24.1382C62.5067 24.1382 62.4853 25.0463 62.7413 25.0674C62.976 25.0885 62.9973 24.7929 62.9973 24.7929C62.9973 24.7929 63.0613 25.1097 63.232 25.0674C63.424 25.0463 63.4453 24.7295 63.4453 24.7295C63.4453 24.7295 63.552 24.8985 63.808 24.7295C64.064 24.5606 64.0853 24.096 64.0853 24.096L64.7893 24.3494Z" fill="#FFCCD3"/>
<path id="Vector_61" d="M62.976 22.9344C62.976 22.9344 62.848 23.1034 62.7413 23.3146C62.6347 23.5258 62.528 24.1382 62.528 24.1382" stroke="#0C3956" stroke-width="0.2172" stroke-miterlimit="10" stroke-linecap="round" stroke-linejoin="round"/>
<path id="Vector_62" d="M63.0187 24.7717C63.0187 24.7717 63.1893 22.9767 63.744 22.9556" stroke="#0C3956" stroke-width="0.2172" stroke-miterlimit="10" stroke-linecap="round" stroke-linejoin="round"/>
<path id="Vector_63" d="M63.4667 24.7084C63.4667 24.7084 63.744 23.0189 64.3627 23.0823" stroke="#0C3956" stroke-width="0.2172" stroke-miterlimit="10" stroke-linecap="round" stroke-linejoin="round"/>
<path id="Vector_64" d="M64.0853 24.0748C64.0853 24.0748 64.3627 23.6525 64.4907 23.7369" stroke="#0C3956" stroke-width="0.2172" stroke-miterlimit="10" stroke-linecap="round" stroke-linejoin="round"/>
</g>
<g id="Group_21">
<g id="Group_22">
<path id="Vector_65" d="M62.2487 45.8139L30.8851 43.5722L30.4672 49.3014L61.8308 51.5431L62.2487 45.8139Z" fill="#C97F89"/>
<g id="Group_23" opacity="0.33">
<g id="Group_24">
<path id="Vector_66" d="M32.0853 44.7497C32.2773 44.5174 32.5333 44.3696 32.8107 44.3062C33.088 44.2217 33.3867 44.2217 33.664 44.2429C33.9413 44.2851 34.24 44.3485 34.496 44.454C34.7733 44.5596 35.0293 44.6863 35.2853 44.8131C36.3307 45.2988 37.4613 45.5733 38.6133 45.7423C40.9173 46.059 43.2427 45.9957 45.5467 45.9746C46.6987 45.9957 47.872 46.0802 49.0027 46.3125C49.5787 46.4392 50.1333 46.5659 50.6667 46.7771C50.944 46.8826 51.2 47.0094 51.456 47.1361C51.712 47.2839 51.9467 47.4528 52.1173 47.6851C52.2027 47.7907 52.2667 47.9386 52.2667 48.0864C52.2667 48.2342 52.2027 48.382 52.096 48.4665C51.8613 48.6355 51.5627 48.6988 51.2853 48.7833C50.7307 48.91 50.1547 48.9945 49.5787 49.0578C48.4267 49.1845 47.2747 49.269 46.1227 49.3113C44.9707 49.3535 43.7973 49.3535 42.6453 49.3113C41.4933 49.269 40.32 49.1845 39.1893 48.9311C38.912 48.8678 38.6347 48.7833 38.3573 48.6777C38.2293 48.6144 38.1013 48.551 37.9733 48.4665C37.8667 48.382 37.7387 48.2765 37.696 48.1286C37.6533 47.9808 37.696 47.8119 37.7813 47.7063C37.8667 47.5796 37.9947 47.5162 38.1227 47.4317C38.3787 47.305 38.656 47.2205 38.9547 47.1572C39.5307 47.0305 40.1067 46.9671 40.6827 46.9249C41.2587 46.8826 41.8347 46.8826 42.4107 46.8826C43.5627 46.9038 44.736 46.9671 45.8667 47.1361C46.144 47.1783 46.4427 47.2417 46.72 47.305C46.8693 47.3473 46.9973 47.3895 47.1253 47.4528C47.1893 47.4951 47.2747 47.5373 47.2747 47.6218C47.2533 47.7063 47.2107 47.7696 47.168 47.8119C46.9333 48.0019 46.656 48.0864 46.3787 48.1709C46.1013 48.2553 45.824 48.3187 45.5253 48.3609C44.9493 48.4665 44.3733 48.5299 43.7973 48.5721C43.2213 48.6144 42.6453 48.6143 42.0693 48.551C41.92 48.5299 41.792 48.5088 41.6427 48.4665C41.4933 48.4243 41.3653 48.382 41.2373 48.2976C41.1733 48.2553 41.1307 48.2131 41.088 48.1497C41.0453 48.0864 41.024 48.0019 41.088 47.9386C41.1947 47.833 41.344 47.7907 41.472 47.7696C42.048 47.664 42.624 47.664 43.2 47.6851C42.624 47.6851 42.048 47.664 41.472 47.7907C41.344 47.833 41.1733 47.8541 41.088 47.9597C41.0453 48.023 41.0453 48.0864 41.088 48.1497C41.1307 48.2131 41.1733 48.2553 41.2373 48.2976C41.344 48.382 41.4933 48.4243 41.6427 48.4665C41.792 48.5088 41.92 48.5299 42.0693 48.551C42.6453 48.6143 43.2213 48.5932 43.7973 48.551C44.3733 48.5088 44.9493 48.4454 45.5253 48.3187C45.8027 48.2553 46.1013 48.192 46.3573 48.1075C46.6347 48.023 46.912 47.9386 47.1253 47.7485C47.1893 47.7063 47.2107 47.6429 47.232 47.5796C47.232 47.5162 47.168 47.474 47.104 47.4528C46.976 47.3895 46.848 47.3473 46.6987 47.305C46.4213 47.2417 46.144 47.1783 45.8453 47.1361C44.6933 46.9671 43.5413 46.9038 42.3893 46.8826C41.2373 46.8826 40.064 46.9038 38.9333 47.1572C38.656 47.2205 38.3787 47.305 38.1227 47.4317C37.9947 47.4951 37.8667 47.5796 37.7813 47.6851C37.696 47.7907 37.6747 47.9386 37.696 48.0653C37.7387 48.192 37.8453 48.2976 37.952 48.3821C38.0587 48.4665 38.1867 48.5299 38.336 48.5932C38.592 48.6988 38.8693 48.7833 39.168 48.8467C40.2987 49.1001 41.4507 49.1845 42.6027 49.2268C43.7547 49.269 44.9067 49.269 46.08 49.2479C47.232 49.2057 48.384 49.1423 49.536 49.0156C50.112 48.9522 50.688 48.8678 51.2427 48.7411C51.52 48.6777 51.8187 48.6144 52.032 48.4243C52.1387 48.3187 52.2027 48.192 52.2027 48.0442C52.2027 47.8963 52.1387 47.7696 52.0533 47.664C51.8827 47.4317 51.6267 47.2628 51.392 47.115C51.136 46.9671 50.88 46.8615 50.6027 46.7559C50.0693 46.5448 49.4933 46.3969 48.9387 46.2913C47.808 46.059 46.656 45.9746 45.4827 45.9534C43.1787 45.9746 40.8533 46.0379 38.5493 45.7C37.3973 45.5311 36.2667 45.2565 35.2213 44.7708C34.9653 44.6441 34.7093 44.5174 34.432 44.4118C34.1547 44.3062 33.8773 44.2429 33.6 44.2006C33.3227 44.1584 33.024 44.1795 32.7467 44.2429C32.5333 44.3907 32.2773 44.5385 32.0853 44.7497Z" fill="#0C3956"/>
</g>
<g id="Group_25">
<path id="Vector_67" d="M31.8933 47.474C32.3413 47.5795 32.8107 47.664 33.28 47.7063C33.7493 47.7485 34.2187 47.7274 34.6667 47.6429C34.9013 47.6007 35.1147 47.5162 35.3067 47.4106C35.4987 47.305 35.6907 47.1572 35.8827 47.0305C36.0747 46.9038 36.3093 46.8193 36.5227 46.777C36.7573 46.7348 36.992 46.7137 37.2267 46.7348V46.7559C36.7787 46.4603 36.288 46.2491 35.776 46.0801C35.264 45.9112 34.7307 45.8267 34.1973 45.8267C33.9413 45.8267 33.664 45.8478 33.408 45.9534C33.28 45.9957 33.1733 46.0801 33.1093 46.1857C33.0453 46.2913 33.0453 46.4392 33.1307 46.5447C33.3013 46.7559 33.5787 46.8193 33.8347 46.8404C34.0907 46.8615 34.368 46.777 34.5813 46.587C34.3893 46.777 34.112 46.8615 33.8347 46.8404C33.5787 46.8193 33.28 46.7559 33.1093 46.5447C33.024 46.4392 33.0027 46.2702 33.088 46.1435C33.1733 46.0168 33.28 45.9534 33.408 45.8901C33.664 45.7845 33.9413 45.7634 34.1973 45.7634C34.7307 45.7845 35.264 45.869 35.776 46.0379C36.288 46.2069 36.7787 46.4392 37.2267 46.7348C37.2267 46.7348 37.2267 46.7348 37.2267 46.7559C36.992 46.7559 36.7573 46.7559 36.5227 46.7982C36.288 46.8404 36.0747 46.9249 35.8827 47.0516C35.6907 47.1783 35.4987 47.3261 35.3067 47.4317C35.1147 47.5584 34.88 47.6429 34.6453 47.6851C34.176 47.7907 33.7067 47.7907 33.2373 47.7485C32.8107 47.6851 32.3413 47.6007 31.8933 47.474Z" fill="#0C3956"/>
</g>
<g id="Group_26">
<path id="Vector_68" d="M36.7147 48.6143C36.3307 48.551 35.9253 48.5721 35.5413 48.5932C35.3493 48.5932 35.136 48.6143 34.944 48.6143L34.3467 48.6566C33.9413 48.6777 33.5573 48.6777 33.152 48.6354C32.768 48.5932 32.3627 48.5087 32 48.3609C32.384 48.4876 32.768 48.551 33.152 48.5932C33.536 48.6354 33.9413 48.6566 34.3253 48.6566C34.7307 48.6354 35.1147 48.5932 35.52 48.5721C35.712 48.551 35.9253 48.551 36.1173 48.5721C36.3307 48.551 36.5227 48.551 36.7147 48.6143Z" fill="#0C3956"/>
</g>
<g id="Group_27">
<path id="Vector_69" d="M50.3467 49.6914C50.432 49.6281 50.5387 49.5858 50.624 49.5436C50.7307 49.5013 50.8373 49.4802 50.944 49.4802C51.1573 49.4591 51.3707 49.438 51.584 49.438C52.0107 49.438 52.4373 49.5013 52.864 49.5858C53.2907 49.6703 53.696 49.797 54.1227 49.8815C54.5493 49.9871 54.976 50.0504 55.4027 50.1138C56.256 50.2194 57.1093 50.2827 57.984 50.2827C58.8373 50.2827 59.712 50.2405 60.544 50.0927C60.1173 50.1982 59.6907 50.2405 59.264 50.2827C58.8373 50.325 58.4107 50.3461 57.9627 50.325C57.1093 50.325 56.2347 50.2616 55.3813 50.1349C55.168 50.1138 54.9547 50.0715 54.7413 50.0293C54.528 49.9871 54.3147 49.9448 54.1013 49.9026C53.6747 49.8181 53.2693 49.6914 52.8427 49.6281C52.416 49.5436 51.9893 49.4802 51.5627 49.4802C51.3493 49.4591 51.136 49.4802 50.9227 49.5013C50.752 49.5225 50.5387 49.5647 50.3467 49.6914Z" fill="#0C3956"/>
</g>
<g id="Group_28">
<path id="Vector_70" d="M60.0533 49.1001C59.968 48.9734 59.8187 48.9311 59.6693 48.8889C59.52 48.8678 59.3707 48.8678 59.2213 48.8678C58.9227 48.8889 58.624 48.9523 58.3467 48.9945C57.7493 49.1001 57.152 49.0156 56.5547 48.9311C55.9573 48.8467 55.3813 48.6988 54.8053 48.551C54.2293 48.4032 53.6533 48.2342 53.0773 48.0442C53.0773 48.0442 53.0773 48.0442 53.0773 48.023C54.0373 47.5796 55.0613 47.3261 56.128 47.2628C56.6613 47.2206 57.1733 47.2417 57.7067 47.2628C58.24 47.2839 58.752 47.3473 59.2853 47.4529C59.4133 47.474 59.5413 47.5162 59.6693 47.5584C59.7333 47.5796 59.7973 47.6218 59.84 47.664C59.8613 47.6852 59.8827 47.7063 59.904 47.7485C59.9253 47.7907 59.904 47.833 59.8827 47.8541C59.7973 47.9808 59.6693 48.023 59.5413 48.0653C59.4133 48.1075 59.2853 48.1498 59.1573 48.1709C58.6453 48.2765 58.112 48.3187 57.5787 48.3187C57.3227 48.3187 57.0453 48.3187 56.7893 48.2976C56.5333 48.2765 56.256 48.2553 56.0213 48.1498C55.9573 48.1286 55.8933 48.0653 55.8933 48.0019C55.872 47.9386 55.9147 47.8541 55.9787 47.833C56.0853 47.7696 56.2347 47.7485 56.3627 47.7274C56.6187 47.6852 56.896 47.6852 57.152 47.7063C56.896 47.7063 56.6187 47.7063 56.3627 47.7485C56.2347 47.7696 56.1067 47.7907 56 47.8541C55.936 47.8963 55.9147 47.9386 55.9147 48.0019C55.936 48.0653 55.9787 48.1075 56.0427 48.1286C56.2773 48.2342 56.5547 48.2553 56.8107 48.2765C57.0667 48.2976 57.344 48.2976 57.6 48.2976C58.1333 48.2765 58.6453 48.2342 59.1573 48.1498C59.2853 48.1286 59.4133 48.0864 59.5413 48.0442C59.6693 48.0019 59.7973 47.9386 59.8613 47.8541C59.904 47.8119 59.8613 47.7485 59.8187 47.7063C59.776 47.664 59.712 47.6429 59.648 47.6218C59.52 47.5796 59.392 47.5373 59.264 47.5162C58.752 47.4106 58.2187 47.3684 57.7067 47.3261C57.1733 47.305 56.6613 47.2839 56.128 47.3261C55.5947 47.3473 55.0827 47.4317 54.5707 47.5584C54.0587 47.6852 53.568 47.8541 53.0987 48.0864V48.0653C54.2293 48.4243 55.4027 48.7411 56.576 48.9311C57.1733 49.0156 57.7707 49.1001 58.3467 49.0156C58.6453 48.9523 58.944 48.8889 59.2427 48.8889C59.392 48.8889 59.5413 48.8889 59.6907 48.91C59.8187 48.9311 59.968 48.9734 60.0533 49.1001C60.0533 49.1212 60.0533 49.1212 60.0533 49.1001Z" fill="#0C3956"/>
</g>
<g id="Group_29">
<path id="Vector_71" d="M52.992 46.2069C53.2053 46.1435 53.44 46.1435 53.6533 46.1224C53.888 46.1224 54.1014 46.1435 54.3147 46.1646C54.528 46.1857 54.7627 46.228 54.976 46.2702C55.8507 46.418 56.7467 46.4814 57.6427 46.5025L60.3094 46.5659C60.416 46.5659 60.5227 46.5659 60.6507 46.587C60.7147 46.6081 60.7574 46.6081 60.8214 46.6292L60.9067 46.6715L60.9707 46.7348C61.1413 46.8826 61.2267 47.1149 61.2694 47.3261C61.312 47.5373 61.312 47.7696 61.2907 47.9808C61.2693 48.192 61.2054 48.4243 61.056 48.5932C61.2054 48.4243 61.248 48.192 61.2694 47.9808C61.2907 47.7696 61.2907 47.5373 61.2267 47.3261C61.184 47.1149 61.0987 46.9038 60.928 46.7559C60.7574 46.6081 60.5227 46.6081 60.3094 46.6081C59.4134 46.5659 58.5174 46.5659 57.6427 46.5236C56.7467 46.4814 55.8507 46.418 54.976 46.2913C54.528 46.228 54.1013 46.1435 53.6533 46.1435C53.44 46.1435 53.2053 46.1646 52.992 46.2069Z" fill="#0C3956"/>
</g>
<g id="Group_30">
<path id="Vector_72" d="M39.2747 44.9186L41.088 45.1298C41.6854 45.1932 42.2827 45.2777 42.9014 45.2988C43.4987 45.341 44.1174 45.3832 44.7147 45.4044C45.312 45.4255 45.9307 45.4466 46.528 45.4466C45.9307 45.4888 45.312 45.4888 44.7147 45.4466C44.1174 45.4255 43.4987 45.3832 42.9014 45.3199L41.088 45.1509C40.7894 45.1298 40.4907 45.0876 40.192 45.0454C39.872 45.0031 39.5734 44.9609 39.2747 44.9186Z" fill="#0C3956"/>
</g>
</g>
</g>
<g id="Group_31">
<path id="Vector_73" d="M44.288 50.3038C44.288 50.3038 44.544 51.6977 45.0134 51.4231C45.0134 51.4231 45.376 51.9088 45.6534 51.3809C45.6534 51.3809 46.1654 51.7188 46.4 51.2119C46.4 51.2119 47.0827 51.4231 47.1467 51.043C47.2107 50.6417 46.848 49.5647 46.6347 49.5647C46.4214 49.5647 46.528 49.9237 46.528 49.9237C46.528 49.9237 46.3147 49.0367 46.08 49.1001C45.8454 49.1423 45.9094 49.438 45.9094 49.438C45.9094 49.438 45.7814 49.1423 45.6107 49.2268C45.44 49.3113 45.504 49.6069 45.504 49.6069C45.504 49.6069 45.3547 49.4802 45.1627 49.7125C44.9707 49.9448 45.056 50.3883 45.056 50.3883L44.288 50.3038Z" fill="#FFCCD3"/>
<path id="Vector_74" d="M46.4 51.2119C46.4 51.2119 46.4854 51.0219 46.528 50.7896C46.5707 50.5573 46.5067 49.9448 46.5067 49.9448" stroke="#0C3956" stroke-width="0.2172" stroke-miterlimit="10" stroke-linecap="round" stroke-linejoin="round"/>
<path id="Vector_75" d="M45.888 49.438C45.888 49.438 46.1867 51.2119 45.6534 51.3809" stroke="#0C3956" stroke-width="0.2172" stroke-miterlimit="10" stroke-linecap="round" stroke-linejoin="round"/>
<path id="Vector_76" d="M45.4614 49.6069C45.4614 49.6069 45.632 51.3175 45.0134 51.4231" stroke="#0C3956" stroke-width="0.2172" stroke-miterlimit="10" stroke-linecap="round" stroke-linejoin="round"/>
<path id="Vector_77" d="M45.0134 50.3883C45.0134 50.3883 44.864 50.8529 44.7147 50.8318" stroke="#0C3956" stroke-width="0.2172" stroke-miterlimit="10" stroke-linecap="round" stroke-linejoin="round"/>
</g>
</g>
</g>
<g id="Group_32">
<g id="Group_33">
<path id="Vector_78" d="M121.195 38.2453C121.088 39.0689 120.896 40.2515 120.597 41.2229C120.107 42.849 119.488 44.7497 119.211 45.6789C118.933 46.6081 118.763 48.2131 118.763 48.2131C118.763 48.2131 118.123 48.4665 117.205 48.1497C117.205 48.1497 117.419 44.454 117.653 42.1099C117.781 40.885 118.187 38.2453 118.571 36.6191C119.552 36.8937 120.64 38.1397 121.195 38.2453Z" fill="#FFCCD3"/>
<g id="Group_34">
<path id="Vector_79" d="M135.893 30.8749C136.085 30.8749 138.944 34.7396 138.944 34.7396C138.944 34.7396 139.328 33.2613 139.541 32.2265C139.755 31.2128 140.203 29.27 140.203 29.27L141.547 29.5656C141.547 29.5656 141.44 38.1608 140.245 38.3719C139.051 38.5831 135.232 35.0564 135.232 35.0564L135.893 30.8749Z" fill="#FFCCD3"/>
<path id="Vector_80" d="M138.944 34.7607C138.944 34.7607 138.837 35.0564 138.944 35.4154" stroke="#0C3956" stroke-width="0.2567" stroke-miterlimit="10" stroke-linecap="round" stroke-linejoin="round"/>
<g id="Group_35">
<path id="Vector_81" d="M140.437 20.0202L141.376 16.7468" stroke="#0C3956" stroke-width="0.91" stroke-miterlimit="10" stroke-linecap="round" stroke-linejoin="round"/>
<path id="Vector_82" d="M137.216 27.3482C137.237 27.5172 137.301 27.6861 137.429 27.8128C137.664 28.0451 138.091 28.383 138.517 28.2352C139.136 28.024 139.477 27.6439 139.819 27.7706C140.16 27.8973 142.4 30.0936 142.997 30.0091C143.595 29.9246 143.659 28.1085 143.125 27.5383L140.971 26.1656C140.971 26.1656 141.163 25.4687 140.992 25.342C140.843 25.2153 140.245 24.983 140.245 24.983C140.245 24.983 141.333 20.1046 141.141 19.8934C141.056 19.7879 140.779 19.7034 140.501 19.64C140.16 19.5556 139.819 19.7034 139.648 19.999C138.923 21.3084 137.003 25.0674 137.216 27.3482Z" fill="#FAE625"/>
<path id="Vector_83" d="M140.971 26.1445L140.139 25.7432L140.245 24.9619" stroke="#0C3956" stroke-width="0.1732" stroke-miterlimit="10" stroke-linecap="round" stroke-linejoin="round"/>
<path id="Vector_84" d="M140.373 28.1507C140.373 28.1507 140.523 26.9047 140.779 26.9892C141.035 27.0737 140.736 28.4675 140.736 28.4675" stroke="#0C3956" stroke-width="0.1732" stroke-miterlimit="10" stroke-linecap="round" stroke-linejoin="round"/>
<path id="Vector_85" d="M141.227 28.8687C141.227 28.8687 141.376 27.6228 141.632 27.7072C141.888 27.7917 141.589 29.1855 141.589 29.1855" stroke="#0C3956" stroke-width="0.1732" stroke-miterlimit="10" stroke-linecap="round" stroke-linejoin="round"/>
<path id="Vector_86" d="M138.816 21.6252C138.88 21.6674 139.904 22.2587 140.821 22.1531" stroke="#0C3956" stroke-width="0.1732" stroke-miterlimit="10" stroke-linecap="round" stroke-linejoin="round"/>
<path id="Vector_87" d="M139.861 19.7456C139.861 19.7456 140.459 20.1046 141.163 19.999" stroke="#0C3956" stroke-width="0.1732" stroke-miterlimit="10" stroke-linecap="round" stroke-linejoin="round"/>
<path id="Vector_88" d="M139.008 21.7096C139.008 21.7096 139.691 20.168 139.968 19.7878" stroke="#0C3956" stroke-width="0.1732" stroke-miterlimit="10" stroke-linecap="round" stroke-linejoin="round"/>
<path id="Vector_89" d="M140.629 22.1531C140.629 22.1531 140.928 20.7382 140.992 20.0201" stroke="#0C3956" stroke-width="0.1732" stroke-miterlimit="10" stroke-linecap="round" stroke-linejoin="round"/>
<path id="Vector_90" d="M139.392 21.8997C139.392 21.8997 140.075 20.2102 140.224 19.8934" stroke="#0C3956" stroke-width="0.1732" stroke-miterlimit="10" stroke-linecap="round" stroke-linejoin="round"/>
<path id="Vector_91" d="M139.968 22.0686C139.968 22.0686 140.459 20.527 140.587 19.9779" stroke="#0C3956" stroke-width="0.1732" stroke-miterlimit="10" stroke-linecap="round" stroke-linejoin="round"/>
<path id="Vector_92" d="M137.216 27.3482C137.216 27.3482 138.091 27.3693 138.517 28.2352" stroke="#0C3956" stroke-width="0.1732" stroke-miterlimit="10" stroke-linecap="round" stroke-linejoin="round"/>
</g>
<path id="Vector_93" d="M140.203 29.5023C140.203 29.5023 140.011 28.9743 139.648 28.4463C139.285 27.9184 139.136 27.2426 139.243 27.0948C139.349 26.9469 139.648 26.2712 139.819 26.3767C139.989 26.4823 139.84 27.1581 139.776 27.3482C139.712 27.5383 140.437 28.2774 140.693 28.4463C140.971 28.6153 141.76 29.101 141.803 29.3122C141.824 29.5234 141.504 29.6712 141.504 29.6712L140.203 29.5023Z" fill="#FFCCD3"/>
</g>
<g id="Group_36">
<path id="Vector_94" d="M127.573 35.352C127.573 35.352 130.197 35.7744 132.245 34.7396C132.245 34.7396 131.136 30.0936 130.325 28.3408C129.813 28.2141 129.387 28.0662 129.259 27.8339C129.216 27.7706 129.195 27.7072 129.173 27.6227C128.811 28.0662 128.171 28.5942 127.275 28.4886C126.144 28.3619 125.397 27.7917 124.907 27.3693C124.864 27.4538 124.8 27.5172 124.736 27.5805C124.544 27.7495 123.925 28.0029 123.221 28.3196C124.395 29.2066 126.741 31.5085 127.573 35.352Z" fill="#CECFFF"/>
<path id="Vector_95" d="M121.301 38.8154C121.472 38.4353 121.643 38.0129 121.813 37.5483C121.813 37.5483 123.371 41.0329 123.413 42.1732C123.413 42.3844 123.413 42.6167 123.413 42.9124C124.885 42.3844 126.4 40.0614 126.357 35.9222C126.336 32.1209 123.627 29.8402 122.24 28.742C121.472 29.1221 120.768 29.5656 120.512 30.0302C120.064 30.8538 119.083 33.9371 118.357 36.3235C118.976 37.1049 120.107 38.3297 121.301 38.8154Z" fill="#CECFFF"/>
<path id="Vector_96" d="M129.173 27.6228C128.96 26.9892 128.981 25.8911 128.981 25.8911L125.227 25.5532C125.227 25.5532 125.269 26.778 124.928 27.3693C125.419 27.7917 126.144 28.3619 127.296 28.4886C128.171 28.5942 128.811 28.0662 129.173 27.6228Z" fill="#FFCCD3"/>
<path id="Vector_97" d="M132.459 28.742C132.181 28.6575 131.755 28.5942 131.307 28.5097C131.776 29.9457 133.483 35.1409 133.931 36.7881C134.037 37.1682 134.101 37.5272 134.165 37.8651C134.315 36.1123 134.421 34.6551 134.357 34.0638C134.357 34.0638 134.677 34.7607 135.467 35.4154C136.107 34.1483 136.875 33.1769 137.216 32.2054C135.659 30.2836 132.949 28.8898 132.459 28.742Z" fill="#CECFFF"/>
<path id="Vector_98" d="M134.656 55.33C134.379 52.479 133.611 48.4665 133.568 45.869C133.547 44.264 133.931 40.7161 134.187 37.8862C134.123 37.5483 134.059 37.1893 133.952 36.8092C133.504 35.162 131.797 29.9669 131.328 28.5308C131.008 28.4675 130.667 28.4252 130.347 28.3408C131.157 30.0936 132.267 34.7396 132.267 34.7396C130.219 35.7744 127.595 35.352 127.595 35.352C126.784 31.4874 124.416 29.2066 123.264 28.2985C122.944 28.4464 122.603 28.5942 122.283 28.7631C123.648 29.8613 126.357 32.1421 126.4 35.9434C126.421 40.0825 124.928 42.4056 123.456 42.9335C123.435 44.2428 123.285 46.1646 123.136 46.9038C123.093 47.0727 123.072 47.305 123.008 47.6007C122.901 48.2976 122.773 49.3112 122.667 50.3249C122.581 51.1485 122.496 51.9933 122.475 52.6902C122.432 53.5983 122.56 56.8082 122.688 59.8915C122.88 64.3264 122.688 68.7401 122.112 73.1327L121.216 83.1005H123.776L127.509 66.7972L129.387 60.2294V66.396L129.6 83.1005H132.288L134.123 66.396C134.101 66.4171 134.912 58.1598 134.656 55.33ZM122.624 50.3249C122.624 50.3249 122.709 50.2404 122.837 50.0926C122.731 50.2404 122.624 50.3249 122.624 50.3249ZM122.944 50.0081C123.008 49.9448 123.072 49.8814 123.136 49.8181C123.051 49.8814 122.987 49.9448 122.944 50.0081Z" fill="#6166FF"/>
<path id="Vector_99" d="M121.813 37.5484L122.091 35.0986" stroke="#0C3956" stroke-width="0.2567" stroke-miterlimit="10" stroke-linecap="round" stroke-linejoin="round"/>
<path id="Vector_100" d="M134.357 34.085L134.08 32.3955" stroke="#0C3956" stroke-width="0.2567" stroke-miterlimit="10" stroke-linecap="round" stroke-linejoin="round"/>
<path id="Vector_101" d="M123.883 48.2764C123.883 48.2764 123.477 49.9448 123.435 54.274C123.371 58.6033 123.435 64.5586 123.435 64.5586L121.877 83.1005" stroke="#0C3956" stroke-width="0.2567" stroke-miterlimit="10" stroke-linecap="round" stroke-linejoin="round"/>
<path id="Vector_102" d="M129.365 60.2505C129.365 60.2505 131.051 54.8865 131.157 54.2952L132.181 53.4927" stroke="#0C3956" stroke-width="0.2567" stroke-miterlimit="10" stroke-linecap="round" stroke-linejoin="round"/>
<path id="Vector_103" d="M124.288 22.1742C124.288 22.1742 123.819 21.7096 123.563 21.8786C123.285 22.0475 123.435 23.2513 124.288 23.5469C124.288 23.5469 124.907 26.778 127.339 27.0103C129.771 27.2426 129.899 23.4413 129.899 23.4413C129.899 23.4413 130.219 23.6314 130.411 23.1035C130.603 22.5755 130.027 21.4351 129.856 21.6252C129.856 21.6252 129.835 17.7183 127.189 17.7394C124.565 17.7605 124.053 20.9072 124.288 22.1742Z" fill="#FFCCD3"/>
<path id="Vector_104" d="M123.904 21.8997C123.904 21.8997 123.499 21.2872 123.904 19.4922C124.309 17.6971 125.12 16.8946 127.04 17.1269C128.96 17.3592 129.749 18.1406 130.048 19.7034C130.347 21.2661 129.813 22.3643 129.813 22.3643C129.813 22.3643 129.749 21.6885 128.981 20.4636C128.235 19.2599 126.741 19.9779 126.187 19.2177C126.187 19.2177 125.483 20.7382 124.928 21.1183C124.373 21.4984 124.459 22.491 124.459 22.491L123.904 21.8997Z" fill="#0C3956"/>
<path id="Vector_105" d="M125.227 25.701C125.227 25.701 126.187 26.9259 127.339 27.0103C128.491 27.0948 128.981 26.3134 128.981 26.3134" stroke="#0C3956" stroke-width="0.2567" stroke-miterlimit="10" stroke-linecap="round" stroke-linejoin="round"/>
<path id="Vector_106" d="M123.499 20.9071C123.584 21.1394 127.381 19.5978 130.325 20.0835C130.325 20.0835 129.92 17.4015 128.96 16.7468C128 16.0922 127.061 16.071 127.061 16.071C127.061 16.071 126.592 15.5642 125.781 15.8387C124.971 16.1133 124.992 16.5779 124.992 16.5779C124.992 16.5779 122.624 18.3518 123.499 20.9071Z" fill="#FAE625" stroke="#FAE625" stroke-width="0.9467" stroke-miterlimit="10" stroke-linecap="round" stroke-linejoin="round"/>
<path id="Vector_107" d="M123.499 20.6959C123.371 20.3369 123.307 19.9779 123.307 19.6611C123.285 20.0413 123.349 20.4636 123.499 20.9071C123.584 21.1394 127.381 19.5978 130.325 20.0835C130.325 20.0835 130.304 19.999 130.283 19.8723C127.36 19.4077 123.584 20.9282 123.499 20.6959Z" fill="#FAD225"/>
<path id="Vector_108" d="M124.992 16.5779C124.992 16.5779 125.547 17.0002 125.547 17.4648L124.843 16.7046C124.843 16.7046 124.757 16.6835 124.992 16.5779Z" fill="#FAD225"/>
<path id="Vector_109" d="M127.061 16.0499C127.061 16.0499 127.531 16.5567 127.467 17.0002C127.467 17.0002 127.616 16.5779 127.339 16.0499C127.339 16.0499 127.125 15.9232 127.061 16.0499Z" fill="#FAD225"/>
<path id="Vector_110" d="M123.712 83.1216H121.131L118.251 84.5155H123.52C123.733 84.5155 123.904 84.3254 123.861 84.1142L123.712 83.1216Z" fill="#0C3956"/>
<path id="Vector_111" d="M129.6 83.1216H132.181L135.061 84.5155H129.792C129.579 84.5155 129.408 84.3254 129.451 84.1142L129.6 83.1216Z" fill="#0C3956"/>
</g>
</g>
<g id="Group_37">
<path id="Vector_112" d="M116.224 52.4157V51.1697C116.224 50.9585 116.395 50.8107 116.587 50.8107H119.424C119.637 50.8107 119.787 50.9796 119.787 51.1697V52.4157" stroke="#0C3956" stroke-width="2.5533" stroke-miterlimit="10" stroke-linecap="round" stroke-linejoin="round"/>
<path id="Vector_113" d="M125.803 55.5412H125.653L124.651 52.7324C124.587 52.5424 124.395 52.4156 124.181 52.4156H118.336H117.035H111.189C110.976 52.4156 110.805 52.5424 110.72 52.7324L109.717 55.5412H109.547C109.355 55.5412 109.205 55.689 109.205 55.8791V56.5548H117.013H118.315H126.123V55.8791C126.144 55.689 125.995 55.5412 125.803 55.5412Z" fill="#FAD225"/>
<path id="Vector_114" d="M109.568 57.5474H109.739L110.741 60.3562C110.805 60.5462 110.997 60.6729 111.211 60.6729H117.056H118.357H124.203C124.416 60.6729 124.587 60.5462 124.672 60.3562L125.675 57.5474H125.845C126.037 57.5474 126.187 57.3996 126.187 57.2095V56.5338H118.379H117.077H109.227V57.2095C109.227 57.3996 109.376 57.5474 109.568 57.5474Z" fill="#0C3956"/>
<path id="Vector_115" d="M109.739 55.5412H125.653" stroke="#0C3956" stroke-width="0.2212" stroke-miterlimit="10" stroke-linecap="round" stroke-linejoin="round"/>
<g id="Group_38">
<path id="Vector_116" d="M113.429 57.9276H113.003C112.853 57.9276 112.725 57.8009 112.725 57.653V56.407C112.725 56.2592 112.853 56.1325 113.003 56.1325H113.429C113.579 56.1325 113.707 56.2592 113.707 56.407V57.653C113.707 57.8009 113.579 57.9276 113.429 57.9276Z" fill="#FAD225"/>
<path id="Vector_117" d="M122.368 57.9276H121.941C121.792 57.9276 121.664 57.8009 121.664 57.653V56.407C121.664 56.2592 121.792 56.1325 121.941 56.1325H122.368C122.517 56.1325 122.645 56.2592 122.645 56.407V57.653C122.645 57.8009 122.517 57.9276 122.368 57.9276Z" fill="#FAD225"/>
</g>
<g id="Group_39">
<path id="Vector_118" d="M114.731 52.4156L114.645 52.9225C114.603 53.1548 114.411 53.3026 114.176 53.3026H110.933" stroke="#0C3956" stroke-width="0.2212" stroke-miterlimit="10" stroke-linecap="round" stroke-linejoin="round"/>
<path id="Vector_119" d="M120.661 52.4156L120.747 52.9225C120.789 53.1548 120.981 53.3026 121.216 53.3026H124.437" stroke="#0C3956" stroke-width="0.2212" stroke-miterlimit="10" stroke-linecap="round" stroke-linejoin="round"/>
</g>
</g>
<g id="Group_40">
<path id="Vector_120" d="M117.248 47.8118C117.248 48.382 117.099 48.9522 116.843 49.4802C116.843 49.4802 116.843 49.4802 116.843 49.5013C116.651 49.8814 116.651 50.4094 116.949 50.8106C117.248 51.233 117.333 51.3175 117.397 51.1696C117.397 51.1696 117.568 51.8032 118.037 51.6342C118.037 51.6342 118.379 52.0355 118.613 51.761C118.613 51.761 118.891 51.9721 119.104 51.8243C119.317 51.6976 119.317 50.6206 119.317 50.6206L119.957 50.7684C119.957 50.7684 119.68 50.346 119.616 49.797C119.531 49.2479 119.616 49.2901 119.467 48.9733C119.317 48.6777 118.72 48.1708 118.741 47.9174L117.248 47.6218V47.8118Z" fill="#FFCCD3"/>
<path id="Vector_121" d="M118.613 51.7821C118.613 51.7821 118.528 51.4864 118.507 51.1696C118.485 50.8317 118.485 50.4094 118.485 50.4094" stroke="#0C3956" stroke-width="0.231" stroke-miterlimit="10" stroke-linecap="round" stroke-linejoin="round"/>
<path id="Vector_122" d="M118.037 51.6342C118.037 51.6342 117.76 50.7473 117.781 50.4516" stroke="#0C3956" stroke-width="0.231" stroke-miterlimit="10" stroke-linecap="round" stroke-linejoin="round"/>
<path id="Vector_123" d="M117.397 51.1696C117.397 51.1696 117.163 50.5994 117.184 50.4305" stroke="#0C3956" stroke-width="0.231" stroke-miterlimit="10" stroke-linecap="round" stroke-linejoin="round"/>
<path id="Vector_124" d="M119.317 50.6628C119.317 50.6628 119.317 50.2193 119.275 50.1137" stroke="#0C3956" stroke-width="0.231" stroke-miterlimit="10" stroke-linecap="round" stroke-linejoin="round"/>
</g>
</g>
<g id="Group_41">
<g id="Group_42">
<path id="Vector_125" d="M81.7331 74.1242L70.3858 41.0058L64.224 43.0747L75.5713 76.1931L81.7331 74.1242Z" fill="#C97F89"/>
<g id="Group_43" opacity="0.33">
<g id="Group_44">
<path id="Vector_126" d="M69.6747 42.7435C69.9947 42.8279 70.2507 43.0391 70.464 43.2925C70.6773 43.546 70.8053 43.8416 70.8907 44.1584C70.9333 44.3062 70.976 44.4752 70.9973 44.623C71.0187 44.7919 71.04 44.9398 71.04 45.1087C71.0613 45.4255 71.04 45.7634 71.0187 46.0802C70.976 47.3684 71.168 48.6566 71.5093 49.9026C72.192 52.3945 73.2587 54.7387 74.2827 57.1039C74.7733 58.3077 75.1787 59.5325 75.4347 60.7996C75.5627 61.4332 75.648 62.0667 75.6693 62.7214C75.6693 63.0382 75.6693 63.3761 75.6267 63.6928C75.584 64.0096 75.52 64.3264 75.3493 64.622C75.264 64.7699 75.1573 64.8966 75.008 64.9599C74.8587 65.0233 74.688 65.0233 74.5173 64.9599C74.368 64.8755 74.2613 64.7699 74.1547 64.6432C74.048 64.5164 73.9413 64.3897 73.856 64.263C73.472 63.7351 73.1307 63.186 72.8107 62.6369C72.1707 61.5176 71.5947 60.3561 71.04 59.1946C70.4853 58.0331 69.9947 56.8505 69.5253 55.6256C69.0773 54.4219 68.6507 53.197 68.416 51.9299C68.352 51.6132 68.3093 51.2964 68.3307 50.9585C68.3307 50.7895 68.352 50.6417 68.3733 50.4728C68.416 50.3249 68.48 50.156 68.608 50.0504C68.736 49.9448 68.928 49.9026 69.0987 49.9448C69.2693 49.9871 69.3973 50.0715 69.5253 50.1771C69.7813 50.3883 69.9947 50.6417 70.1653 50.8951C70.5493 51.4231 70.848 51.9933 71.1467 52.5635C71.4453 53.1337 71.7013 53.725 71.9573 54.3163C72.448 55.4989 72.896 56.7238 73.216 57.9698C73.3013 58.2865 73.3653 58.6033 73.408 58.9201C73.4293 59.089 73.4507 59.2369 73.4293 59.4058C73.408 59.4903 73.408 59.5748 73.3227 59.6381C73.2373 59.6592 73.152 59.6381 73.0667 59.5959C72.768 59.4481 72.5547 59.1946 72.3413 58.9412C72.128 58.6878 71.936 58.4344 71.7653 58.1598C71.4027 57.6319 71.0827 57.0617 70.784 56.4915C70.4853 55.9213 70.2293 55.33 70.0373 54.6964C69.9947 54.5486 69.952 54.3797 69.9307 54.2318C69.9093 54.0629 69.888 53.9151 69.9307 53.7461C69.952 53.6616 69.9733 53.5983 70.016 53.5138C70.0587 53.4505 70.144 53.3871 70.2293 53.4293C70.3147 53.4505 70.3787 53.5138 70.4213 53.5772C70.4853 53.6405 70.528 53.7039 70.5707 53.7672C70.4853 53.6405 70.3787 53.4927 70.2293 53.4505C70.144 53.4293 70.08 53.4716 70.0373 53.5349C69.9947 53.5983 69.9733 53.6828 69.952 53.7461C69.9093 53.8939 69.9307 54.0629 69.952 54.2318C69.9733 54.4008 70.016 54.5486 70.0587 54.6964C70.2507 55.3089 70.5067 55.9002 70.8053 56.4704C71.104 57.0406 71.424 57.6108 71.7867 58.1387C71.9787 58.4133 72.1493 58.6667 72.3627 58.9201C72.576 59.1524 72.7893 59.4058 73.0667 59.5536C73.1307 59.5959 73.216 59.5959 73.28 59.5959C73.344 59.5748 73.3653 59.4903 73.3653 59.4058C73.3867 59.258 73.3653 59.089 73.344 58.9201C73.3013 58.6033 73.2373 58.2865 73.152 57.9698C72.832 56.7238 72.384 55.5201 71.8933 54.3163C71.6373 53.725 71.3813 53.1337 71.0827 52.5635C70.784 51.9933 70.4853 51.4231 70.1013 50.8951C69.9093 50.6417 69.7173 50.3883 69.4613 50.1771C69.3333 50.0715 69.2053 49.9871 69.056 49.9448C68.9067 49.9026 68.736 49.9448 68.608 50.0293C68.48 50.1349 68.416 50.2827 68.3733 50.4305C68.3307 50.5784 68.3307 50.7473 68.3307 50.8951C68.3307 51.2119 68.3733 51.5287 68.416 51.8455C68.6507 53.1126 69.0773 54.3374 69.5253 55.5412C69.9733 56.7449 70.4853 57.9275 71.0187 59.1102C71.552 60.2717 72.1493 61.4332 72.768 62.5524C73.088 63.1015 73.4293 63.6717 73.8133 64.1786C73.92 64.3053 74.0053 64.432 74.112 64.5587C74.2187 64.6854 74.3253 64.791 74.4747 64.8755C74.624 64.9388 74.7947 64.9388 74.944 64.8755C75.0933 64.8121 75.2 64.6854 75.2853 64.5587C75.456 64.2841 75.52 63.9674 75.5627 63.6506C75.6053 63.3338 75.6053 63.017 75.6053 62.6792C75.584 62.0456 75.4987 61.3909 75.3707 60.7574C75.1147 59.4903 74.7093 58.2654 74.2187 57.0828C73.1733 54.7176 72.1067 52.3734 71.4453 49.8603C71.1253 48.6144 70.912 47.3261 70.976 46.0379C70.9973 45.7212 71.0187 45.4044 70.9973 45.0665C70.9973 44.8975 70.976 44.7497 70.9547 44.5808C70.9333 44.4118 70.8907 44.264 70.8693 44.1162C70.784 43.7994 70.6347 43.5037 70.4427 43.2503C70.2507 43.0602 69.9947 42.8491 69.6747 42.7435C69.6747 42.7646 69.6747 42.7646 69.6747 42.7435Z" fill="#0C3956"/>
</g>
<g id="Group_45">
<path id="Vector_127" d="M66.752 43.736C66.8373 44.2429 66.9653 44.7497 67.1147 45.2565C67.2853 45.7423 67.4986 46.228 67.7973 46.6503C67.9466 46.8615 68.1173 47.0516 68.3306 47.1994C68.544 47.3473 68.7573 47.474 68.9706 47.6429C69.184 47.7907 69.376 47.9808 69.5253 48.192C69.6747 48.4032 69.7813 48.6355 69.888 48.8889H69.8667C69.9947 48.2976 69.9947 47.7063 69.952 47.115C69.9093 46.5236 69.76 45.9323 69.5467 45.3832C69.4187 45.1087 69.2906 44.8553 69.0773 44.6441C68.9706 44.5385 68.8427 44.454 68.7147 44.4329C68.5653 44.4118 68.4373 44.4752 68.352 44.6019C68.2027 44.8553 68.2667 45.1721 68.352 45.4466C68.4587 45.7211 68.6507 45.9746 68.928 46.1013C68.6507 45.9746 68.4373 45.7423 68.3306 45.4677C68.2666 45.3199 68.2453 45.1721 68.224 45.0242C68.224 44.8764 68.224 44.7075 68.3093 44.5808C68.3733 44.454 68.544 44.3485 68.7147 44.3696C68.864 44.3907 68.992 44.4963 69.12 44.6019C69.3333 44.8131 69.4827 45.0876 69.5893 45.3621C69.8027 45.9112 69.952 46.5025 69.9947 47.0938C70.0373 47.6851 70.016 48.2976 69.888 48.8678C69.888 48.8678 69.888 48.8889 69.8667 48.8678C69.76 48.6355 69.6533 48.3821 69.5253 48.1709C69.376 47.9597 69.184 47.7696 68.9706 47.6218C68.7573 47.474 68.5227 47.3473 68.3093 47.1994C68.096 47.0516 67.904 46.8615 67.7547 46.6292C67.4347 46.2069 67.2427 45.7211 67.0933 45.2143C66.9227 44.7708 66.816 44.2429 66.752 43.736Z" fill="#0C3956"/>
</g>
<g id="Group_46">
<path id="Vector_128" d="M67.6693 49.1634C67.5627 48.7411 67.3707 48.3398 67.1787 47.9386C67.0933 47.7274 66.9867 47.5373 66.9013 47.3473L66.6027 46.7559C66.4107 46.3547 66.24 45.9534 66.112 45.5311C65.984 45.1087 65.8987 44.6652 65.8987 44.2217C65.9413 44.6652 66.048 45.0876 66.1547 45.51C66.2827 45.9323 66.432 46.3336 66.624 46.7348C66.816 47.1361 67.0293 47.5162 67.2213 47.9174C67.328 48.1075 67.4133 48.3187 67.4773 48.5299C67.5626 48.7411 67.6267 48.9522 67.6693 49.1634Z" fill="#0C3956"/>
</g>
<g id="Group_47">
<path id="Vector_129" d="M72.4906 63.6083C72.5973 63.6506 72.6826 63.7562 72.768 63.8406C72.8533 63.9251 72.9173 64.0307 72.9813 64.1363C73.1093 64.3475 73.216 64.5587 73.3013 64.791C73.472 65.2344 73.6 65.699 73.7066 66.1636C73.8133 66.6283 73.856 67.114 73.9413 67.5786C74.0266 68.0432 74.1333 68.5078 74.2613 68.9724C74.5173 69.9016 74.8373 70.8097 75.2213 71.6755C75.6053 72.5625 76.0106 73.4283 76.544 74.2308C76.2666 73.8507 76.0106 73.4284 75.7973 73.006C75.5626 72.5836 75.3706 72.1401 75.1786 71.6966C74.7946 70.8097 74.496 69.9016 74.24 68.9724C74.176 68.7401 74.1333 68.5078 74.0693 68.2755C74.0266 68.0432 73.9626 67.8109 73.92 67.5786C73.8346 67.114 73.7706 66.6283 73.664 66.1636C73.5573 65.699 73.4506 65.2344 73.28 64.791C73.1946 64.5587 73.088 64.3475 72.9813 64.1363C72.832 63.9462 72.6826 63.735 72.4906 63.6083C72.4693 63.6295 72.4693 63.6295 72.4906 63.6083C72.4693 63.6083 72.4693 63.6083 72.4906 63.6083Z" fill="#0C3956"/>
</g>
<g id="Group_48">
<path id="Vector_130" d="M77.312 73.3017C77.3973 73.1539 77.3973 72.9849 77.3546 72.816C77.312 72.647 77.248 72.4992 77.184 72.3514C77.0346 72.0557 76.8426 71.7812 76.6506 71.5066C76.288 70.9364 76.1173 70.2818 75.9466 69.6482C75.7973 68.9936 75.6693 68.3389 75.584 67.6842C75.4986 67.0296 75.4133 66.3538 75.3706 65.6991V65.678C76.2453 66.4594 76.9706 67.4097 77.504 68.4656C77.76 68.9936 77.9946 69.5215 78.1866 70.0917C78.3786 70.6408 78.5706 71.211 78.6773 71.7812C78.6986 71.929 78.72 72.0768 78.72 72.2247C78.72 72.3091 78.72 72.3725 78.6986 72.457C78.6773 72.4992 78.6773 72.5414 78.6346 72.5625C78.592 72.5837 78.5493 72.6048 78.5066 72.6048C78.336 72.5625 78.2293 72.457 78.144 72.3514C78.0373 72.2458 77.952 72.1191 77.8666 72.0135C77.5253 71.5278 77.2693 70.9998 77.0133 70.4718C76.8853 70.1973 76.7786 69.9228 76.6933 69.6482C76.608 69.3737 76.5013 69.078 76.5226 68.7824C76.5226 68.719 76.544 68.6345 76.608 68.5923C76.672 68.5501 76.7573 68.5712 76.8213 68.6134C76.9493 68.6979 77.0346 68.8246 77.0986 68.9513C77.248 69.2047 77.3546 69.4793 77.4613 69.7538C77.3546 69.4793 77.2266 69.2047 77.0773 68.9724C76.992 68.8457 76.928 68.719 76.8 68.6345C76.736 68.5923 76.672 68.5712 76.608 68.6134C76.544 68.6557 76.5226 68.719 76.5226 68.8035C76.5226 69.0991 76.6293 69.3737 76.7146 69.6482C76.8213 69.9228 76.928 70.1973 77.0346 70.4507C77.2906 70.9787 77.5466 71.5066 77.888 71.9924C77.9733 72.1191 78.0586 72.2247 78.1653 72.3302C78.272 72.4358 78.3786 72.5414 78.5066 72.5625C78.5706 72.5837 78.6133 72.5203 78.6346 72.457C78.656 72.3936 78.656 72.3091 78.656 72.2458C78.656 72.0979 78.6346 71.9501 78.6133 71.8234C78.5066 71.2532 78.3146 70.683 78.1226 70.1339C77.9306 69.5849 77.696 69.0358 77.44 68.5078C77.184 67.9799 76.864 67.473 76.5226 67.0084C76.16 66.5438 75.776 66.1003 75.328 65.7202H75.3493C75.4773 67.0507 75.648 68.36 75.968 69.6482C76.1173 70.2818 76.3093 70.9364 76.6506 71.5066C76.8426 71.7812 77.0346 72.0557 77.1626 72.3514C77.2266 72.4992 77.2906 72.6681 77.3333 72.816C77.4186 72.9849 77.4186 73.1539 77.312 73.3017C77.3333 73.3017 77.3333 73.3017 77.312 73.3017Z" fill="#0C3956"/>
</g>
<g id="Group_49">
<path id="Vector_131" d="M76.6933 64.3475C76.928 64.4109 77.12 64.6009 77.2907 64.791C77.44 64.9811 77.568 65.2134 77.6533 65.4457C77.76 65.678 77.824 65.9103 77.9093 66.1426C77.9733 66.3749 78.0373 66.6283 78.08 66.8606C78.3147 67.8321 78.6347 68.7613 78.9973 69.6905L80.0853 72.457C80.128 72.5837 80.1707 72.6893 80.2133 72.816C80.2347 72.8793 80.2347 72.9427 80.2347 73.006V73.1116L80.2133 73.1961C80.128 73.4495 79.936 73.6185 79.7227 73.7663C79.5093 73.9141 79.2747 73.9986 79.04 74.0831C78.8053 74.1464 78.5493 74.1887 78.2933 74.1253C78.528 74.1887 78.784 74.1464 79.0187 74.062C79.2533 73.9986 79.488 73.893 79.68 73.7452C79.872 73.5974 80.064 73.4284 80.128 73.1961C80.2133 72.9638 80.1067 72.7315 80.0213 72.4992C79.6587 71.57 79.296 70.6619 78.9547 69.7116C78.6133 68.7824 78.272 67.8321 78.0373 66.8817C77.9093 66.396 77.824 65.9103 77.6107 65.4668C77.504 65.2345 77.3973 65.0233 77.248 64.8121C77.12 64.6221 76.928 64.432 76.6933 64.3475Z" fill="#0C3956"/>
</g>
<g id="Group_50">
<path id="Vector_132" d="M72.64 50.1771L73.216 52.12C73.408 52.7747 73.6 53.4082 73.8133 54.0418C74.0267 54.6753 74.2613 55.3089 74.496 55.9424C74.7307 56.576 74.9866 57.2095 75.264 57.8219C74.9653 57.2095 74.7093 56.5971 74.4533 55.9635C74.2187 55.33 73.984 54.6964 73.792 54.0418L73.1733 52.12C73.0667 51.8032 72.9813 51.4653 72.896 51.1486C72.8107 50.8318 72.7253 50.515 72.64 50.1771Z" fill="#0C3956"/>
</g>
</g>
</g>
</g>
<g id="Group_51">
<g id="Group_52">
<path id="Vector_133" d="M70.8267 67.8531L69.8453 66.3115L69.0773 65.0866L68.5013 65.4456L68.7147 66.1636L68.224 65.6146L67.008 66.3748C67.008 66.3748 67.5626 67.6208 67.6053 67.7053C67.648 67.7898 66.7306 66.5438 66.7306 66.5438L66.0906 66.945L66.56 67.9376L65.8347 67.0928L65.0667 67.5786L65.152 67.7264L66.7947 70.3451C66.9867 70.6407 67.2427 70.8941 67.52 71.0631L71.1467 68.8245C71.1253 68.4867 71.0187 68.1488 70.8267 67.8531Z" fill="#FFCCD3"/>
<path id="Vector_134" d="M71.168 68.8245L67.5413 71.0631C68.1387 71.4432 68.8853 71.5488 69.568 71.3165C69.568 71.3376 69.5893 71.3587 69.6107 71.3798L71.9147 75.0544C72.0853 75.329 72.448 75.3923 72.704 75.2445C72.9813 75.0755 73.0453 74.7165 72.896 74.4631L70.592 70.7885C70.5707 70.7674 70.5707 70.7463 70.5493 70.7252C71.0187 70.2183 71.2533 69.5003 71.168 68.8245Z" fill="#0C3956"/>
<path id="Vector_135" d="M66.56 67.9376L67.5413 69.2891L66.24 66.8605L66.0906 66.945L66.56 67.9376Z" fill="#C97F89"/>
<path id="Vector_136" d="M68.7146 66.1636L69.4613 67.1773L68.6293 65.3823L68.5013 65.4456L68.7146 66.1636Z" fill="#C97F89"/>
<path id="Vector_137" d="M67.6053 67.7053L67.8187 68.0643L67.1573 66.2903L67.008 66.3748L67.6053 67.7053Z" fill="#C97F89"/>
</g>
<g id="Group_53">
<path id="Vector_138" d="M79.744 61.7711L80.1493 61.7288L80.3413 63.5028C80.4053 64.1152 80.1707 64.7065 79.7013 65.0866L76.5867 67.6631C76.4373 67.7898 76.3733 67.9798 76.3947 68.1488L76.48 68.8879" stroke="#0C3956" stroke-width="1.0969" stroke-miterlimit="10" stroke-linecap="round" stroke-linejoin="round"/>
<path id="Vector_139" d="M79.5307 62.7214L66.6027 64.073C66.2187 64.1152 65.856 63.8195 65.8133 63.4394L65.7707 62.9959C65.728 62.6158 66.0267 62.2568 66.4107 62.2145L79.3387 60.863C79.7227 60.8207 80.0853 61.1164 80.128 61.4965L80.1707 61.94C80.2133 62.3412 79.9147 62.7003 79.5307 62.7214Z" fill="#0C3956"/>
<path id="Vector_140" d="M77.2267 76.1315C76.864 76.1737 76.544 75.8992 76.5013 75.5402L75.84 69.4159C75.7973 69.0569 76.0747 68.7401 76.4373 68.6978C76.8 68.6556 77.12 68.9301 77.1627 69.2892L77.824 75.4135C77.8667 75.7725 77.5893 76.0892 77.2267 76.1315Z" fill="#B6CCFE"/>
<path id="Vector_141" d="M78.4853 63.5872L67.7973 64.7065C67.1787 64.7699 66.624 64.3264 66.56 63.7139L66.432 62.5947C66.368 61.9822 66.816 61.4332 67.4347 61.3698L78.1227 60.2505C78.7413 60.1872 79.296 60.6307 79.36 61.2431L79.488 62.3624C79.552 62.9748 79.104 63.5239 78.4853 63.5872Z" fill="#CECFFF"/>
</g>
<g id="Group_54">
<g id="Group_55">
<path id="Vector_142" d="M82.112 83.6074C78.528 84.7689 74.9653 84.7689 71.3813 83.6074V70.5985H82.112V83.6074Z" fill="#B6CCFE"/>
<path id="Vector_143" d="M71.3813 70.5985C71.3813 70.5985 72.2133 77.8421 76.736 77.8421C81.28 77.8421 82.0906 70.5985 82.0906 70.5985" stroke="#0C3956" stroke-width="0.2567" stroke-miterlimit="10" stroke-linecap="round" stroke-linejoin="round"/>
<path id="Vector_144" d="M71.6586 70.5985C71.5093 70.5985 71.3813 70.7252 71.3813 70.8731C71.3813 71.8445 71.4027 75.1601 72.0427 75.1389C72.7893 75.1178 72.4693 72.8371 72.9386 72.8582C73.216 72.8793 73.216 73.1749 73.3013 73.365C73.4507 73.724 73.7067 73.6184 73.856 73.3439C74.048 73.0271 73.984 72.647 74.0906 72.3091C74.1546 72.0768 74.4747 72.0346 74.6027 72.2457C74.6667 72.3302 74.6667 72.4358 74.688 72.5414C74.7307 73.0905 74.5386 73.6184 74.56 74.1675C74.5813 74.3998 74.624 74.6955 74.7947 74.8855C75.2213 75.3079 75.5413 74.6532 75.648 74.3365C75.8187 73.8507 75.8186 73.3439 75.84 72.8371C75.84 72.6892 75.7973 72.1824 76.0106 72.119C76.3733 72.0134 76.5653 72.8582 76.672 73.0694C76.864 73.4706 77.312 73.4706 77.3547 72.9849C77.376 72.6892 77.4826 72.3302 77.7173 72.1402C77.9093 71.9712 78.1226 72.0346 78.272 72.2457C78.4213 72.4569 78.3146 72.8159 78.272 73.0482C78.1013 73.9141 77.7813 75.0756 78.2933 75.8781C78.5066 76.2371 79.0613 76.5961 79.488 76.406C79.7866 76.2793 79.872 75.9203 79.9146 75.6458C80.0213 74.97 79.872 74.2731 79.808 73.5973C79.68 72.288 80.0853 71.6755 80.4906 72.2035C80.896 72.7315 80.6613 73.4284 81.472 73.2383C82.1333 73.0905 82.112 71.5066 82.0906 70.8731C82.0906 70.7252 81.9626 70.6196 81.8133 70.6196H71.6586V70.5985Z" fill="#FAE625" stroke="#FAE625" stroke-width="1.181" stroke-miterlimit="10"/>
<path id="Vector_145" d="M76.736 71.3165C79.6933 71.3165 82.0906 70.9951 82.0906 70.5985C82.0906 70.202 79.6933 69.8805 76.736 69.8805C73.7787 69.8805 71.3813 70.202 71.3813 70.5985C71.3813 70.9951 73.7787 71.3165 76.736 71.3165Z" fill="#CECFFF" stroke="#CECFFF" stroke-width="1.181" stroke-miterlimit="10"/>
<path id="Vector_146" d="M76.7573 71.3799C79.7146 71.3799 82.112 71.0773 82.112 70.7041C82.112 70.3309 79.7146 70.0283 76.7573 70.0283C73.8 70.0283 71.4026 70.3309 71.4026 70.7041C71.4026 71.0773 73.8 71.3799 76.7573 71.3799Z" fill="#FAD225" stroke="#FAD225" stroke-width="1.1544" stroke-miterlimit="10"/>
</g>
<g id="Group_56">
<path id="Vector_147" d="M72.448 83.8397C69.696 84.7478 66.944 84.7266 64.192 83.8397V73.8296H72.448V83.8397Z" fill="#CECFFF"/>
<path id="Vector_148" d="M64.192 73.8296C64.192 73.8296 64.832 79.4048 68.3307 79.4048C71.8293 79.4048 72.4693 73.8296 72.4693 73.8296" stroke="#0C3956" stroke-width="0.2567" stroke-miterlimit="10" stroke-linecap="round" stroke-linejoin="round"/>
<path id="Vector_149" d="M68.3307 74.3787C70.6164 74.3787 72.4693 74.1328 72.4693 73.8296C72.4693 73.5263 70.6164 73.2805 68.3307 73.2805C66.0449 73.2805 64.192 73.5263 64.192 73.8296C64.192 74.1328 66.0449 74.3787 68.3307 74.3787Z" fill="#CECFFF" stroke="#CECFFF" stroke-width="0.9099" stroke-miterlimit="10"/>
<path id="Vector_150" d="M68.3306 74.442C70.6046 74.442 72.448 74.2056 72.448 73.9141C72.448 73.6225 70.6046 73.3861 68.3306 73.3861C66.0567 73.3861 64.2133 73.6225 64.2133 73.9141C64.2133 74.2056 66.0567 74.442 68.3306 74.442Z" fill="#B6CCFE"/>
</g>
</g>
</g>
<g id="Group_57">
<g id="Group_58">
<path id="Vector_151" d="M34.2613 23.5047L3.07199 23.5469C1.66399 23.5469 0.533327 22.4276 0.511993 21.0338V13.389C0.511993 12.5443 1.21599 11.8474 2.06933 11.8474L35.2427 11.8051C36.096 11.8051 36.8 12.502 36.8 13.3468V20.9916C36.8213 22.3643 35.6693 23.5047 34.2613 23.5047Z" fill="#B6CCFE"/>
<path id="Vector_152" d="M33.0453 23.5047C33.0453 22.0264 31.8293 20.8438 30.336 20.8438L6.99733 20.8649C5.50399 20.8649 4.30933 22.0686 4.30933 23.5469" stroke="#0C3956" stroke-width="0.2364" stroke-miterlimit="10" stroke-linecap="round" stroke-linejoin="round"/>
<g id="Group_59">
<path id="Vector_153" d="M6.84799 21.5406L30.528 21.5195" stroke="#0C3956" stroke-width="0.2364" stroke-miterlimit="10" stroke-linecap="round" stroke-linejoin="round"/>
<path id="Vector_154" d="M6.82666 22.2164L30.5067 22.1742" stroke="#0C3956" stroke-width="0.2364" stroke-miterlimit="10" stroke-linecap="round" stroke-linejoin="round"/>
<path id="Vector_155" d="M6.80533 22.8711L30.4853 22.8289" stroke="#0C3956" stroke-width="0.2364" stroke-miterlimit="10" stroke-linecap="round" stroke-linejoin="round"/>
</g>
<path id="Vector_156" d="M34.4106 18.035H2.90132C2.34665 18.035 1.87732 17.5915 1.87732 17.0213V14.0436C1.87732 13.4946 2.32532 13.03 2.90132 13.03H34.4106C34.9653 13.03 35.4346 13.4735 35.4346 14.0436V17.0213C35.4346 17.5704 34.9866 18.035 34.4106 18.035Z" stroke="#0C3956" stroke-width="0.2364" stroke-miterlimit="10" stroke-linecap="round" stroke-linejoin="round"/>
</g>
<g id="Group_60">
<path id="Vector_157" d="M21.2693 27.9606C20.7146 27.8761 20.6293 27.7283 20.416 26.778C20.2026 25.7432 15.936 26.9258 15.936 26.9258C15.936 26.9258 16.3626 28.2774 16.3626 29.101C17.5786 29.1855 20.1386 29.2488 21.2693 27.9606Z" fill="#FFCCD3"/>
<path id="Vector_158" d="M12.6506 30.8116C12.672 30.4526 12.9066 29.2911 13.2266 28.2352C13.6746 26.7569 14.1013 25.5532 14.1013 25.5532L12.4373 25.2997C12.4373 25.2997 9.96265 29.6079 9.34398 31.0862C8.72532 32.5644 8.40532 33.1135 9.62131 34.5073C9.64265 34.5284 9.66398 34.5707 9.70665 34.5918C10.0906 32.1632 11.8826 31.1495 12.6506 30.8116Z" fill="#FFCCD3"/>
<path id="Vector_159" d="M21.1413 13.03L20.0533 13.8325C20.0533 13.8325 22.592 20.3369 22.784 21.6674C22.912 22.5543 22.8906 24.286 22.8693 25.532C23.7226 25.2786 25.1946 25.0463 26.496 25.8488C26.0266 23.6525 25.3226 21.245 25.28 20.5481C25.2373 19.6822 21.1413 13.03 21.1413 13.03Z" fill="#FFCCD3"/>
<path id="Vector_160" d="M22.8693 25.532C22.848 26.1867 22.8266 26.7146 22.8266 26.9047C22.8266 27.496 22.08 28.0451 21.3973 27.9606C21.3333 27.9606 21.2906 27.9395 21.248 27.9395C20.1173 29.2277 17.5573 29.1644 16.3413 29.0588C16.3413 29.3122 16.2986 29.5234 16.1706 29.629C15.68 30.0302 14.6133 31.0017 13.8026 31.065C12.992 31.1284 12.6293 30.9172 12.6293 30.9172C12.6293 30.9172 12.6293 30.8749 12.6293 30.8116C11.8826 31.1284 10.0693 32.1632 9.64264 34.6129C10.88 35.9433 13.4826 36.767 13.4826 36.767L14.6346 47.2628L26.3893 47.4951C26.3893 47.4951 26.0053 40.6105 26.5173 37.2738C27.0293 33.9371 27.1786 29.7979 26.7733 27.3271C26.688 26.8625 26.6026 26.3345 26.4746 25.8277C25.1946 25.0674 23.7226 25.2997 22.8693 25.532Z" fill="#CECFFF"/>
<path id="Vector_161" d="M32.8746 82.9949H30.08L26.944 84.5155H32.6826C32.9173 84.5155 33.088 84.3043 33.0666 84.0931L32.8746 82.9949Z" fill="#0C3956"/>
<path id="Vector_162" d="M14.8693 82.9949H12.0533L8.91733 84.5155H14.656C14.8907 84.5155 15.0613 84.3043 15.04 84.0931L14.8693 82.9949Z" fill="#0C3956"/>
<path id="Vector_163" d="M13.504 36.767L13.312 34.7185" stroke="#161B43" stroke-width="0.3066" stroke-miterlimit="10"/>
<path id="Vector_164" d="M22.7413 21.4351C22.7413 21.4351 22.9333 20.9493 23.488 20.9705" stroke="#161B43" stroke-width="0.3066" stroke-miterlimit="10"/>
<path id="Vector_165" d="M28.4373 63.3549C28.4373 63.3549 27.0933 56.5337 27.2213 52.9225C27.328 49.9026 26.7093 47.4951 26.496 46.7982L26.304 41.8565C23.9573 41.3286 23.2106 38.4987 23.104 37.2527L22.336 37.3161C22.208 36.408 22.7626 27.2849 22.7626 27.2849C22.336 27.2638 22.1866 27.834 22.1866 27.834C21.6746 29.988 21.568 36.8515 21.568 37.3794L19.6906 37.5061C19.6906 37.5061 16.8533 31.8675 14.656 30.7905L13.8453 31.0862C13.8453 31.0862 16.896 32.5433 18.7306 37.5906L18.0053 37.6328C17.6213 40.7161 14.0586 41.5186 14.0586 41.5186L14.6133 46.4603C14.2506 48.4665 13.9306 50.7262 13.9093 53.1548C13.8453 58.2232 13.5466 63.3338 13.5466 63.3338L12.096 82.9739H14.848L18.944 64.9811C19.2 63.8829 19.4986 62.8059 19.8826 61.75L20.7146 59.4269L22.3573 63.3549L30.1013 82.995H32.896L28.4373 63.3549Z" fill="#6166FF"/>
<path id="Vector_166" d="M12.416 25.3209C12.416 25.3209 12.3733 24.3283 12.4586 24.0327C12.5226 23.7159 13.1626 23.1035 13.5893 23.1246C13.5893 23.1246 13.9093 22.5333 14.1866 22.6388C14.464 22.7444 14.592 23.6736 14.848 23.7159C15.0826 23.7581 15.4453 22.9979 15.4453 22.9979C15.4453 22.9979 15.6373 23.9482 15.4453 24.1805C15.2533 24.4128 15.0826 24.6451 14.8053 24.8563C14.528 25.0675 14.0373 25.6376 14.0373 25.6376L12.416 25.3209Z" fill="#FFCCD3"/>
<path id="Vector_167" d="M13.8453 21.9419C13.76 22.0687 13.7387 23.5047 14.3147 24.4339C14.8907 25.3631 14.6773 24.9407 15.1467 26.3557C15.3813 27.0948 16 27.5594 16.6827 27.8762C17.6427 28.3408 18.88 28.8687 19.648 27.7917C20.0747 27.2004 20.3947 27.3482 20.9707 25.7221C21.5253 24.096 21.3973 21.9419 20.864 21.2028C20.3307 20.4637 19.072 19.2388 17.9413 19.1543C16.7893 19.0699 16.4053 19.4711 16.4053 19.4711C16.4053 19.4711 15.3173 19.3233 14.72 19.9146C14.0587 20.4848 13.8453 21.9419 13.8453 21.9419Z" fill="#0C3956"/>
<g id="Group_61">
<path id="Vector_168" d="M21.568 13.7903C21.312 13.3256 21.184 12.8188 21.1626 12.2909C21.1626 12.2909 21.1626 12.2909 21.1626 12.2697C21.1413 11.8896 20.928 11.4672 20.5013 11.2561C20.0746 11.0449 19.968 11.0026 19.968 11.1505C19.968 11.1505 19.5626 10.7281 19.2426 11.0449C19.2426 11.0449 18.7946 10.8759 18.7306 11.1927C18.7306 11.1927 18.4106 11.1505 18.304 11.3405C18.1973 11.5306 18.6666 12.3753 18.6666 12.3964C18.5813 12.2486 18.4106 12.1008 18.2186 12.0797C18.176 12.0797 18.112 12.0797 18.0693 12.1008C18.0266 12.1219 18.0266 12.1219 18.0266 12.1641C18.0266 12.2064 18.0906 12.2697 18.112 12.2909C18.3253 12.5865 18.5386 12.9033 18.7733 13.1989C19.072 13.6002 19.008 13.6002 19.2426 13.7903C19.4986 13.9592 20.1813 14.1281 20.288 14.3182L21.6106 13.917L21.568 13.7903Z" fill="#FFCCD3"/>
<path id="Vector_169" d="M18.7307 11.2349C18.7307 11.2349 18.9227 11.425 19.0933 11.6784C19.264 11.9318 19.4347 12.2697 19.4347 12.2697" stroke="#0C3956" stroke-width="0.2103" stroke-miterlimit="10" stroke-linecap="round" stroke-linejoin="round"/>
<path id="Vector_170" d="M19.2426 11.0871C19.2426 11.0871 19.8613 11.6784 19.968 11.9107" stroke="#0C3956" stroke-width="0.2103" stroke-miterlimit="10" stroke-linecap="round" stroke-linejoin="round"/>
<path id="Vector_171" d="M19.968 11.1927C19.968 11.1927 20.3947 11.5517 20.4587 11.6784" stroke="#0C3956" stroke-width="0.2103" stroke-miterlimit="10" stroke-linecap="round" stroke-linejoin="round"/>
<path id="Vector_172" d="M18.6667 12.4387C18.6667 12.4387 18.8587 12.7766 18.944 12.861" stroke="#0C3956" stroke-width="0.2103" stroke-miterlimit="10" stroke-linecap="round" stroke-linejoin="round"/>
</g>
<path id="Vector_173" d="M20.6933 59.448L22.2507 56.1536L24.4053 54.8231" stroke="#0C3956" stroke-width="0.2795" stroke-miterlimit="10" stroke-linecap="round" stroke-linejoin="round"/>
<path id="Vector_174" d="M15.808 46.8615C15.808 46.8615 15.168 51.761 15.04 55.1399C14.912 58.5188 12.9706 82.9949 12.9706 82.9949" stroke="#0C3956" stroke-width="0.2795" stroke-miterlimit="10" stroke-linecap="round" stroke-linejoin="round"/>
</g>
</g>
</g>
</g>
</g>
</g>
<defs>
<clipPath id="clip0_133_3114">
<rect width="144" height="88" fill="white"/>
</clipPath>
</defs>
</svg>
