<svg width="58" height="58" viewBox="0 0 58 58" fill="none" xmlns="http://www.w3.org/2000/svg">
    <path fill-rule="evenodd" clip-rule="evenodd" d="M58 29C58 45.0161 45.0161 58 29 58C12.9837 58 0 45.0161 0 29C0 12.9837 12.9837 0 29 0C45.0161 0 58 12.9837 58 29ZM40.6879 20.212C41.5373 21.0614 41.5373 22.4386 40.6879 23.2879L26.1879 37.7879C25.3385 38.6373 23.9615 38.6373 23.112 37.7879L17.312 31.9879C16.4627 31.1385 16.4627 29.7615 17.312 28.9121C18.1614 28.0627 19.5386 28.0627 20.388 28.9121L24.65 33.174L31.1309 26.6931L37.6121 20.212C38.4615 19.3627 39.8385 19.3627 40.6879 20.212Z" fill="#2D8DF4"/>
</svg>
