<svg width="145" height="115" viewBox="0 0 145 115" fill="none" xmlns="http://www.w3.org/2000/svg">
    <g clip-path="url(#clip0_1_2248)">
        <path d="M128.509 44.224C134.548 38.2772 134.548 28.6354 128.509 22.6886C122.47 16.7418 112.679 16.7418 106.64 22.6886C100.602 28.6354 100.602 38.2772 106.64 44.224C112.679 50.1708 122.47 50.1708 128.509 44.224Z" fill="#D4D9DE"/>
        <path d="M139.132 58.5309C135.514 54.9678 130.518 52.7522 125.02 52.7522H110.11C99.1208 52.7522 90.1381 61.6063 90.1381 72.4196C90.1381 73.949 90.7761 75.3462 91.8003 76.3547C92.8245 77.3633 94.2433 77.9916 95.7964 77.9916H139.325C142.439 77.9916 144.992 75.4784 144.992 72.4113C145 67.0129 142.758 62.094 139.132 58.5309Z" fill="#D4D9DE"/>
        <path d="M27.4268 48.6767C35.9672 48.6767 42.8905 41.8589 42.8905 33.4487C42.8905 25.0385 35.9672 18.2207 27.4268 18.2207C18.8864 18.2207 11.963 25.0385 11.963 33.4487C11.963 41.8589 18.8864 48.6767 27.4268 48.6767Z" fill="#D4D9DE"/>
        <path d="M34.8816 52.7522H19.9803C8.99114 52.7522 0 61.6063 0 72.4196C0 75.4867 2.55211 77.9999 5.66669 77.9999H49.1952C52.3098 77.9999 54.8619 75.4867 54.8619 72.4196C54.8619 61.6063 45.8708 52.7522 34.8816 52.7522Z" fill="#D4D9DE"/>
        <path d="M93.7648 35.0607L97.7609 35.9205C98.3905 36.0528 98.9446 35.5071 98.8102 34.8871L97.9372 30.952L97.8028 30.3485C97.467 28.8191 97.5426 27.2318 98.0211 25.7354C99.6162 20.7586 98.4157 15.1122 94.4112 11.1688C91.9347 8.73002 88.7865 7.34115 85.546 7.01873C84.0181 6.86166 82.9016 8.39107 83.4976 9.77994C86.6709 17.1211 85.227 25.9421 79.1573 31.9192C79.149 31.9275 79.1406 31.9357 79.1322 31.944C78.0408 33.0187 78.5025 34.8458 79.9801 35.2674C82.7672 36.0528 85.7559 36.0114 88.5263 35.1351C90.0122 34.6639 91.6073 34.6143 93.1352 34.9367L93.7648 35.0607Z" fill="#D4D9DE"/>
        <path d="M77.4027 5.1752C73.9019 1.72782 69.3014 0 64.7093 0C60.1172 0 55.5167 1.72782 52.0159 5.1752C47.0125 10.1024 45.5853 17.2038 47.7177 23.3793C48.2465 24.9087 48.3305 26.5456 47.9863 28.1246L47.7009 29.3978L46.6347 34.2175C46.4836 34.8954 47.0209 35.5072 47.6841 35.5072C47.7596 35.5072 47.8352 35.4989 47.9191 35.4824L52.8135 34.4324L54.1063 34.1514C55.7182 33.8041 57.3972 33.9033 58.9671 34.4242C60.8308 35.0442 62.7784 35.3501 64.7177 35.3501C69.3098 35.3501 73.9019 33.6223 77.4027 30.1749C84.4126 23.2801 84.4126 12.0865 77.4027 5.1752ZM66.2708 27.4385C65.7839 27.9097 65.1962 28.1494 64.5078 28.1494C63.8278 28.1494 63.2402 27.9097 62.7533 27.4302C62.2663 26.9507 62.0145 26.3803 62.0145 25.7272C62.0145 25.0658 62.2579 24.4954 62.7533 24.0242C63.2402 23.5447 63.8278 23.3049 64.5078 23.3049C65.2298 23.3049 65.8259 23.5364 66.296 23.9911C66.7661 24.4458 67.0012 25.0245 67.0012 25.7272C67.0012 26.3886 66.7577 26.959 66.2708 27.4385ZM67.4125 19.097C66.9508 19.4111 66.657 19.9072 66.657 20.461C66.6486 21.3704 65.935 22.1145 65.0115 22.1145H63.7859C62.8624 22.1145 62.1152 21.3787 62.1152 20.4693V18.5266C62.1152 17.7742 62.6273 17.1211 63.3661 16.9393C63.8614 16.8153 64.2476 16.6169 64.533 16.3523C65.0283 15.8811 65.2718 15.0626 65.2718 13.897C65.2718 12.3014 64.852 11.5078 64.0125 11.5078C63.3745 11.5078 62.9631 11.9377 62.7617 12.7892C62.5938 13.525 61.897 14.021 61.1414 14.021H59.7814C58.7236 14.021 57.9177 13.062 58.1444 12.0534C58.4298 10.7638 58.9671 9.7469 59.7478 9.01113C60.8896 7.90334 62.3419 7.35771 64.1049 7.35771C65.9434 7.35771 67.4125 7.91161 68.5123 9.02766C69.612 10.1437 70.1661 11.6318 70.1661 13.5002C70.1661 15.9968 69.2511 17.8652 67.4125 19.097Z" fill="#D4D9DE"/>
    </g>
    <path d="M28.844 104.088H29.804V114.936H28.844V104.088ZM27.008 108.432H29.096V109.26H27.008V108.432ZM26.384 104.328H27.32V114.384H26.384V104.328ZM20.984 111.432H21.692C23.276 111.432 24.356 111.372 25.616 111.108L25.712 111.936C24.416 112.212 23.324 112.26 21.692 112.26H20.984V111.432ZM20.984 105.408H25.016V106.224H21.968V111.804H20.984V105.408ZM34.4471 110.556H35.4431V112.32H34.4471V110.556ZM39.0071 104.088H40.0031V114.936H39.0071V104.088ZM39.6791 108.696H41.6831V109.536H39.6791V108.696ZM31.6511 112.872L31.5071 112.044C33.4511 112.044 36.1031 112.02 38.3471 111.696L38.4311 112.44C36.0911 112.86 33.5471 112.872 31.6511 112.872ZM31.6871 105.396H38.1791V106.2H31.6871V105.396ZM34.9391 106.836C36.4511 106.836 37.4951 107.628 37.4951 108.84C37.4951 110.064 36.4511 110.844 34.9391 110.844C33.4271 110.844 32.3951 110.064 32.3951 108.84C32.3951 107.628 33.4271 106.836 34.9391 106.836ZM34.9391 107.604C33.9671 107.604 33.3311 108.096 33.3311 108.84C33.3311 109.584 33.9671 110.076 34.9391 110.076C35.9111 110.076 36.5591 109.584 36.5591 108.84C36.5591 108.096 35.9111 107.604 34.9391 107.604ZM34.4471 104.1H35.4431V105.936H34.4471V104.1ZM45.3061 104.652H46.1341V105.756C46.1341 107.844 44.9581 109.572 43.1461 110.28L42.6181 109.476C44.2501 108.876 45.3061 107.412 45.3061 105.756V104.652ZM45.4861 104.652H46.3021V105.828C46.3021 107.292 47.3821 108.648 48.9421 109.188L48.4141 109.968C46.6741 109.32 45.4861 107.712 45.4861 105.828V104.652ZM50.0941 104.088H51.0901V110.664H50.0941V104.088ZM50.8141 106.884H52.6981V107.724H50.8141V106.884ZM47.6341 110.964C49.8541 110.964 51.1981 111.696 51.1981 112.944C51.1981 114.192 49.8541 114.912 47.6341 114.912C45.4141 114.912 44.0701 114.192 44.0701 112.944C44.0701 111.696 45.4141 110.964 47.6341 110.964ZM47.6341 111.756C46.0261 111.756 45.0421 112.188 45.0421 112.944C45.0421 113.7 46.0261 114.132 47.6341 114.132C49.2421 114.132 50.2261 113.7 50.2261 112.944C50.2261 112.188 49.2421 111.756 47.6341 111.756ZM61.9612 104.088H62.9212V114.936H61.9612V104.088ZM60.1252 108.432H62.2132V109.26H60.1252V108.432ZM59.5012 104.328H60.4372V114.384H59.5012V104.328ZM54.1012 111.432H54.8092C56.3932 111.432 57.4732 111.372 58.7332 111.108L58.8292 111.936C57.5332 112.212 56.4412 112.26 54.8092 112.26H54.1012V111.432ZM54.1012 105.408H58.1332V106.224H55.0852V111.804H54.1012V105.408ZM72.0883 104.076H73.0963V114.936H72.0883V104.076ZM72.8203 108.48H74.8243V109.308H72.8203V108.48ZM69.3163 105.252H70.2883C70.2883 108.336 68.8723 111.12 65.3683 112.884L64.8163 112.116C67.8163 110.592 69.3163 108.276 69.3163 105.408V105.252ZM65.3203 105.252H69.8323V106.068H65.3203V105.252ZM80.0079 110.448H80.9439V111.804H82.8399V110.448H83.7639V114.792H80.0079V110.448ZM80.9439 112.548V114.012H82.8399V112.548H80.9439ZM85.8639 110.388H86.6319V111.288C86.6319 112.764 85.8879 114.252 84.3879 114.888L83.8839 114.132C85.1919 113.58 85.8639 112.392 85.8639 111.288V110.388ZM86.0679 110.388H86.8359V111.288C86.8359 112.452 87.5079 113.628 88.8159 114.132L88.3119 114.888C86.7999 114.264 86.0679 112.824 86.0679 111.288V110.388ZM84.2199 106.632H87.1359V107.46H84.2199V106.632ZM81.7239 104.568C83.3439 104.568 84.5199 105.576 84.5199 107.064C84.5199 108.54 83.3439 109.56 81.7239 109.56C80.1039 109.56 78.9279 108.54 78.9279 107.064C78.9279 105.576 80.1039 104.568 81.7239 104.568ZM81.7239 105.396C80.6559 105.396 79.8879 106.08 79.8879 107.064C79.8879 108.036 80.6559 108.732 81.7239 108.732C82.7919 108.732 83.5599 108.036 83.5599 107.064C83.5599 106.08 82.7919 105.396 81.7239 105.396ZM86.6919 104.088H87.6879V109.836H86.6919V104.088ZM91.0469 110.592H92.0309V111.852H97.3349V110.592H98.3309V114.792H91.0469V110.592ZM92.0309 112.62V113.988H97.3349V112.62H92.0309ZM89.7989 109.032H99.6029V109.836H89.7989V109.032ZM94.2029 104.208H95.0549V104.688C95.0549 106.572 92.9549 107.928 90.7229 108.264L90.3629 107.484C92.3189 107.22 94.2029 106.056 94.2029 104.688V104.208ZM94.3589 104.208H95.2109V104.688C95.2109 106.032 97.1189 107.22 99.0509 107.484L98.6789 108.264C96.4709 107.928 94.3589 106.548 94.3589 104.688V104.208ZM108.734 104.088H109.73V114.936H108.734V104.088ZM101.534 105.144H102.518V111.864H101.534V105.144ZM101.534 111.276H102.422C104.066 111.276 105.782 111.156 107.618 110.772L107.738 111.624C105.854 112.008 104.138 112.14 102.422 112.14H101.534V111.276ZM119.221 104.076H120.229V114.948H119.221V104.076ZM119.989 108.36H122.005V109.2H119.989V108.36ZM112.345 111.408H113.197C115.201 111.408 116.605 111.336 118.225 111.036L118.333 111.876C116.665 112.188 115.237 112.248 113.197 112.248H112.345V111.408ZM112.345 105.132H117.385V105.948H113.329V111.78H112.345V105.132ZM123.172 113.426C123.172 113.242 123.229 113.088 123.342 112.963C123.459 112.834 123.627 112.77 123.846 112.77C124.064 112.77 124.23 112.834 124.344 112.963C124.461 113.088 124.52 113.242 124.52 113.426C124.52 113.605 124.461 113.758 124.344 113.883C124.23 114.008 124.064 114.07 123.846 114.07C123.627 114.07 123.459 114.008 123.342 113.883C123.229 113.758 123.172 113.605 123.172 113.426Z" fill="black"/>
    <defs>
        <clipPath id="clip0_1_2248">
            <rect width="145" height="78" fill="white"/>
        </clipPath>
    </defs>
</svg>
