<svg width="328" height="133" viewBox="0 0 328 133" fill="none" xmlns="http://www.w3.org/2000/svg">
<rect width="328" height="133" rx="10" fill="#37393C"/>
<path d="M21.2204 43.192H23.8364V44.584C23.8364 48.784 21.8444 52.552 17.5964 53.92L15.9404 51.448C19.6604 50.248 21.2204 47.368 21.2204 44.584V43.192ZM21.8684 43.192H24.4604V44.584C24.4604 47.2 25.9724 49.912 29.5724 51.064L27.9404 53.536C23.7884 52.192 21.8684 48.568 21.8684 44.584V43.192ZM16.8044 42.208H28.8044V44.752H16.8044V42.208ZM30.5804 40.912H33.7724V54.304H30.5804V40.912ZM32.8844 46.288H36.7244V48.904H32.8844V46.288ZM18.9404 55.264H33.7724V63.136H30.5804V57.832H18.9404V55.264ZM49.5865 45.808H55.1545V48.376H49.5865V45.808ZM44.4985 41.824C47.8345 41.824 50.3545 44.056 50.3545 47.128C50.3545 50.224 47.8345 52.432 44.4985 52.432C41.1385 52.432 38.6185 50.224 38.6185 47.128C38.6185 44.056 41.1385 41.824 44.4985 41.824ZM44.4985 44.488C42.8665 44.488 41.6665 45.472 41.6665 47.128C41.6665 48.784 42.8665 49.792 44.4985 49.792C46.1305 49.792 47.3065 48.784 47.3065 47.128C47.3065 45.472 46.1305 44.488 44.4985 44.488ZM53.7625 40.912H56.9545V52.864H53.7625V40.912ZM42.1945 53.824H45.3625V55.936H53.7865V53.824H56.9545V62.896H42.1945V53.824ZM45.3625 58.384V60.352H53.7865V58.384H45.3625ZM65.4247 44.416H67.9447V46.912C67.9447 51.928 65.8327 57.04 61.7527 58.96L59.9527 56.44C63.6247 54.712 65.4247 50.56 65.4247 46.912V44.416ZM66.0967 44.416H68.6167V46.912C68.6167 50.272 70.3447 54.208 73.9927 55.888L72.2407 58.408C68.1607 56.512 66.0967 51.64 66.0967 46.912V44.416ZM60.8167 43.048H73.0087V45.664H60.8167V43.048ZM74.6407 40.912H77.8567V63.136H74.6407V40.912ZM77.1367 49.384H81.0727V52.024H77.1367V49.384ZM96.5993 42.184H99.9353C99.9353 48.04 96.3353 52.072 89.8313 53.848L88.5833 51.376C93.8873 49.936 96.5993 47.104 96.5993 43.696V42.184ZM89.8073 42.184H98.8073V44.704H89.8073V42.184ZM103.895 40.912H107.087V53.344H103.895V40.912ZM100.055 46.168H104.351V48.76H100.055V46.168ZM92.4473 54.232H107.087V62.896H92.4473V54.232ZM103.943 56.752H95.5913V60.376H103.943V56.752ZM114.573 42.184H117.069V44.728C117.069 48.52 115.557 52.288 111.933 53.848L110.253 51.376C113.349 50.008 114.573 47.248 114.573 44.728V42.184ZM115.149 42.184H117.645V44.728C117.645 47.2 118.821 49.6 121.749 50.824L120.069 53.248C116.613 51.832 115.149 48.424 115.149 44.728V42.184ZM126.477 40.936H129.501V54.4H126.477V40.936ZM123.813 46.312H127.341V48.904H123.813V46.312ZM121.773 41.272H124.749V54.28H121.773V41.272ZM114.237 55.36H129.501V63.136H126.333V57.904H114.237V55.36Z" fill="#2D8DF4"/>
<path d="M25.2694 72.436H26.4454V78.988H25.2694V72.436ZM18.1854 79.604H26.4454V82.656H19.3614V84.56H18.2274V81.788H25.2834V80.528H18.1854V79.604ZM18.2274 84.028H26.9074V84.952H18.2274V84.028ZM16.6174 73.29H23.4074V74.214H16.6174V73.29ZM16.3934 78.568L16.2674 77.602C18.5214 77.602 21.5454 77.546 24.0094 77.238L24.0794 78.092C21.5594 78.47 18.6194 78.554 16.3934 78.568ZM17.8634 73.71H18.9834V78.022H17.8634V73.71ZM21.0274 73.71H22.1614V78.022H21.0274V73.71ZM31.7363 78.946H32.8843V82.74H31.7363V78.946ZM36.4123 78.946H37.5743V82.74H36.4123V78.946ZM28.9363 82.516H40.4023V83.482H28.9363V82.516ZM34.6483 73.234C37.3223 73.234 39.2403 74.508 39.2403 76.496C39.2403 78.47 37.3223 79.744 34.6483 79.744C31.9603 79.744 30.0423 78.47 30.0423 76.496C30.0423 74.508 31.9603 73.234 34.6483 73.234ZM34.6483 74.158C32.6183 74.158 31.1623 75.082 31.1623 76.496C31.1623 77.896 32.6183 78.82 34.6483 78.82C36.6783 78.82 38.1203 77.896 38.1203 76.496C38.1203 75.082 36.6783 74.158 34.6483 74.158ZM50.4672 72.45H51.6292V81.942H50.4672V72.45ZM51.2652 76.594H53.5052V77.574H51.2652V76.594ZM41.8432 73.976H49.3192V74.914H41.8432V73.976ZM45.5812 75.614C47.3732 75.614 48.6052 76.552 48.6052 77.98C48.6052 79.394 47.3732 80.332 45.5812 80.332C43.7752 80.332 42.5432 79.394 42.5432 77.98C42.5432 76.552 43.7752 75.614 45.5812 75.614ZM45.5812 76.524C44.4332 76.524 43.6492 77.098 43.6492 77.98C43.6492 78.848 44.4332 79.422 45.5812 79.422C46.7152 79.422 47.4992 78.848 47.4992 77.98C47.4992 77.098 46.7152 76.524 45.5812 76.524ZM44.9932 72.436H46.1552V74.466H44.9932V72.436ZM43.7472 83.86H52.2032V84.812H43.7472V83.86ZM43.7472 81.186H44.9092V84.266H43.7472V81.186ZM61.5125 73.528H62.4645V75.796C62.4645 78.708 60.8965 81.41 58.8245 82.46L58.1105 81.508C59.9865 80.612 61.5125 78.19 61.5125 75.796V73.528ZM61.7085 73.528H62.6605V75.796C62.6605 78.106 64.1725 80.43 66.0485 81.298L65.3485 82.222C63.2905 81.214 61.7085 78.61 61.7085 75.796V73.528ZM67.3645 72.422H68.5265V85.106H67.3645V72.422ZM79.7114 72.436H80.8734V81.69H79.7114V72.436ZM80.5094 76.272H82.7494V77.238H80.5094V76.272ZM76.2534 73.416H77.4854C77.4854 76.692 75.1894 79.086 71.5634 80.248L71.0594 79.296C74.2514 78.316 76.2534 76.356 76.2534 73.92V73.416ZM71.5774 73.416H76.8414V74.368H71.5774V73.416ZM72.9774 83.86H81.4334V84.812H72.9774V83.86ZM72.9774 80.752H74.1394V84.238H72.9774V80.752ZM85.6309 82.4141L85.624 83.5898C85.624 84.0547 85.5078 84.5332 85.2754 85.0254C85.043 85.5176 84.7354 85.9232 84.3525 86.2422L83.4707 85.7295C83.5983 85.5244 83.7145 85.3171 83.8193 85.1074C83.9242 84.8978 84.0085 84.6745 84.0723 84.4375C84.1361 84.2005 84.168 83.9385 84.168 83.6514V82.4141H85.6309ZM90.1771 73.738H91.1291V74.76C91.1291 77.084 89.7291 79.016 87.6151 79.772L86.9991 78.862C88.9171 78.19 90.1771 76.566 90.1771 74.76V73.738ZM90.3871 73.738H91.3391V74.746C91.3391 76.426 92.5571 77.98 94.4191 78.61L93.8171 79.52C91.7311 78.792 90.3871 76.93 90.3871 74.746V73.738ZM87.3631 73.318H94.1251V74.27H87.3631V73.318ZM95.7211 72.436H96.8831V80.052H95.7211V72.436ZM96.5611 75.768H98.7591V76.734H96.5611V75.768ZM88.6651 80.724H96.8831V85.092H95.7211V81.69H88.6651V80.724ZM106.304 75.446H109.706V76.412H106.304V75.446ZM103.392 73.01C105.282 73.01 106.654 74.214 106.654 75.95C106.654 77.686 105.282 78.876 103.392 78.876C101.502 78.876 100.13 77.686 100.13 75.95C100.13 74.214 101.502 73.01 103.392 73.01ZM103.392 73.99C102.146 73.99 101.25 74.788 101.25 75.95C101.25 77.098 102.146 77.91 103.392 77.91C104.638 77.91 105.534 77.098 105.534 75.95C105.534 74.788 104.638 73.99 103.392 73.99ZM109.188 72.436H110.35V79.226H109.188V72.436ZM102.244 79.856H103.406V81.452H109.202V79.856H110.35V84.924H102.244V79.856ZM103.406 82.376V83.986H109.202V82.376H103.406ZM122.431 72.436H123.551V85.092H122.431V72.436ZM120.303 77.588H122.739V78.54H120.303V77.588ZM119.561 72.716H120.653V84.448H119.561V72.716ZM113.429 73.962H114.591V81.27H113.429V73.962ZM113.429 80.808H114.241C115.543 80.808 116.999 80.724 118.651 80.402L118.777 81.41C117.055 81.746 115.599 81.816 114.241 81.816H113.429V80.808ZM128.52 76.72H129.668V79.114H128.52V76.72ZM133.168 76.72H134.316V79.114H133.168V76.72ZM125.692 78.694H137.13V79.632H125.692V78.694ZM131.404 80.584C134.12 80.584 135.744 81.382 135.744 82.824C135.744 84.266 134.12 85.078 131.404 85.078C128.688 85.078 127.064 84.266 127.064 82.824C127.064 81.382 128.688 80.584 131.404 80.584ZM131.404 81.48C129.43 81.48 128.24 81.97 128.24 82.824C128.24 83.692 129.43 84.168 131.404 84.168C133.392 84.168 134.568 83.692 134.568 82.824C134.568 81.97 133.392 81.48 131.404 81.48ZM131.418 72.66C134.162 72.66 135.87 73.542 135.87 75.026C135.87 76.496 134.162 77.364 131.418 77.364C128.66 77.364 126.966 76.496 126.966 75.026C126.966 73.542 128.66 72.66 131.418 72.66ZM131.418 73.57C129.402 73.57 128.156 74.102 128.156 75.026C128.156 75.936 129.402 76.468 131.418 76.468C133.434 76.468 134.68 75.936 134.68 75.026C134.68 74.102 133.434 73.57 131.418 73.57ZM144.297 73.234C146.929 73.234 148.889 74.634 148.889 76.734C148.889 78.848 146.929 80.234 144.297 80.234C141.665 80.234 139.691 78.848 139.691 76.734C139.691 74.634 141.665 73.234 144.297 73.234ZM144.297 74.186C142.295 74.186 140.811 75.208 140.811 76.734C140.811 78.246 142.295 79.282 144.297 79.282C146.299 79.282 147.783 78.246 147.783 76.734C147.783 75.208 146.299 74.186 144.297 74.186ZM138.585 82.446H150.051V83.426H138.585V82.446ZM151.464 82.572H162.93V83.538H151.464V82.572ZM156.588 79.856H157.75V82.978H156.588V79.856ZM152.85 73.374H161.516V77.21H154.04V79.744H152.892V76.272H160.368V74.312H152.85V73.374ZM152.892 79.254H161.81V80.206H152.892V79.254Z" fill="white"/>
<path d="M18.5745 93.204H19.3905V94.08C19.3905 96.072 18.1905 97.728 16.3785 98.376L15.8505 97.596C17.4945 97.02 18.5745 95.628 18.5745 94.08V93.204ZM18.7545 93.204H19.5705V94.068C19.5705 95.508 20.6145 96.84 22.2105 97.38L21.6945 98.16C19.9065 97.536 18.7545 95.94 18.7545 94.068V93.204ZM16.1625 92.844H21.9585V93.66H16.1625V92.844ZM23.3265 92.088H24.3225V98.616H23.3265V92.088ZM24.0465 94.944H25.9305V95.772H24.0465V94.944ZM17.2785 99.192H24.3225V102.936H23.3265V100.02H17.2785V99.192ZM32.3976 94.668H35.3136V95.496H32.3976V94.668ZM29.9016 92.58C31.5216 92.58 32.6976 93.612 32.6976 95.1C32.6976 96.588 31.5216 97.608 29.9016 97.608C28.2816 97.608 27.1056 96.588 27.1056 95.1C27.1056 93.612 28.2816 92.58 29.9016 92.58ZM29.9016 93.42C28.8336 93.42 28.0656 94.104 28.0656 95.1C28.0656 96.084 28.8336 96.78 29.9016 96.78C30.9696 96.78 31.7376 96.084 31.7376 95.1C31.7376 94.104 30.9696 93.42 29.9016 93.42ZM34.8696 92.088H35.8656V97.908H34.8696V92.088ZM28.9176 98.448H29.9136V99.816H34.8816V98.448H35.8656V102.792H28.9176V98.448ZM29.9136 100.608V101.988H34.8816V100.608H29.9136ZM40.6647 93.636H41.4567V95.4C41.4567 97.656 40.0767 99.984 38.3847 100.848L37.8087 100.056C39.3567 99.3 40.6647 97.236 40.6647 95.4V93.636ZM40.8447 93.636H41.6367V95.4C41.6367 97.116 42.8607 99.048 44.4327 99.792L43.8687 100.584C42.1527 99.732 40.8447 97.548 40.8447 95.4V93.636ZM38.1927 93.192H44.0367V94.032H38.1927V93.192ZM45.3207 92.088H46.3287V102.936H45.3207V92.088ZM46.0887 96.468H48.1047V97.308H46.0887V96.468ZM49.0157 97.128H58.8557V97.884H49.0157V97.128ZM50.1797 98.76H57.6197V101.076H51.1997V102.348H50.2157V100.392H56.6477V99.468H50.1797V98.76ZM50.2157 102.084H57.9677V102.804H50.2157V102.084ZM50.2637 92.4H57.5837V94.656H51.2717V95.832H50.2877V93.984H56.6117V93.108H50.2637V92.4ZM50.2877 95.592H57.7877V96.312H50.2877V95.592ZM63.5351 93.672H72.3431V94.488H63.5351V93.672ZM63.0551 100.848H72.8831V101.676H63.0551V100.848ZM67.4591 99.132H68.4431V101.172H67.4591V99.132ZM67.9391 95.22C70.1351 95.22 71.4911 95.976 71.4911 97.284C71.4911 98.592 70.1351 99.348 67.9391 99.348C65.7551 99.348 64.3991 98.592 64.3991 97.284C64.3991 95.976 65.7551 95.22 67.9391 95.22ZM67.9391 96C66.3671 96 65.3951 96.48 65.3951 97.284C65.3951 98.088 66.3671 98.556 67.9391 98.556C69.5231 98.556 70.4831 98.088 70.4831 97.284C70.4831 96.48 69.5231 96 67.9391 96ZM67.4591 92.268H68.4431V94.176H67.4591V92.268ZM78.4861 97.488H79.4821V99.132H78.4861V97.488ZM74.0941 96.9H83.8861V97.668H74.0941V96.9ZM78.4981 92.016H79.4821V93.336H78.4981V92.016ZM78.4501 93.432H79.3261V93.6C79.3261 95.304 77.2981 96.216 74.8981 96.42L74.6101 95.652C76.7461 95.52 78.4501 94.764 78.4501 93.6V93.432ZM78.6541 93.432H79.5301V93.6C79.5301 94.764 81.2341 95.52 83.3581 95.652L83.0701 96.42C80.6701 96.216 78.6541 95.304 78.6541 93.6V93.432ZM75.0901 93.036H82.8901V93.792H75.0901V93.036ZM75.2701 98.652H82.6381V101.04H76.2781V102.348H75.2941V100.332H81.6541V99.408H75.2701V98.652ZM75.2941 102.06H82.9621V102.816H75.2941V102.06ZM85.1092 93.936H90.4852V94.752H85.1092V93.936ZM87.7972 95.472C89.1532 95.472 90.1372 96.492 90.1372 97.956C90.1372 99.408 89.1532 100.428 87.7972 100.428C86.4532 100.428 85.4692 99.408 85.4692 97.956C85.4692 96.492 86.4532 95.472 87.7972 95.472ZM87.7972 96.324C86.9692 96.324 86.3692 96.996 86.3692 97.956C86.3692 98.916 86.9692 99.588 87.7972 99.588C88.6372 99.588 89.2492 98.916 89.2492 97.956C89.2492 96.996 88.6372 96.324 87.7972 96.324ZM93.3532 92.088H94.3132V102.936H93.3532V92.088ZM91.6252 96.648H93.6772V97.476H91.6252V96.648ZM91.0372 92.328H91.9732V102.408H91.0372V92.328ZM87.3172 92.4H88.3012V94.44H87.3172V92.4ZM96.1723 100.728H106V101.556H96.1723V100.728ZM100.564 98.136H101.56V100.968H100.564V98.136ZM97.3243 92.856H98.3083V94.788H103.84V92.856H104.824V98.4H97.3243V92.856ZM98.3083 95.592V97.584H103.84V95.592H98.3083ZM111.483 95.964H113.559V96.792H111.483V95.964ZM109.455 93.108H110.235V95.172C110.235 97.44 109.287 99.636 107.703 100.608L107.079 99.852C108.567 98.976 109.455 97.032 109.455 95.172V93.108ZM109.647 93.108H110.415V95.136C110.415 96.876 111.231 98.724 112.659 99.588L112.083 100.368C110.523 99.408 109.647 97.248 109.647 95.136V93.108ZM115.467 92.088H116.427V102.936H115.467V92.088ZM113.271 92.316H114.207V102.396H113.271V92.316ZM120.65 97.668H121.634V100.92H120.65V97.668ZM124.658 97.668H125.654V100.92H124.658V97.668ZM118.25 100.728H128.078V101.556H118.25V100.728ZM123.146 92.772C125.438 92.772 127.082 93.864 127.082 95.568C127.082 97.26 125.438 98.352 123.146 98.352C120.842 98.352 119.198 97.26 119.198 95.568C119.198 93.864 120.842 92.772 123.146 92.772ZM123.146 93.564C121.406 93.564 120.158 94.356 120.158 95.568C120.158 96.768 121.406 97.56 123.146 97.56C124.886 97.56 126.122 96.768 126.122 95.568C126.122 94.356 124.886 93.564 123.146 93.564Z" fill="white"/>
<g clip-path="url(#clip0_15_277)">
<path d="M176.339 35.6659C172.968 36.4895 169.875 38.3479 169.214 42.0014C168.232 47.3021 170.984 53.2363 173.331 57.8612C179.219 69.4129 187.283 80.31 197.395 88.5461C208.275 97.4158 221.694 103.181 235.752 104.49C240.574 104.934 245.438 104.934 250.259 104.554C270.718 102.949 291.624 95.2195 303.934 78.177C309.48 70.5111 313.619 60.6911 312.915 51.1033C311.272 29.1192 283.176 25.6558 265.939 29.2037C258.622 30.7031 251.71 33.9764 245.758 38.4112C240.019 42.6771 235.241 48.4213 228.457 51.1245C218.899 54.9258 211.304 47.1331 203.838 42.5293C195.816 37.6087 185.939 33.3006 176.339 35.6659Z" fill="#F7FDFF"/>
<path d="M241 116C278.326 116 308.584 114.44 308.584 112.516C308.584 110.591 278.326 109.031 241 109.031C203.674 109.031 173.416 110.591 173.416 112.516C173.416 114.44 203.674 116 241 116Z" fill="#E6E6FF"/>
<path d="M256.039 40.7148H256.423V42.4254C256.423 42.9956 256.124 43.5447 255.634 43.8615L252.412 45.9944C252.263 46.1 252.178 46.269 252.178 46.4379V47.1559" stroke="#0C3956" stroke-width="1.0486" stroke-miterlimit="10" stroke-linecap="round" stroke-linejoin="round"/>
<path d="M255.741 41.6216H243.304C242.92 41.6216 242.621 41.3048 242.621 40.9458V40.5234C242.621 40.1433 242.941 39.8477 243.304 39.8477H255.741C256.125 39.8477 256.424 40.1644 256.424 40.5234V40.9458C256.445 41.3048 256.125 41.6216 255.741 41.6216Z" fill="#0C3956"/>
<path d="M252.201 54.1243C251.859 54.1243 251.561 53.8498 251.561 53.4908V47.6199C251.561 47.282 251.838 46.9863 252.201 46.9863C252.542 46.9863 252.841 47.2609 252.841 47.6199V53.4908C252.841 53.8498 252.542 54.1243 252.201 54.1243Z" fill="#B6CCFE"/>
<path d="M254.674 42.3194H244.412C243.815 42.3194 243.324 41.8336 243.324 41.2423V40.1864C243.324 39.5951 243.815 39.1094 244.412 39.1094H254.674C255.271 39.1094 255.762 39.5951 255.762 40.1864V41.2423C255.74 41.8336 255.25 42.3194 254.674 42.3194Z" fill="#FAE625"/>
<path d="M269.16 66.2253C272.019 62.8041 272.744 58.496 272.915 57.0177C271.166 55.9618 269.651 55.3071 269.459 54.6736C269.416 54.5046 269.395 54.3568 269.395 54.209C267.603 54.5258 266.11 54.4202 265.256 54.3146C265.171 54.4835 265.043 54.6736 264.83 54.8003C264.808 54.8003 264.808 54.8214 264.787 54.8214C266.515 58.0103 268.136 66.2253 268.136 66.2253H269.16Z" fill="#CECFFF"/>
<path d="M269.416 54.2087C269.395 53.6808 269.587 53.2373 269.587 53.2373C269.587 53.2373 265.725 52.7093 265.448 53.6385C265.448 53.6385 265.469 53.9975 265.299 54.3354C266.131 54.441 267.624 54.5255 269.416 54.2087Z" fill="#FFCCD3"/>
<path d="M257.448 55.6654C255.677 56.1088 254.034 56.5523 254.034 56.5523C254.034 56.5523 253.032 55.4331 252.989 54.0815C252.946 52.7299 252.626 52.392 252.626 52.392C252.626 52.392 251.688 52.3498 251.282 52.7299C250.877 53.1312 250.301 57.5449 251.005 58.6008C251.538 59.3822 254.162 60.058 257.042 60.0791C256.722 58.5586 257.149 56.7213 257.448 55.6654Z" fill="#FFCCD3"/>
<path d="M276.541 66.1182C276.434 64.5555 276.242 62.9927 275.922 61.7045C275.261 59.0225 275.73 58.8746 273.704 57.5231C273.682 57.502 273.661 57.502 273.661 57.502C273.213 62.4225 269.928 66.2449 269.928 66.2449L271.101 66.5195C271.101 67.7443 271.485 69.3282 271.762 70.3208C271.784 69.6872 271.869 69.0959 271.997 68.6735C272.509 66.9841 273.704 65.2735 273.704 65.2735C273.704 65.2735 273.661 65.6536 273.64 66.2449C274.216 66.2238 275.496 66.2238 276.541 66.1182Z" fill="#CECFFF"/>
<path d="M263.442 73.8276C265.682 72.9829 266.685 66.225 266.685 66.225H267.496C267.496 66.225 265.128 57.1019 263.954 54.8845C263.272 54.8 262.312 54.5888 261.117 54.8C260.306 54.9478 258.834 55.3068 257.426 55.6658C257.128 56.7218 256.701 58.5802 257.042 60.0796C258.002 60.0796 259.005 60.0162 259.965 59.8684C259.965 59.8684 261.202 66.1616 260.989 68.9915C260.882 70.4064 260.498 72.1804 260.136 74.25C260.946 74.3344 262.162 74.3133 263.442 73.8276Z" fill="#CECFFF"/>
<path d="M273.662 66.2247C273.619 67.0695 273.598 68.3154 273.726 69.3502C273.939 71.1031 274.217 73.1093 274.345 74.123C274.473 75.1367 274.345 76.7839 274.345 76.7839C274.345 76.7839 274.963 77.1429 275.923 76.9951C275.923 76.9951 276.371 73.1938 276.563 70.7863C276.649 69.5192 276.67 67.8297 276.563 66.1191C275.497 66.2247 274.217 66.2247 273.662 66.2247Z" fill="#FFCCD3"/>
<path d="M273.705 65.2538L274.622 63.332" stroke="#0C3956" stroke-width="0.2795" stroke-miterlimit="10" stroke-linecap="round" stroke-linejoin="round"/>
<path d="M259.986 59.8676V58.875" stroke="#0C3956" stroke-width="0.2795" stroke-miterlimit="10" stroke-linecap="round" stroke-linejoin="round"/>
<path d="M254.035 56.5527C254.035 56.5527 253.843 56.7428 253.715 56.9751" stroke="#0C3956" stroke-width="0.2795" stroke-miterlimit="10" stroke-linecap="round" stroke-linejoin="round"/>
<path d="M251.219 52.8784C251.219 52.8784 250.75 52.1815 250.643 51.8859C250.536 51.5902 250.835 50.7455 251.219 50.5554C251.219 50.5554 251.219 49.8796 251.518 49.8374C251.816 49.7952 252.371 50.5765 252.606 50.4921C252.84 50.4076 252.798 49.584 252.798 49.584C252.798 49.584 253.416 50.3442 253.374 50.6399C253.331 50.9356 253.267 51.2101 253.118 51.5269C252.968 51.8436 252.67 52.5194 252.67 52.5194L251.219 52.8784Z" fill="#FFCCD3"/>
<path d="M274.345 76.4453C274.366 76.4453 275.561 76.4876 275.838 76.8466C276.115 77.2267 276.179 79.2118 276.115 79.5286C276.051 79.8665 274.899 81.4292 274.707 81.4081C274.494 81.387 274.473 81.1969 274.473 81.1969C274.473 81.1969 274.003 81.6827 273.939 81.1336C273.939 81.1336 273.491 81.2814 273.598 80.8168C273.598 80.8168 273.363 80.8802 273.427 80.3944C273.491 79.9087 274.089 79.3385 274.131 79.0217C274.174 78.705 274.238 78.2193 274.046 78.2404C273.875 78.2615 273.875 78.8739 273.811 79.064C273.747 79.2329 273.513 79.2963 273.427 79.0851C273.342 78.8739 273.534 78.0714 273.683 77.6702C273.833 77.3112 274.345 76.4453 274.345 76.4453Z" fill="#FFCCD3"/>
<path d="M274.473 81.218C274.473 81.218 274.899 80.6478 275.091 80.3311C275.262 80.0354 275.326 79.4863 275.326 79.4863" stroke="#0C3956" stroke-width="0.2341" stroke-miterlimit="10" stroke-linecap="round" stroke-linejoin="round"/>
<path d="M273.939 81.1544C273.939 81.1544 274.771 80.2463 274.878 79.3594" stroke="#0C3956" stroke-width="0.2341" stroke-miterlimit="10" stroke-linecap="round" stroke-linejoin="round"/>
<path d="M273.619 80.8373C273.619 80.8373 274.408 80.0137 274.472 79.3379" stroke="#0C3956" stroke-width="0.2341" stroke-miterlimit="10" stroke-linecap="round" stroke-linejoin="round"/>
<path d="M273.961 91.355C273.961 91.355 272.617 84.5338 272.745 80.9225C272.873 77.3113 271.955 74.5871 271.955 74.5871C271.955 74.5871 271.699 72.2007 271.785 70.3C271.507 69.2864 271.123 67.7236 271.123 66.4987L269.95 66.2242C269.95 66.2242 273.235 62.4018 273.683 57.4812C273.427 57.3123 273.193 57.1644 272.958 57.0166C272.787 58.4949 272.041 62.803 269.203 66.2242H268.179C268.179 66.2242 266.558 57.9881 264.83 54.8203C264.617 54.9259 264.339 54.9259 263.998 54.8837C265.171 57.1222 267.539 66.2242 267.539 66.2242H266.729C266.729 66.2242 265.705 72.9821 263.486 73.8268C262.206 74.3125 260.99 74.3336 260.201 74.2703C259.838 76.3188 259.475 78.6629 259.454 81.1971C259.39 86.2655 259.091 91.3761 259.091 91.3761L257.641 111.016H260.393L264.489 93.0233C264.745 91.9252 265.043 90.8481 265.427 89.7922L266.259 87.4692L267.902 91.3972L275.646 111.037H278.441L273.961 91.355Z" fill="#6166FF"/>
<path d="M266.217 87.4491L267.795 84.1547L269.929 82.8242" stroke="#0C3956" stroke-width="0.2795" stroke-miterlimit="10" stroke-linecap="round" stroke-linejoin="round"/>
<path d="M261.331 74.8613C261.331 74.8613 260.691 79.7608 260.563 83.1397C260.435 86.5186 258.494 110.995 258.494 110.995" stroke="#0C3956" stroke-width="0.2795" stroke-miterlimit="10" stroke-linecap="round" stroke-linejoin="round"/>
<path d="M278.397 110.996H275.603L272.467 112.517H278.205C278.44 112.517 278.611 112.305 278.589 112.094L278.397 110.996Z" fill="#0C3956"/>
<path d="M260.392 110.996H257.597L254.461 112.517H260.2C260.434 112.517 260.605 112.305 260.584 112.094L260.392 110.996Z" fill="#0C3956"/>
<path d="M266.644 46.5216C265.62 46.7116 264.702 47.2396 264.062 48.0632C263.934 48.211 263.87 48.3377 263.849 48.4011C263.806 48.6545 263.721 48.9713 263.721 48.9713C263.721 48.9713 262.889 49.7949 262.42 50.175C262.313 50.2806 262.292 50.4496 262.398 50.5552C262.505 50.6608 262.612 50.7664 262.718 50.8508C262.953 51.0198 262.74 51.4421 262.825 51.59C262.889 51.7378 262.889 51.7378 262.889 51.7378C262.889 51.7378 262.761 51.8434 262.825 52.0546C262.889 52.2658 262.953 52.4558 262.889 52.7726C262.825 53.1105 262.484 53.3005 262.953 53.7863C263.422 54.272 265.876 53.913 266.857 53.7863C267.817 53.6596 268.457 54.0397 269.63 53.5329C270.804 53.026 271.358 48.8657 269.993 47.2185C269.268 46.247 267.796 46.2893 266.644 46.5216Z" fill="#FFCCD3"/>
<path d="M264.468 46.5001C264.468 46.5001 264.425 47.5771 265.47 48.1051C266.516 48.633 267.113 48.274 267.113 48.274C267.113 48.274 266.366 49.0765 266.452 49.7312C266.537 50.3859 266.814 50.4914 266.601 50.9772C266.388 51.4418 266.388 51.5262 266.388 51.5262L266.729 51.4207C266.729 51.4207 267.177 50.7449 267.518 50.6604C267.86 50.5759 268.052 50.7871 268.009 51.3573C267.988 51.9064 267.518 51.8853 267.262 52.1387C267.028 52.3921 267.71 53.617 268.734 53.8493C269.758 54.0816 270.228 53.5114 270.718 52.8778C271.23 52.2443 271.742 48.4852 270.313 46.9436C268.905 45.3597 263.934 44.8529 264.468 46.5001Z" fill="#0C3956"/>
<path d="M248.657 58.1701L215.131 45.0469L212.683 51.1739L246.209 64.2971L248.657 58.1701Z" fill="#C97F89"/>
<g opacity="0.33">
<path d="M216.039 46.7335C216.316 46.5435 216.658 46.4801 216.999 46.5012C217.34 46.5012 217.66 46.6068 217.959 46.7335C218.108 46.818 218.258 46.8814 218.386 46.9658C218.535 47.0503 218.663 47.1559 218.791 47.2404C219.047 47.4515 219.282 47.6838 219.538 47.895C220.519 48.782 221.671 49.4789 222.866 50.028C225.276 51.1472 227.836 51.8864 230.375 52.6466C231.634 53.069 232.871 53.5547 234.023 54.1883C234.599 54.5051 235.175 54.8641 235.687 55.2653C235.943 55.4765 236.199 55.6877 236.412 55.9411C236.626 56.1945 236.839 56.4479 236.946 56.7647C236.988 56.9125 237.031 57.1026 236.967 57.2504C236.924 57.4194 236.796 57.5461 236.647 57.6095C236.498 57.6728 236.327 57.6728 236.156 57.6939C235.986 57.6939 235.815 57.6939 235.666 57.6728C235.004 57.6306 234.343 57.525 233.703 57.3983C232.402 57.1448 231.1 56.8281 229.82 56.4902C228.54 56.1312 227.282 55.751 226.023 55.3076C224.786 54.8641 223.527 54.3784 222.375 53.7237C222.098 53.5547 221.799 53.3858 221.564 53.1535C221.436 53.0479 221.308 52.9212 221.223 52.7945C221.116 52.6678 221.052 52.4988 221.052 52.3299C221.052 52.1609 221.159 51.992 221.287 51.8864C221.436 51.7808 221.586 51.7386 221.756 51.7174C222.098 51.6541 222.418 51.6752 222.759 51.6963C223.42 51.7597 224.082 51.8864 224.722 52.0342C225.362 52.182 226.002 52.3721 226.642 52.5833C227.9 52.9845 229.159 53.4491 230.354 54.0405C230.652 54.1883 230.951 54.3361 231.228 54.5262C231.378 54.6107 231.506 54.7162 231.634 54.8218C231.676 54.8852 231.762 54.9485 231.74 55.0541C231.698 55.1386 231.634 55.202 231.548 55.2231C231.228 55.3498 230.887 55.3498 230.567 55.3498C230.226 55.3498 229.906 55.3076 229.564 55.2864C228.903 55.202 228.242 55.0964 227.602 54.9274C226.962 54.7796 226.322 54.5895 225.703 54.315C225.554 54.2516 225.404 54.1672 225.255 54.0827C225.106 53.9982 224.978 53.8926 224.871 53.7659C224.828 53.7026 224.786 53.6181 224.764 53.5547L224.743 53.4914C224.743 53.4703 224.743 53.4491 224.743 53.428C224.764 53.3858 224.786 53.3436 224.828 53.3224C224.764 53.3647 224.743 53.4491 224.764 53.5336C224.786 53.6181 224.828 53.6814 224.871 53.7448C224.978 53.8715 225.106 53.9771 225.255 54.0616C225.404 54.146 225.554 54.2094 225.703 54.2939C226.3 54.5684 226.962 54.7374 227.602 54.8852C228.242 55.033 228.903 55.1597 229.564 55.2231C229.884 55.2653 230.226 55.2864 230.546 55.2864C230.866 55.2864 231.207 55.2864 231.527 55.1597C231.612 55.1386 231.655 55.0753 231.698 55.0119C231.719 54.9485 231.655 54.8852 231.612 54.8218C231.506 54.7162 231.356 54.6107 231.228 54.5262C230.951 54.3572 230.652 54.2094 230.354 54.0616C229.159 53.4914 227.922 53.0268 226.663 52.6255C226.023 52.4143 225.404 52.2454 224.743 52.0765C224.103 51.9286 223.442 51.7808 222.78 51.7386C222.46 51.7174 222.119 51.6963 221.799 51.7597C221.628 51.7808 221.479 51.8442 221.351 51.9286C221.223 52.0131 221.138 52.1609 221.138 52.3299C221.138 52.4777 221.202 52.6466 221.308 52.7734C221.394 52.9001 221.522 53.0268 221.65 53.1324C221.906 53.3436 222.183 53.5336 222.46 53.6814C223.612 54.3361 224.85 54.8218 226.087 55.2653C227.324 55.7088 228.604 56.1101 229.884 56.4691C231.164 56.8281 232.444 57.1448 233.746 57.3983C234.407 57.525 235.047 57.6306 235.708 57.6728C235.879 57.6728 236.05 57.6939 236.199 57.6939C236.37 57.6939 236.54 57.6728 236.69 57.6095C236.839 57.525 236.946 57.4194 237.01 57.2504C237.052 57.1026 237.031 56.9337 236.988 56.7647C236.882 56.4479 236.668 56.1945 236.455 55.9411C236.242 55.7088 235.986 55.4765 235.73 55.2864C235.218 54.8852 234.642 54.5262 234.066 54.2094C232.892 53.5759 231.676 53.0901 230.418 52.6678C227.879 51.9075 225.319 51.1684 222.908 50.028C221.714 49.4578 220.562 48.7609 219.58 47.8739C219.346 47.6416 219.09 47.4304 218.834 47.2192C218.706 47.1137 218.578 47.0081 218.428 46.9236C218.3 46.8391 218.151 46.7546 218.002 46.6913C217.703 46.5646 217.383 46.459 217.042 46.459C216.658 46.4801 216.316 46.5435 216.039 46.7335Z" fill="#0C3956"/>
<path d="M214.887 49.6485C215.356 49.9019 215.826 50.1554 216.316 50.3665C216.807 50.5566 217.319 50.7255 217.852 50.7678C218.108 50.7889 218.386 50.7889 218.642 50.7255C218.898 50.6622 219.154 50.5777 219.41 50.5144C219.666 50.451 219.943 50.4299 220.22 50.451C220.498 50.4721 220.754 50.5566 221.01 50.6411L220.988 50.6622C220.604 50.1765 220.156 49.7752 219.644 49.4373C219.154 49.0783 218.599 48.8038 218.023 48.6137C217.724 48.5292 217.426 48.4659 217.127 48.487C216.978 48.5081 216.828 48.5292 216.722 48.6348C216.615 48.7193 216.572 48.8883 216.615 49.015C216.722 49.2895 217.02 49.4584 217.298 49.564C217.575 49.6696 217.916 49.6696 218.194 49.5429C217.916 49.6696 217.575 49.6907 217.298 49.5852C217.148 49.5429 217.02 49.4584 216.892 49.374C216.764 49.2895 216.658 49.1628 216.594 49.015C216.53 48.8671 216.572 48.6771 216.7 48.5715C216.828 48.4659 216.978 48.4236 217.148 48.4025C217.468 48.3814 217.767 48.4448 218.066 48.5292C218.642 48.7193 219.196 49.015 219.708 49.3529C220.199 49.7119 220.668 50.1342 221.031 50.5988V50.62C221.031 50.62 221.031 50.62 221.01 50.62C220.754 50.5355 220.498 50.451 220.242 50.4299C219.986 50.4088 219.708 50.4299 219.452 50.4932C219.196 50.5566 218.94 50.6622 218.684 50.7255C218.428 50.7889 218.151 50.81 217.874 50.7889C217.34 50.7467 216.807 50.5777 216.316 50.3665C215.804 50.1765 215.335 49.923 214.887 49.6485Z" fill="#0C3956"/>
<path d="M219.751 52.5198C219.346 52.3297 218.898 52.203 218.471 52.0763C218.258 52.0129 218.045 51.9496 217.81 51.9074L217.149 51.7595C216.701 51.6539 216.274 51.5061 215.869 51.316C215.463 51.126 215.058 50.9148 214.695 50.6191C215.058 50.8726 215.463 51.0837 215.89 51.2738C216.295 51.4639 216.722 51.6117 217.17 51.7384C217.597 51.8651 218.045 51.9285 218.493 52.0552C218.706 52.1185 218.941 52.1819 219.154 52.2453C219.346 52.3297 219.559 52.3931 219.751 52.5198Z" fill="#0C3956"/>
<path d="M234.301 58.3485C234.407 58.3063 234.535 58.2852 234.663 58.2852C234.791 58.2852 234.919 58.2852 235.026 58.3063C235.261 58.3485 235.517 58.4119 235.751 58.4963C236.221 58.6442 236.669 58.8554 237.095 59.1088C237.522 59.3411 237.949 59.6156 238.375 59.869C238.802 60.1224 239.25 60.3336 239.677 60.5448C240.573 60.9461 241.49 61.3051 242.429 61.6007C243.367 61.8964 244.327 62.1498 245.309 62.2554C244.818 62.2132 244.327 62.1287 243.837 62.0231C243.346 61.9175 242.877 61.7908 242.407 61.643C241.469 61.3473 240.551 60.9883 239.655 60.5659C239.442 60.4603 239.207 60.3548 238.994 60.228C238.781 60.1013 238.567 59.9957 238.354 59.869C237.927 59.6156 237.501 59.3622 237.074 59.1299C236.647 58.8976 236.199 58.6864 235.73 58.5175C235.495 58.433 235.261 58.3696 235.026 58.3274C234.898 58.3063 234.791 58.2852 234.663 58.2852C234.535 58.3063 234.407 58.3063 234.301 58.3485Z" fill="#0C3956"/>
<path d="M245.095 61.0097C245.052 60.8407 244.903 60.7351 244.753 60.6507C244.604 60.5662 244.433 60.5239 244.284 60.4817C243.943 60.3972 243.601 60.3761 243.26 60.3339C242.577 60.2283 241.937 59.9538 241.319 59.6581C240.7 59.3624 240.124 59.0034 239.527 58.6444C238.951 58.2854 238.375 57.9053 237.82 57.504C237.82 57.504 237.82 57.504 237.82 57.4829C239.015 57.3351 240.252 57.3984 241.425 57.673C242.001 57.8208 242.577 57.9897 243.153 58.2009C243.708 58.4121 244.284 58.6444 244.796 58.9401C244.924 59.0245 245.052 59.0879 245.18 59.1935C245.244 59.2357 245.287 59.2991 245.329 59.3624C245.351 59.4047 245.372 59.4258 245.372 59.4892C245.372 59.5314 245.351 59.5736 245.308 59.6159C245.18 59.7215 245.009 59.7215 244.86 59.7215C244.711 59.7215 244.561 59.7215 244.412 59.7003C243.815 59.637 243.217 59.5103 242.641 59.3202C242.343 59.2357 242.065 59.1301 241.788 59.0245C241.511 58.8978 241.233 58.7922 240.999 58.6022C240.935 58.5599 240.892 58.4755 240.913 58.391C240.913 58.3065 240.999 58.2432 241.063 58.2432C241.212 58.2009 241.361 58.2221 241.511 58.2432C241.809 58.2854 242.108 58.391 242.385 58.4755C242.108 58.3699 241.809 58.2854 241.511 58.2432C241.361 58.2221 241.212 58.2009 241.063 58.2432C240.999 58.2643 240.935 58.3065 240.913 58.391C240.913 58.4544 240.956 58.5177 240.999 58.5811C241.233 58.7711 241.511 58.8767 241.788 59.0034C242.065 59.109 242.364 59.1935 242.641 59.278C243.217 59.4469 243.815 59.5736 244.412 59.637C244.561 59.6581 244.711 59.6581 244.86 59.6581C245.009 59.6581 245.159 59.637 245.265 59.5525C245.308 59.5103 245.308 59.4469 245.265 59.3836C245.223 59.3202 245.18 59.278 245.116 59.2357C245.009 59.1513 244.881 59.0668 244.753 58.9823C244.241 58.6867 243.665 58.4544 243.111 58.2432C242.556 58.032 241.98 57.8419 241.383 57.6941C240.807 57.5463 240.209 57.4618 239.591 57.4196C238.993 57.3773 238.375 57.3984 237.799 57.4829V57.4618C238.929 58.2432 240.081 58.9823 241.297 59.5947C241.916 59.8904 242.535 60.1861 243.217 60.2916C243.559 60.3339 243.9 60.355 244.241 60.4606C244.412 60.5028 244.561 60.5662 244.711 60.6507C244.903 60.7351 245.073 60.8407 245.095 61.0097C245.116 61.0097 245.116 61.0097 245.095 61.0097Z" fill="#0C3956"/>
<path d="M237.65 55.5825C237.864 55.4347 238.141 55.4136 238.397 55.4347C238.653 55.4558 238.909 55.498 239.144 55.5825C239.4 55.6459 239.634 55.7514 239.869 55.857C240.104 55.9626 240.317 56.0893 240.552 56.1949C241.469 56.6595 242.408 57.0185 243.389 57.3564L246.29 58.349C246.418 58.3912 246.525 58.4335 246.653 58.4968C246.717 58.5391 246.781 58.5602 246.824 58.6024L246.888 58.6658L246.952 58.7502C247.101 58.9825 247.101 59.2571 247.08 59.4894C247.058 59.7428 246.973 59.9962 246.866 60.2285C246.76 60.4608 246.632 60.6931 246.397 60.8198C246.61 60.672 246.738 60.4397 246.845 60.2074C246.952 59.9751 247.016 59.7217 247.037 59.4894C247.058 59.236 247.037 58.9825 246.909 58.7714C246.781 58.5602 246.525 58.4757 246.29 58.3912C245.33 58.0533 244.349 57.7366 243.389 57.3776C242.429 57.0185 241.469 56.6595 240.552 56.216C240.104 55.9837 239.634 55.7514 239.165 55.6036C238.93 55.5191 238.674 55.4769 238.418 55.4558C238.141 55.4347 237.885 55.4558 237.65 55.5825Z" fill="#0C3956"/>
<path d="M223.848 49.3516L225.747 50.1963C226.387 50.4708 227.027 50.7665 227.667 50.9988C228.307 51.2522 228.968 51.5056 229.608 51.7379C230.269 51.9702 230.909 52.2025 231.592 52.3926C230.909 52.2237 230.248 52.0125 229.608 51.7802C228.947 51.5479 228.307 51.2944 227.667 51.0199L225.747 50.2174C225.427 50.0907 225.107 49.9429 224.787 49.795C224.467 49.6683 224.147 49.5205 223.848 49.3516Z" fill="#0C3956"/>
</g>
<path d="M218.428 63.3519C218.428 63.3519 221.052 63.7742 223.1 62.7394C223.1 62.7394 221.991 58.0934 221.18 56.3406C220.668 56.2139 220.242 56.066 220.114 55.8337C220.071 55.7704 220.05 55.707 220.028 55.6226C219.666 56.066 219.026 56.594 218.13 56.4884C216.999 56.3617 216.252 55.7915 215.762 55.3691C215.719 55.4536 215.655 55.517 215.591 55.5803C215.399 55.7493 214.78 56.0027 214.076 56.3195C215.228 57.2064 217.596 59.5083 218.428 63.3519Z" fill="#CECFFF"/>
<path d="M230.566 58.1777L230.182 60.3107C230.182 60.3107 229.116 59.7194 227.836 59.0225C227.793 59.9094 227.622 61.2399 226.982 62.507C228.838 62.9505 231.612 63.4784 232.23 62.9927C232.7 62.6337 232.785 60.8386 232.7 58.9802C231.868 58.6635 231.313 58.41 230.566 58.1777Z" fill="#FFCCD3"/>
<path d="M212.135 66.8156C212.306 66.4355 212.477 66.0131 212.647 65.5485C212.647 65.5485 214.205 69.033 214.247 70.1734C214.247 70.3846 214.247 70.6169 214.247 70.9126C215.719 70.3846 217.234 68.0616 217.191 63.9224C217.17 60.1211 214.461 57.8403 213.074 56.7422C212.306 57.1223 211.602 57.5658 211.346 58.0304C210.898 58.854 209.917 61.9373 209.191 64.3237C209.831 65.105 210.962 66.3299 212.135 66.8156Z" fill="#CECFFF"/>
<path d="M220.007 55.6243C219.794 54.9907 219.815 53.8926 219.815 53.8926L216.06 53.5547C216.06 53.5547 216.103 54.7796 215.762 55.3709C216.252 55.7932 216.978 56.3634 218.13 56.4901C219.026 56.5957 219.644 56.0678 220.007 55.6243Z" fill="#FFCCD3"/>
<path d="M223.314 56.7421C223.037 56.6576 222.61 56.5942 222.162 56.5098C222.631 57.9458 224.338 63.1409 224.786 64.7881C224.893 65.1683 224.957 65.5273 225.021 65.8652C225.17 64.1124 225.277 62.6552 225.213 62.0639C225.213 62.0639 225.959 62.2751 226.983 62.5074C227.623 61.2403 227.794 59.9098 227.837 59.0228C226.045 58.0725 223.805 56.8899 223.314 56.7421Z" fill="#CECFFF"/>
<path d="M210.791 69.2663C210.791 69.2663 211.453 68.3582 212.135 66.8165C210.962 66.3097 209.81 65.0848 209.191 64.3457C208.935 65.2116 208.701 65.9718 208.53 66.5209C207.911 68.5694 207.762 69.0973 207.89 69.9421C208.018 70.7657 213.266 78.0515 213.437 78.3049C213.543 77.2912 213.671 76.2987 213.778 75.5806L210.791 69.2663Z" fill="#FFCCD3"/>
<path d="M214.524 77.0798L213.82 75.6016C213.713 76.2985 213.585 77.3121 213.479 78.3258C213.479 78.3258 214.439 77.3755 214.524 77.0798Z" stroke="#0C3956" stroke-width="0.2567" stroke-miterlimit="10" stroke-linecap="round" stroke-linejoin="round"/>
<path d="M225.51 83.3303C225.233 80.4793 224.465 76.4668 224.422 73.8693C224.401 72.2643 224.785 68.7164 225.041 65.8865C224.977 65.5486 224.913 65.1896 224.806 64.8095C224.358 63.1623 222.652 57.9672 222.182 56.5311C221.862 56.4678 221.521 56.4255 221.201 56.3411C222.012 58.0939 223.121 62.7399 223.121 62.7399C221.073 63.7747 218.449 63.3523 218.449 63.3523C217.638 59.4877 215.27 57.2069 214.118 56.2988C213.798 56.4467 213.457 56.5945 213.137 56.7634C214.502 57.8616 217.212 60.1424 217.254 63.9437C217.276 68.0828 215.782 70.4059 214.31 70.9338C214.289 72.2432 214.14 74.1649 213.99 74.9041C213.969 75.073 213.926 75.3053 213.862 75.601L214.566 77.0792C214.46 77.396 213.521 78.3252 213.521 78.3252C213.436 79.1488 213.35 79.9936 213.329 80.6905C213.286 81.5986 213.414 84.8085 213.542 87.8918C213.734 92.3267 213.542 96.7404 212.966 101.133L212.07 111.101H214.63L218.364 94.7975L220.241 88.2297V94.3963L220.454 111.101H223.142L224.977 94.3963C224.934 94.4174 225.766 86.1601 225.51 83.3303Z" fill="#6166FF"/>
<path d="M211.388 70.4902L214.524 77.058C214.524 77.058 214.055 78.0084 213.479 78.304L208.85 71.6095L211.388 70.4902Z" fill="#FFCCD3"/>
<path d="M230.184 60.3125C230.184 60.3125 230.163 61.0305 230.461 61.474" stroke="#0C3956" stroke-width="0.2567" stroke-miterlimit="10" stroke-linecap="round" stroke-linejoin="round"/>
<path d="M210.791 69.2649C210.791 69.2649 210.237 69.1171 210.023 69.2649" stroke="#0C3956" stroke-width="0.2567" stroke-miterlimit="10" stroke-linecap="round" stroke-linejoin="round"/>
<path d="M212.646 65.5493L212.924 63.0996" stroke="#0C3956" stroke-width="0.2567" stroke-miterlimit="10" stroke-linecap="round" stroke-linejoin="round"/>
<path d="M225.213 62.0859L224.936 60.3965" stroke="#0C3956" stroke-width="0.2567" stroke-miterlimit="10" stroke-linecap="round" stroke-linejoin="round"/>
<path d="M214.716 76.2773C214.716 76.2773 214.311 77.9457 214.268 82.2749C214.204 86.6042 214.268 92.5596 214.268 92.5596L212.711 111.101" stroke="#0C3956" stroke-width="0.2567" stroke-miterlimit="10" stroke-linecap="round" stroke-linejoin="round"/>
<path d="M220.221 88.252C220.221 88.252 221.906 82.8879 222.013 82.2966L223.037 81.4941" stroke="#0C3956" stroke-width="0.2567" stroke-miterlimit="10" stroke-linecap="round" stroke-linejoin="round"/>
<path d="M215.144 50.1752C215.144 50.1752 214.674 49.7106 214.418 49.8795C214.162 50.0485 214.29 51.2522 215.144 51.5479C215.144 51.5479 215.762 54.779 218.194 55.0113C220.626 55.2436 220.754 51.4423 220.754 51.4423C220.754 51.4423 221.074 51.6323 221.266 51.1044C221.458 50.5764 220.882 49.436 220.712 49.6261C220.712 49.6261 220.69 45.7192 218.045 45.7403C215.4 45.7614 214.888 48.9081 215.144 50.1752Z" fill="#FFCCD3"/>
<path d="M214.758 49.8998C214.758 49.8998 214.353 49.2874 214.758 47.4923C215.164 45.6973 215.974 44.8948 217.894 45.1271C219.814 45.3594 220.604 46.1407 220.902 47.7035C221.201 49.2663 220.668 50.3644 220.668 50.3644C220.668 50.3644 220.604 49.6886 219.836 48.4638C219.089 47.26 217.596 47.978 217.041 47.2178C217.041 47.2178 216.337 48.7383 215.782 49.1184C215.228 49.4986 215.313 50.4911 215.313 50.4911L214.758 49.8998Z" fill="#0C3956"/>
<path d="M216.061 53.7012C216.061 53.7012 217.021 54.926 218.173 55.0105C219.325 55.095 219.815 54.3136 219.815 54.3136" stroke="#0C3956" stroke-width="0.2567" stroke-miterlimit="10" stroke-linecap="round" stroke-linejoin="round"/>
<path d="M214.353 48.9077C214.439 49.14 218.236 47.5984 221.18 48.0841C221.18 48.0841 220.775 45.4021 219.815 44.7474C218.855 44.0928 217.916 44.0716 217.916 44.0716C217.916 44.0716 217.447 43.5648 216.636 43.8393C215.825 44.1139 215.847 44.5785 215.847 44.5785C215.847 44.5785 213.457 46.3524 214.353 48.9077Z" fill="#FAE625" stroke="#FAE625" stroke-width="0.9467" stroke-miterlimit="10" stroke-linecap="round" stroke-linejoin="round"/>
<path d="M214.354 48.6969C214.226 48.3379 214.162 47.9789 214.162 47.6621C214.141 48.0422 214.205 48.4646 214.354 48.9081C214.44 49.1404 218.237 47.5988 221.181 48.0845C221.181 48.0845 221.16 48 221.138 47.8733C218.216 47.4087 214.44 48.9292 214.354 48.6969Z" fill="#FAD225"/>
<path d="M215.847 44.5781C215.847 44.5781 216.402 45.0005 216.402 45.4651L215.698 44.7048C215.677 44.7048 215.613 44.6837 215.847 44.5781Z" fill="#FAD225"/>
<path d="M217.916 44.0505C217.916 44.0505 218.385 44.5573 218.321 45.0008C218.321 45.0008 218.471 44.5784 218.193 44.0505C218.193 44.0505 217.98 43.9237 217.916 44.0505Z" fill="#FAD225"/>
<path d="M214.567 111.123H211.985L209.105 112.517H214.375C214.588 112.517 214.759 112.327 214.716 112.116L214.567 111.123Z" fill="#0C3956"/>
<path d="M220.433 111.123H223.015L225.895 112.517H220.625C220.412 112.517 220.241 112.327 220.284 112.116L220.433 111.123Z" fill="#0C3956"/>
<path d="M233.789 52.3493C233.789 52.3493 233.896 50.9343 233.384 51.0822C233.384 51.0822 233.17 50.512 232.744 50.9555C232.744 50.9555 232.338 50.512 231.976 50.9343C231.976 50.9343 231.378 50.5542 231.208 50.9132C231.058 51.2722 231.101 52.4126 231.314 52.476C231.528 52.5182 231.506 52.1381 231.506 52.1381C231.506 52.1381 231.485 53.0462 231.741 53.0673C231.976 53.0884 231.997 52.7928 231.997 52.7928C231.997 52.7928 232.061 53.1095 232.232 53.0673C232.424 53.0462 232.445 52.7294 232.445 52.7294C232.445 52.7294 232.552 52.8984 232.808 52.7294C233.064 52.5605 233.085 52.0959 233.085 52.0959L233.789 52.3493Z" fill="#FFCCD3"/>
<path d="M231.975 50.9336C231.975 50.9336 231.847 51.1025 231.741 51.3137C231.634 51.5249 231.527 52.1373 231.527 52.1373" stroke="#0C3956" stroke-width="0.2172" stroke-miterlimit="10" stroke-linecap="round" stroke-linejoin="round"/>
<path d="M232.018 52.7713C232.018 52.7713 232.188 50.9762 232.743 50.9551" stroke="#0C3956" stroke-width="0.2172" stroke-miterlimit="10" stroke-linecap="round" stroke-linejoin="round"/>
<path d="M232.467 52.7079C232.467 52.7079 232.744 51.0185 233.363 51.0818" stroke="#0C3956" stroke-width="0.2172" stroke-miterlimit="10" stroke-linecap="round" stroke-linejoin="round"/>
<path d="M233.084 52.0756C233.084 52.0756 233.361 51.6533 233.489 51.7377" stroke="#0C3956" stroke-width="0.2172" stroke-miterlimit="10" stroke-linecap="round" stroke-linejoin="round"/>
<path d="M231.248 73.8139L199.885 71.5723L199.467 77.3015L230.83 79.5432L231.248 73.8139Z" fill="#C97F89"/>
<g opacity="0.33">
<path d="M201.084 72.7507C201.276 72.5184 201.532 72.3706 201.809 72.3073C202.087 72.2228 202.385 72.2228 202.663 72.2439C202.94 72.2861 203.239 72.3495 203.495 72.4551C203.772 72.5607 204.028 72.6874 204.284 72.8141C205.329 73.2998 206.46 73.5744 207.612 73.7433C209.916 74.0601 212.241 73.9967 214.545 73.9756C215.697 73.9967 216.871 74.0812 218.001 74.3135C218.577 74.4402 219.132 74.5669 219.665 74.7781C219.943 74.8837 220.199 75.0104 220.455 75.1371C220.711 75.2849 220.945 75.4539 221.116 75.6862C221.201 75.7918 221.265 75.9396 221.265 76.0874C221.265 76.2353 221.201 76.3831 221.095 76.4676C220.86 76.6365 220.561 76.6999 220.284 76.7843C219.729 76.911 219.153 76.9955 218.577 77.0589C217.425 77.1856 216.273 77.2701 215.121 77.3123C213.969 77.3545 212.796 77.3545 211.644 77.3123C210.492 77.2701 209.319 77.1856 208.188 76.9322C207.911 76.8688 207.633 76.7843 207.356 76.6787C207.228 76.6154 207.1 76.552 206.972 76.4676C206.865 76.3831 206.737 76.2775 206.695 76.1297C206.652 75.9818 206.695 75.8129 206.78 75.7073C206.865 75.5806 206.993 75.5172 207.121 75.4328C207.377 75.3061 207.655 75.2216 207.953 75.1582C208.529 75.0315 209.105 74.9682 209.681 74.9259C210.257 74.8837 210.833 74.8837 211.409 74.8837C212.561 74.9048 213.735 74.9682 214.865 75.1371C215.143 75.1793 215.441 75.2427 215.719 75.3061C215.868 75.3483 215.996 75.3905 216.124 75.4539C216.188 75.4961 216.273 75.5384 216.273 75.6228C216.252 75.7073 216.209 75.7707 216.167 75.8129C215.932 76.003 215.655 76.0874 215.377 76.1719C215.1 76.2564 214.823 76.3197 214.524 76.362C213.948 76.4676 213.372 76.5309 212.796 76.5732C212.22 76.6154 211.644 76.6154 211.068 76.552C210.919 76.5309 210.791 76.5098 210.641 76.4676C210.492 76.4253 210.364 76.3831 210.236 76.2986C210.172 76.2564 210.129 76.2141 210.087 76.1508C210.044 76.0874 210.023 76.003 210.087 75.9396C210.193 75.834 210.343 75.7918 210.471 75.7707C211.047 75.6651 211.623 75.6651 212.199 75.6862C211.623 75.6862 211.047 75.6651 210.471 75.7918C210.343 75.834 210.172 75.8551 210.087 75.9607C210.044 76.0241 210.044 76.0874 210.087 76.1508C210.129 76.2141 210.172 76.2564 210.236 76.2986C210.343 76.3831 210.492 76.4253 210.641 76.4676C210.791 76.5098 210.919 76.5309 211.068 76.552C211.644 76.6154 212.22 76.5943 212.796 76.552C213.372 76.5098 213.948 76.4464 214.524 76.3197C214.801 76.2564 215.1 76.193 215.356 76.1085C215.633 76.0241 215.911 75.9396 216.124 75.7495C216.188 75.7073 216.209 75.6439 216.231 75.5806C216.231 75.5172 216.167 75.475 216.103 75.4539C215.975 75.3905 215.847 75.3483 215.697 75.3061C215.42 75.2427 215.143 75.1793 214.844 75.1371C213.692 74.9682 212.54 74.9048 211.388 74.8837C210.236 74.8837 209.063 74.9048 207.932 75.1582C207.655 75.2216 207.377 75.3061 207.121 75.4328C206.993 75.4961 206.865 75.5806 206.78 75.6862C206.695 75.7918 206.673 75.9396 206.695 76.0663C206.737 76.193 206.844 76.2986 206.951 76.3831C207.057 76.4676 207.185 76.5309 207.335 76.5943C207.591 76.6999 207.868 76.7843 208.167 76.8477C209.297 77.1011 210.449 77.1856 211.601 77.2278C212.753 77.2701 213.905 77.2701 215.079 77.2489C216.231 77.2067 217.383 77.1433 218.535 77.0166C219.111 76.9533 219.687 76.8688 220.241 76.7421C220.519 76.6787 220.817 76.6154 221.031 76.4253C221.137 76.3197 221.201 76.193 221.201 76.0452C221.201 75.8974 221.137 75.7707 221.052 75.6651C220.881 75.4328 220.625 75.2638 220.391 75.116C220.135 74.9682 219.879 74.8626 219.601 74.757C219.068 74.5458 218.492 74.398 217.937 74.2924C216.807 74.0601 215.655 73.9756 214.481 73.9545C212.177 73.9756 209.852 74.039 207.548 73.7011C206.396 73.5321 205.265 73.2576 204.22 72.7719C203.964 72.6451 203.708 72.5184 203.431 72.4128C203.153 72.3073 202.876 72.2439 202.599 72.2017C202.321 72.1594 202.023 72.1805 201.745 72.2439C201.532 72.3917 201.276 72.5396 201.084 72.7507Z" fill="#0C3956"/>
<path d="M200.893 75.4743C201.341 75.5798 201.81 75.6643 202.279 75.7066C202.749 75.7488 203.218 75.7277 203.666 75.6432C203.901 75.601 204.114 75.5165 204.306 75.4109C204.498 75.3053 204.69 75.1575 204.882 75.0308C205.074 74.9041 205.309 74.8196 205.522 74.7774C205.757 74.7351 205.991 74.714 206.226 74.7351V74.7562C205.778 74.4606 205.287 74.2494 204.775 74.0804C204.263 73.9115 203.73 73.827 203.197 73.827C202.941 73.827 202.663 73.8481 202.407 73.9537C202.279 73.996 202.173 74.0804 202.109 74.186C202.045 74.2916 202.045 74.4395 202.13 74.545C202.301 74.7562 202.578 74.8196 202.834 74.8407C203.09 74.8618 203.367 74.7774 203.581 74.5873C203.389 74.7774 203.111 74.8618 202.834 74.8407C202.578 74.8196 202.279 74.7562 202.109 74.545C202.023 74.4395 202.002 74.2705 202.087 74.1438C202.173 74.0171 202.279 73.9537 202.407 73.8904C202.663 73.7848 202.941 73.7637 203.197 73.7637C203.73 73.7848 204.263 73.8693 204.775 74.0382C205.287 74.2072 205.778 74.4395 206.226 74.7351C206.226 74.7351 206.226 74.7351 206.226 74.7562C205.991 74.7562 205.757 74.7562 205.522 74.7985C205.287 74.8407 205.074 74.9252 204.882 75.0519C204.69 75.1786 204.498 75.3264 204.306 75.432C204.114 75.5587 203.879 75.6432 203.645 75.6854C203.175 75.791 202.706 75.791 202.237 75.7488C201.81 75.6854 201.341 75.601 200.893 75.4743Z" fill="#0C3956"/>
<path d="M205.715 76.6147C205.331 76.5514 204.925 76.5725 204.541 76.5936C204.349 76.5936 204.136 76.6147 203.944 76.6147L203.347 76.657C202.941 76.6781 202.557 76.6781 202.152 76.6359C201.768 76.5936 201.363 76.5092 201 76.3613C201.384 76.488 201.768 76.5514 202.152 76.5936C202.536 76.6359 202.941 76.657 203.325 76.657C203.731 76.6359 204.115 76.5936 204.52 76.5725C204.712 76.5514 204.925 76.5514 205.117 76.5725C205.331 76.5514 205.523 76.5514 205.715 76.6147Z" fill="#0C3956"/>
<path d="M219.346 77.6929C219.431 77.6295 219.538 77.5873 219.623 77.545C219.73 77.5028 219.836 77.4817 219.943 77.4817C220.156 77.4606 220.37 77.4395 220.583 77.4395C221.01 77.4395 221.436 77.5028 221.863 77.5873C222.29 77.6718 222.695 77.7985 223.122 77.8829C223.548 77.9885 223.975 78.0519 224.402 78.1152C225.255 78.2208 226.108 78.2842 226.983 78.2842C227.836 78.2842 228.711 78.2419 229.543 78.0941C229.116 78.1997 228.69 78.2419 228.263 78.2842C227.836 78.3264 227.41 78.3475 226.962 78.3264C226.108 78.3264 225.234 78.2631 224.38 78.1364C224.167 78.1152 223.954 78.073 223.74 78.0308C223.527 77.9885 223.314 77.9463 223.1 77.9041C222.674 77.8196 222.268 77.6929 221.842 77.6295C221.415 77.545 220.988 77.4817 220.562 77.4817C220.348 77.4606 220.135 77.4817 219.922 77.5028C219.751 77.5239 219.538 77.5662 219.346 77.6929Z" fill="#0C3956"/>
<path d="M229.052 77.1019C228.967 76.9752 228.818 76.933 228.668 76.8907C228.519 76.8696 228.37 76.8696 228.22 76.8696C227.922 76.8907 227.623 76.9541 227.346 76.9963C226.748 77.1019 226.151 77.0174 225.554 76.933C224.956 76.8485 224.38 76.7007 223.804 76.5528C223.228 76.405 222.652 76.2361 222.076 76.046C222.076 76.046 222.076 76.046 222.076 76.0249C223.036 75.5814 224.06 75.328 225.127 75.2646C225.66 75.2224 226.172 75.2435 226.706 75.2646C227.239 75.2857 227.751 75.3491 228.284 75.4547C228.412 75.4758 228.54 75.518 228.668 75.5603C228.732 75.5814 228.796 75.6236 228.839 75.6659C228.86 75.687 228.882 75.7081 228.903 75.7503C228.924 75.7926 228.903 75.8348 228.882 75.8559C228.796 75.9826 228.668 76.0249 228.54 76.0671C228.412 76.1094 228.284 76.1516 228.156 76.1727C227.644 76.2783 227.111 76.3205 226.578 76.3205C226.322 76.3205 226.044 76.3205 225.788 76.2994C225.532 76.2783 225.255 76.2572 225.02 76.1516C224.956 76.1305 224.892 76.0671 224.892 76.0038C224.871 75.9404 224.914 75.8559 224.978 75.8348C225.084 75.7715 225.234 75.7503 225.362 75.7292C225.618 75.687 225.895 75.687 226.151 75.7081C225.895 75.7081 225.618 75.7081 225.362 75.7503C225.234 75.7715 225.106 75.7926 224.999 75.8559C224.935 75.8982 224.914 75.9404 224.914 76.0038C224.935 76.0671 224.978 76.1094 225.042 76.1305C225.276 76.2361 225.554 76.2572 225.81 76.2783C226.066 76.2994 226.343 76.2994 226.599 76.2994C227.132 76.2783 227.644 76.2361 228.156 76.1516C228.284 76.1305 228.412 76.0882 228.54 76.046C228.668 76.0038 228.796 75.9404 228.86 75.8559C228.903 75.8137 228.86 75.7503 228.818 75.7081C228.775 75.6659 228.711 75.6447 228.647 75.6236C228.519 75.5814 228.391 75.5392 228.263 75.518C227.751 75.4124 227.218 75.3702 226.706 75.328C226.172 75.3069 225.66 75.2857 225.127 75.328C224.594 75.3491 224.082 75.4336 223.57 75.5603C223.058 75.687 222.567 75.8559 222.098 76.0882V76.0671C223.228 76.4261 224.402 76.7429 225.575 76.933C226.172 77.0174 226.77 77.1019 227.346 77.0174C227.644 76.9541 227.943 76.8907 228.242 76.8907C228.391 76.8907 228.54 76.8907 228.69 76.9118C228.818 76.933 228.967 76.9752 229.052 77.1019C229.052 77.123 229.052 77.123 229.052 77.1019Z" fill="#0C3956"/>
<path d="M221.992 74.2075C222.205 74.1442 222.44 74.1442 222.653 74.123C222.888 74.123 223.101 74.1442 223.315 74.1653C223.528 74.1864 223.763 74.2286 223.976 74.2709C224.851 74.4187 225.747 74.4821 226.643 74.5032L229.309 74.5665C229.416 74.5665 229.523 74.5665 229.651 74.5877C229.715 74.6088 229.757 74.6088 229.821 74.6299L229.907 74.6721L229.971 74.7355C230.141 74.8833 230.227 75.1156 230.269 75.3268C230.312 75.538 230.312 75.7703 230.291 75.9815C230.269 76.1926 230.205 76.4249 230.056 76.5939C230.205 76.4249 230.248 76.1926 230.269 75.9815C230.291 75.7703 230.291 75.538 230.227 75.3268C230.184 75.1156 230.099 74.9044 229.928 74.7566C229.757 74.6088 229.523 74.6088 229.309 74.6088C228.413 74.5665 227.517 74.5665 226.643 74.5243C225.747 74.4821 224.851 74.4187 223.976 74.292C223.528 74.2286 223.101 74.1442 222.653 74.1442C222.44 74.1442 222.205 74.1653 221.992 74.2075Z" fill="#0C3956"/>
<path d="M208.273 72.9199L210.087 73.1311C210.684 73.1945 211.281 73.2789 211.9 73.3001C212.497 73.3423 213.116 73.3845 213.713 73.4056C214.311 73.4268 214.929 73.4479 215.527 73.4479C214.929 73.4901 214.311 73.4901 213.713 73.4479C213.116 73.4268 212.497 73.3845 211.9 73.3212L210.087 73.1522C209.788 73.1311 209.489 73.0889 209.191 73.0466C208.871 73.0044 208.572 72.9622 208.273 72.9199Z" fill="#0C3956"/>
</g>
<path d="M213.287 78.3046C213.287 78.3046 213.543 79.6984 214.012 79.4239C214.012 79.4239 214.375 79.9096 214.652 79.3817C214.652 79.3817 215.164 79.7196 215.399 79.2127C215.399 79.2127 216.082 79.4239 216.146 79.0438C216.21 78.6425 215.847 77.5655 215.634 77.5655C215.42 77.5655 215.527 77.9245 215.527 77.9245C215.527 77.9245 215.314 77.0375 215.079 77.1009C214.844 77.1431 214.908 77.4388 214.908 77.4388C214.908 77.4388 214.78 77.1431 214.61 77.2276C214.439 77.3121 214.503 77.6077 214.503 77.6077C214.503 77.6077 214.354 77.481 214.162 77.7133C213.97 77.9456 214.055 78.3891 214.055 78.3891L213.287 78.3046Z" fill="#FFCCD3"/>
<path d="M215.398 79.2124C215.398 79.2124 215.484 79.0223 215.526 78.79C215.569 78.5577 215.505 77.9453 215.505 77.9453" stroke="#0C3956" stroke-width="0.2172" stroke-miterlimit="10" stroke-linecap="round" stroke-linejoin="round"/>
<path d="M214.887 77.4395C214.887 77.4395 215.186 79.2134 214.652 79.3823" stroke="#0C3956" stroke-width="0.2172" stroke-miterlimit="10" stroke-linecap="round" stroke-linejoin="round"/>
<path d="M214.46 77.6074C214.46 77.6074 214.63 79.318 214.012 79.4236" stroke="#0C3956" stroke-width="0.2172" stroke-miterlimit="10" stroke-linecap="round" stroke-linejoin="round"/>
<path d="M214.012 78.3887C214.012 78.3887 213.862 78.8533 213.713 78.8322" stroke="#0C3956" stroke-width="0.2172" stroke-miterlimit="10" stroke-linecap="round" stroke-linejoin="round"/>
<path d="M290.194 66.2453C290.088 67.0689 289.896 68.2515 289.597 69.2229C289.106 70.849 288.488 72.7497 288.21 73.6789C287.933 74.6081 287.762 76.2131 287.762 76.2131C287.762 76.2131 287.122 76.4665 286.205 76.1497C286.205 76.1497 286.418 72.454 286.653 70.1099C286.781 68.885 287.186 66.2453 287.57 64.6191C288.552 64.8937 289.64 66.1397 290.194 66.2453Z" fill="#FFCCD3"/>
<path d="M304.894 58.8765C305.086 58.8765 307.944 62.7411 307.944 62.7411C307.944 62.7411 308.328 61.2628 308.542 60.228C308.755 59.2144 309.203 57.2715 309.203 57.2715L310.547 57.5671C310.547 57.5671 310.44 66.1623 309.246 66.3735C308.051 66.5847 304.232 63.0579 304.232 63.0579L304.894 58.8765Z" fill="#FFCCD3"/>
<path d="M307.944 62.7617C307.944 62.7617 307.837 63.0574 307.944 63.4164" stroke="#0C3956" stroke-width="0.2567" stroke-miterlimit="10" stroke-linecap="round" stroke-linejoin="round"/>
<path d="M309.438 48.0214L310.376 44.748" stroke="#0C3956" stroke-width="0.91" stroke-miterlimit="10" stroke-linecap="round" stroke-linejoin="round"/>
<path d="M306.216 55.3489C306.237 55.5179 306.301 55.6868 306.429 55.8135C306.664 56.0458 307.09 56.3837 307.517 56.2359C308.136 56.0247 308.477 55.6446 308.818 55.7713C309.16 55.898 311.4 58.0943 311.997 58.0099C312.594 57.9254 312.658 56.1092 312.125 55.539L309.97 54.1663C309.97 54.1663 310.162 53.4694 309.992 53.3427C309.842 53.216 309.245 52.9837 309.245 52.9837C309.245 52.9837 310.333 48.1054 310.141 47.8942C310.056 47.7886 309.778 47.7041 309.501 47.6408C309.16 47.5563 308.818 47.7041 308.648 47.9998C307.922 49.3091 306.002 53.0682 306.216 55.3489Z" fill="#FAE625"/>
<path d="M309.971 54.1455L309.139 53.7443L309.245 52.9629" stroke="#0C3956" stroke-width="0.1732" stroke-miterlimit="10" stroke-linecap="round" stroke-linejoin="round"/>
<path d="M309.373 56.1519C309.373 56.1519 309.522 54.906 309.778 54.9904C310.034 55.0749 309.736 56.4687 309.736 56.4687" stroke="#0C3956" stroke-width="0.1732" stroke-miterlimit="10" stroke-linecap="round" stroke-linejoin="round"/>
<path d="M310.227 56.8707C310.227 56.8707 310.376 55.6247 310.632 55.7092C310.888 55.7937 310.589 57.1875 310.589 57.1875" stroke="#0C3956" stroke-width="0.1732" stroke-miterlimit="10" stroke-linecap="round" stroke-linejoin="round"/>
<path d="M307.816 49.627C307.88 49.6692 308.904 50.2605 309.822 50.1549" stroke="#0C3956" stroke-width="0.1732" stroke-miterlimit="10" stroke-linecap="round" stroke-linejoin="round"/>
<path d="M308.861 47.7461C308.861 47.7461 309.459 48.1051 310.163 47.9995" stroke="#0C3956" stroke-width="0.1732" stroke-miterlimit="10" stroke-linecap="round" stroke-linejoin="round"/>
<path d="M308.008 49.7108C308.008 49.7108 308.69 48.1692 308.968 47.7891" stroke="#0C3956" stroke-width="0.1732" stroke-miterlimit="10" stroke-linecap="round" stroke-linejoin="round"/>
<path d="M309.629 50.1544C309.629 50.1544 309.928 48.7395 309.992 48.0215" stroke="#0C3956" stroke-width="0.1732" stroke-miterlimit="10" stroke-linecap="round" stroke-linejoin="round"/>
<path d="M308.393 49.9008C308.393 49.9008 309.075 48.2113 309.225 47.8945" stroke="#0C3956" stroke-width="0.1732" stroke-miterlimit="10" stroke-linecap="round" stroke-linejoin="round"/>
<path d="M308.967 50.0692C308.967 50.0692 309.457 48.5276 309.585 47.9785" stroke="#0C3956" stroke-width="0.1732" stroke-miterlimit="10" stroke-linecap="round" stroke-linejoin="round"/>
<path d="M306.215 55.3496C306.215 55.3496 307.09 55.3707 307.516 56.2366" stroke="#0C3956" stroke-width="0.1732" stroke-miterlimit="10" stroke-linecap="round" stroke-linejoin="round"/>
<path d="M309.203 57.5038C309.203 57.5038 309.011 56.9759 308.648 56.4479C308.285 55.92 308.136 55.2442 308.243 55.0964C308.349 54.9485 308.648 54.2727 308.819 54.3783C308.989 54.4839 308.84 55.1597 308.776 55.3498C308.712 55.5398 309.437 56.279 309.693 56.4479C309.971 56.6169 310.76 57.1026 310.803 57.3138C310.824 57.525 310.504 57.6728 310.504 57.6728L309.203 57.5038Z" fill="#FFCCD3"/>
<path d="M296.573 63.3519C296.573 63.3519 299.197 63.7742 301.245 62.7394C301.245 62.7394 300.135 58.0934 299.325 56.3406C298.813 56.2139 298.386 56.066 298.258 55.8337C298.215 55.7704 298.194 55.707 298.173 55.6226C297.81 56.066 297.17 56.594 296.274 56.4884C295.143 56.3617 294.397 55.7915 293.906 55.3691C293.863 55.4536 293.799 55.517 293.735 55.5803C293.543 55.7493 292.925 56.0027 292.221 56.3195C293.394 57.2064 295.741 59.5083 296.573 63.3519Z" fill="#CECFFF"/>
<path d="M290.301 66.8156C290.472 66.4355 290.643 66.0131 290.813 65.5485C290.813 65.5485 292.371 69.033 292.413 70.1734C292.413 70.3846 292.413 70.6169 292.413 70.9126C293.885 70.3846 295.4 68.0616 295.357 63.9224C295.336 60.1211 292.627 57.8403 291.24 56.7422C290.472 57.1223 289.768 57.5658 289.512 58.0304C289.064 58.854 288.083 61.9373 287.357 64.3237C287.976 65.105 289.107 66.3299 290.301 66.8156Z" fill="#CECFFF"/>
<path d="M298.173 55.6243C297.96 54.9907 297.981 53.8926 297.981 53.8926L294.226 53.5547C294.226 53.5547 294.269 54.7796 293.928 55.3709C294.418 55.7932 295.144 56.3634 296.296 56.4901C297.17 56.5957 297.81 56.0678 298.173 55.6243Z" fill="#FFCCD3"/>
<path d="M301.459 56.7421C301.181 56.6576 300.755 56.5942 300.307 56.5098C300.776 57.9458 302.483 63.1409 302.931 64.7881C303.037 65.1683 303.101 65.5273 303.165 65.8652C303.315 64.1124 303.421 62.6552 303.357 62.0639C303.357 62.0639 303.677 62.7608 304.467 63.4155C305.107 62.1484 305.875 61.1769 306.216 60.2055C304.659 58.2837 301.949 56.8899 301.459 56.7421Z" fill="#CECFFF"/>
<path d="M303.655 83.3303C303.378 80.4793 302.61 76.4668 302.567 73.8693C302.546 72.2643 302.93 68.7164 303.186 65.8865C303.122 65.5486 303.058 65.1896 302.951 64.8095C302.503 63.1623 300.796 57.9672 300.327 56.5311C300.007 56.4678 299.666 56.4255 299.346 56.3411C300.156 58.0939 301.266 62.7399 301.266 62.7399C299.218 63.7747 296.594 63.3523 296.594 63.3523C295.783 59.4877 293.415 57.2069 292.263 56.2988C291.943 56.4467 291.602 56.5945 291.282 56.7634C292.647 57.8616 295.356 60.1424 295.399 63.9437C295.42 68.0828 293.927 70.4059 292.455 70.9338C292.434 72.2432 292.284 74.1649 292.135 74.9041C292.092 75.073 292.071 75.3053 292.007 75.601C291.9 76.2979 291.772 77.3115 291.666 78.3252C291.58 79.1488 291.495 79.9936 291.474 80.6905C291.431 81.5986 291.559 84.8085 291.687 87.8918C291.879 92.3267 291.687 96.7404 291.111 101.133L290.215 111.101H292.775L296.508 94.7975L298.386 88.2297V94.3963L298.599 111.101H301.287L303.122 94.3963C303.1 94.4174 303.911 86.1601 303.655 83.3303ZM291.623 78.3252C291.623 78.3252 291.708 78.2408 291.836 78.0929C291.73 78.2408 291.623 78.3252 291.623 78.3252ZM291.943 78.0085C292.007 77.9451 292.071 77.8817 292.135 77.8184C292.05 77.8817 291.986 77.9451 291.943 78.0085Z" fill="#6166FF"/>
<path d="M290.812 65.5493L291.09 63.0996" stroke="#0C3956" stroke-width="0.2567" stroke-miterlimit="10" stroke-linecap="round" stroke-linejoin="round"/>
<path d="M303.357 62.0859L303.08 60.3965" stroke="#0C3956" stroke-width="0.2567" stroke-miterlimit="10" stroke-linecap="round" stroke-linejoin="round"/>
<path d="M292.882 76.2773C292.882 76.2773 292.477 77.9457 292.434 82.2749C292.37 86.6042 292.434 92.5596 292.434 92.5596L290.877 111.101" stroke="#0C3956" stroke-width="0.2567" stroke-miterlimit="10" stroke-linecap="round" stroke-linejoin="round"/>
<path d="M298.365 88.252C298.365 88.252 300.051 82.8879 300.157 82.2966L301.181 81.4941" stroke="#0C3956" stroke-width="0.2567" stroke-miterlimit="10" stroke-linecap="round" stroke-linejoin="round"/>
<path d="M293.288 50.1752C293.288 50.1752 292.818 49.7106 292.562 49.8795C292.285 50.0485 292.434 51.2522 293.288 51.5479C293.288 51.5479 293.906 54.779 296.338 55.0113C298.77 55.2436 298.898 51.4423 298.898 51.4423C298.898 51.4423 299.218 51.6323 299.41 51.1044C299.602 50.5764 299.026 49.436 298.856 49.6261C298.856 49.6261 298.834 45.7192 296.189 45.7403C293.565 45.7614 293.053 48.9081 293.288 50.1752Z" fill="#FFCCD3"/>
<path d="M292.903 49.8998C292.903 49.8998 292.497 49.2874 292.903 47.4923C293.308 45.6973 294.119 44.8948 296.039 45.1271C297.959 45.3594 298.748 46.1407 299.047 47.7035C299.345 49.2663 298.812 50.3644 298.812 50.3644C298.812 50.3644 298.748 49.6886 297.98 48.4638C297.233 47.26 295.74 47.978 295.185 47.2178C295.185 47.2178 294.481 48.7383 293.927 49.1184C293.372 49.4986 293.457 50.4911 293.457 50.4911L292.903 49.8998Z" fill="#0C3956"/>
<path d="M294.227 53.7012C294.227 53.7012 295.187 54.926 296.339 55.0105C297.491 55.095 297.981 54.3136 297.981 54.3136" stroke="#0C3956" stroke-width="0.2567" stroke-miterlimit="10" stroke-linecap="round" stroke-linejoin="round"/>
<path d="M292.499 48.9077C292.584 49.14 296.381 47.5984 299.325 48.0841C299.325 48.0841 298.92 45.4021 297.96 44.7474C297 44.0928 296.061 44.0716 296.061 44.0716C296.061 44.0716 295.592 43.5648 294.781 43.8393C293.971 44.1139 293.992 44.5785 293.992 44.5785C293.992 44.5785 291.624 46.3524 292.499 48.9077Z" fill="#FAE625" stroke="#FAE625" stroke-width="0.9467" stroke-miterlimit="10" stroke-linecap="round" stroke-linejoin="round"/>
<path d="M292.499 48.6969C292.371 48.3379 292.307 47.9789 292.307 47.6621C292.285 48.0422 292.349 48.4646 292.499 48.9081C292.584 49.1404 296.381 47.5988 299.325 48.0845C299.325 48.0845 299.304 48 299.283 47.8733C296.36 47.4087 292.584 48.9292 292.499 48.6969Z" fill="#FAD225"/>
<path d="M293.991 44.5781C293.991 44.5781 294.545 45.0005 294.545 45.4651L293.841 44.7048C293.841 44.7048 293.756 44.6837 293.991 44.5781Z" fill="#FAD225"/>
<path d="M296.061 44.0505C296.061 44.0505 296.53 44.5573 296.466 45.0008C296.466 45.0008 296.615 44.5784 296.338 44.0505C296.338 44.0505 296.125 43.9237 296.061 44.0505Z" fill="#FAD225"/>
<path d="M292.711 111.123H290.13L287.25 112.517H292.519C292.733 112.517 292.903 112.327 292.861 112.116L292.711 111.123Z" fill="#0C3956"/>
<path d="M298.599 111.123H301.181L304.061 112.517H298.791C298.578 112.517 298.407 112.327 298.45 112.116L298.599 111.123Z" fill="#0C3956"/>
<path d="M285.225 80.4155V79.1696C285.225 78.9584 285.395 78.8105 285.587 78.8105H288.425C288.638 78.8105 288.787 78.9795 288.787 79.1696V80.4155" stroke="#0C3956" stroke-width="2.5533" stroke-miterlimit="10" stroke-linecap="round" stroke-linejoin="round"/>
<path d="M294.802 83.5415H294.653L293.65 80.7328C293.586 80.5427 293.394 80.416 293.181 80.416H287.336H286.034H280.189C279.976 80.416 279.805 80.5427 279.72 80.7328L278.717 83.5415H278.546C278.354 83.5415 278.205 83.6894 278.205 83.8794V84.5552H286.013H287.314H295.122V83.8794C295.144 83.6894 294.994 83.5415 294.802 83.5415Z" fill="#FAD225"/>
<path d="M278.568 85.5469H278.739L279.741 88.3556C279.805 88.5457 279.997 88.6724 280.211 88.6724H286.056H287.357H293.203C293.416 88.6724 293.587 88.5457 293.672 88.3556L294.675 85.5469H294.845C295.037 85.5469 295.187 85.3991 295.187 85.209V84.5332H287.379H286.077H278.227V85.209C278.227 85.3991 278.376 85.5469 278.568 85.5469Z" fill="#0C3956"/>
<path d="M278.738 83.541H294.653" stroke="#0C3956" stroke-width="0.2212" stroke-miterlimit="10" stroke-linecap="round" stroke-linejoin="round"/>
<path d="M282.429 85.9279H282.002C281.853 85.9279 281.725 85.8012 281.725 85.6533V84.4074C281.725 84.2595 281.853 84.1328 282.002 84.1328H282.429C282.578 84.1328 282.706 84.2595 282.706 84.4074V85.6533C282.706 85.8012 282.578 85.9279 282.429 85.9279Z" fill="#FAD225"/>
<path d="M291.368 85.9279H290.941C290.792 85.9279 290.664 85.8012 290.664 85.6533V84.4074C290.664 84.2595 290.792 84.1328 290.941 84.1328H291.368C291.517 84.1328 291.645 84.2595 291.645 84.4074V85.6533C291.645 85.8012 291.517 85.9279 291.368 85.9279Z" fill="#FAD225"/>
<path d="M283.731 80.416L283.646 80.9229C283.603 81.1552 283.411 81.303 283.176 81.303H279.934" stroke="#0C3956" stroke-width="0.2212" stroke-miterlimit="10" stroke-linecap="round" stroke-linejoin="round"/>
<path d="M289.662 80.416L289.747 80.9229C289.79 81.1552 289.982 81.303 290.217 81.303H293.438" stroke="#0C3956" stroke-width="0.2212" stroke-miterlimit="10" stroke-linecap="round" stroke-linejoin="round"/>
<path d="M286.247 75.8131C286.247 76.3833 286.098 76.9535 285.842 77.4815C285.842 77.4815 285.842 77.4815 285.842 77.5026C285.65 77.8827 285.65 78.4107 285.949 78.8119C286.247 79.2343 286.333 79.3188 286.397 79.1709C286.397 79.1709 286.567 79.8045 287.037 79.6355C287.037 79.6355 287.378 80.0368 287.613 79.7622C287.613 79.7622 287.89 79.9734 288.103 79.8256C288.317 79.6989 288.317 78.6218 288.317 78.6218L288.957 78.7697C288.957 78.7697 288.679 78.3473 288.615 77.7982C288.53 77.2492 288.615 77.2914 288.466 76.9746C288.317 76.679 287.719 76.1721 287.741 75.9187L286.247 75.623V75.8131Z" fill="#FFCCD3"/>
<path d="M287.612 79.7828C287.612 79.7828 287.527 79.4872 287.506 79.1704C287.484 78.8325 287.484 78.4102 287.484 78.4102" stroke="#0C3956" stroke-width="0.231" stroke-miterlimit="10" stroke-linecap="round" stroke-linejoin="round"/>
<path d="M287.036 79.6358C287.036 79.6358 286.759 78.7488 286.78 78.4531" stroke="#0C3956" stroke-width="0.231" stroke-miterlimit="10" stroke-linecap="round" stroke-linejoin="round"/>
<path d="M286.396 79.1708C286.396 79.1708 286.162 78.6006 286.183 78.4316" stroke="#0C3956" stroke-width="0.231" stroke-miterlimit="10" stroke-linecap="round" stroke-linejoin="round"/>
<path d="M288.316 78.6643C288.316 78.6643 288.316 78.2208 288.273 78.1152" stroke="#0C3956" stroke-width="0.231" stroke-miterlimit="10" stroke-linecap="round" stroke-linejoin="round"/>
<path d="M250.734 102.124L239.387 69.0059L233.225 71.0747L244.572 104.193L250.734 102.124Z" fill="#C97F89"/>
<g opacity="0.33">
<path d="M238.674 70.7441C238.994 70.8286 239.25 71.0398 239.463 71.2932C239.676 71.5466 239.804 71.8423 239.89 72.1591C239.932 72.3069 239.975 72.4758 239.996 72.6237C240.018 72.7926 240.039 72.9404 240.039 73.1094C240.06 73.4262 240.039 73.7641 240.018 74.0808C239.975 75.3691 240.167 76.6573 240.508 77.9032C241.191 80.3952 242.258 82.7393 243.282 85.1046C243.772 86.3083 244.178 87.5332 244.434 88.8003C244.562 89.4338 244.647 90.0674 244.668 90.7221C244.668 91.0388 244.668 91.3767 244.626 91.6935C244.583 92.0103 244.519 92.3271 244.348 92.6227C244.263 92.7705 244.156 92.8973 244.007 92.9606C243.858 93.024 243.687 93.024 243.516 92.9606C243.367 92.8761 243.26 92.7705 243.154 92.6438C243.047 92.5171 242.94 92.3904 242.855 92.2637C242.471 91.7357 242.13 91.1867 241.81 90.6376C241.17 89.5183 240.594 88.3568 240.039 87.1953C239.484 86.0338 238.994 84.8512 238.524 83.6263C238.076 82.4226 237.65 81.1977 237.415 79.9306C237.351 79.6138 237.308 79.2971 237.33 78.9592C237.33 78.7902 237.351 78.6424 237.372 78.4734C237.415 78.3256 237.479 78.1567 237.607 78.0511C237.735 77.9455 237.927 77.9032 238.098 77.9455C238.268 77.9877 238.396 78.0722 238.524 78.1778C238.78 78.389 238.994 78.6424 239.164 78.8958C239.548 79.4238 239.847 79.994 240.146 80.5642C240.444 81.1343 240.7 81.7257 240.956 82.317C241.447 83.4996 241.895 84.7245 242.215 85.9704C242.3 86.2872 242.364 86.604 242.407 86.9208C242.428 87.0897 242.45 87.2375 242.428 87.4065C242.407 87.491 242.407 87.5754 242.322 87.6388C242.236 87.6599 242.151 87.6388 242.066 87.5966C241.767 87.4487 241.554 87.1953 241.34 86.9419C241.127 86.6885 240.935 86.435 240.764 86.1605C240.402 85.6325 240.082 85.0624 239.783 84.4922C239.484 83.922 239.228 83.3307 239.036 82.6971C238.994 82.5493 238.951 82.3803 238.93 82.2325C238.908 82.0636 238.887 81.9157 238.93 81.7468C238.951 81.6623 238.972 81.599 239.015 81.5145C239.058 81.4511 239.143 81.3878 239.228 81.43C239.314 81.4511 239.378 81.5145 239.42 81.5778C239.484 81.6412 239.527 81.7045 239.57 81.7679C239.484 81.6412 239.378 81.4934 239.228 81.4511C239.143 81.43 239.079 81.4722 239.036 81.5356C238.994 81.599 238.972 81.6834 238.951 81.7468C238.908 81.8946 238.93 82.0636 238.951 82.2325C238.972 82.4014 239.015 82.5493 239.058 82.6971C239.25 83.3095 239.506 83.9008 239.804 84.471C240.103 85.0412 240.423 85.6114 240.786 86.1394C240.978 86.4139 241.148 86.6673 241.362 86.9208C241.575 87.1531 241.788 87.4065 242.066 87.5543C242.13 87.5966 242.215 87.5966 242.279 87.5966C242.343 87.5754 242.364 87.491 242.364 87.4065C242.386 87.2587 242.364 87.0897 242.343 86.9208C242.3 86.604 242.236 86.2872 242.151 85.9704C241.831 84.7245 241.383 83.5207 240.892 82.317C240.636 81.7257 240.38 81.1343 240.082 80.5642C239.783 79.994 239.484 79.4238 239.1 78.8958C238.908 78.6424 238.716 78.389 238.46 78.1778C238.332 78.0722 238.204 77.9877 238.055 77.9455C237.906 77.9032 237.735 77.9455 237.607 78.03C237.479 78.1355 237.415 78.2834 237.372 78.4312C237.33 78.579 237.33 78.748 237.33 78.8958C237.33 79.2126 237.372 79.5294 237.415 79.8461C237.65 81.1132 238.076 82.3381 238.524 83.5418C238.972 84.7456 239.484 85.9282 240.018 87.1108C240.551 88.2723 241.148 89.4338 241.767 90.5531C242.087 91.1022 242.428 91.6724 242.812 92.1792C242.919 92.3059 243.004 92.4326 243.111 92.5594C243.218 92.6861 243.324 92.7917 243.474 92.8761C243.623 92.9395 243.794 92.9395 243.943 92.8761C244.092 92.8128 244.199 92.6861 244.284 92.5594C244.455 92.2848 244.519 91.968 244.562 91.6513C244.604 91.3345 244.604 91.0177 244.604 90.6798C244.583 90.0463 244.498 89.3916 244.37 88.7581C244.114 87.491 243.708 86.2661 243.218 85.0835C242.172 82.7182 241.106 80.3741 240.444 77.861C240.124 76.615 239.911 75.3268 239.975 74.0386C239.996 73.7218 240.018 73.405 239.996 73.0672C239.996 72.8982 239.975 72.7504 239.954 72.5814C239.932 72.4125 239.89 72.2647 239.868 72.1168C239.783 71.8001 239.634 71.5044 239.442 71.251C239.25 71.0609 238.994 70.8497 238.674 70.7441C238.674 70.7653 238.674 70.7653 238.674 70.7441Z" fill="#0C3956"/>
<path d="M235.752 71.7363C235.837 72.2432 235.965 72.75 236.115 73.2568C236.285 73.7426 236.499 74.2283 236.797 74.6507C236.947 74.8618 237.117 75.0519 237.331 75.1997C237.544 75.3476 237.757 75.4743 237.971 75.6432C238.184 75.791 238.376 75.9811 238.525 76.1923C238.675 76.4035 238.781 76.6358 238.888 76.8892H238.867C238.995 76.2979 238.995 75.7066 238.952 75.1153C238.909 74.5239 238.76 73.9326 238.547 73.3836C238.419 73.109 238.291 72.8556 238.077 72.6444C237.971 72.5388 237.843 72.4543 237.715 72.4332C237.565 72.4121 237.437 72.4755 237.352 72.6022C237.203 72.8556 237.267 73.1724 237.352 73.4469C237.459 73.7214 237.651 73.9749 237.928 74.1016C237.651 73.9749 237.437 73.7426 237.331 73.468C237.267 73.3202 237.245 73.1724 237.224 73.0245C237.224 72.8767 237.224 72.7078 237.309 72.5811C237.373 72.4544 237.544 72.3488 237.715 72.3699C237.864 72.391 237.992 72.4966 238.12 72.6022C238.333 72.8134 238.483 73.0879 238.589 73.3624C238.803 73.9115 238.952 74.5028 238.995 75.0941C239.037 75.6855 239.016 76.2979 238.888 76.8681C238.888 76.8681 238.888 76.8892 238.867 76.8681C238.76 76.6358 238.653 76.3824 238.525 76.1712C238.376 75.96 238.184 75.7699 237.971 75.6221C237.757 75.4743 237.523 75.3476 237.309 75.1997C237.096 75.0519 236.904 74.8618 236.755 74.6295C236.435 74.2072 236.243 73.7214 236.093 73.2146C235.923 72.7711 235.816 72.2432 235.752 71.7363Z" fill="#0C3956"/>
<path d="M236.669 77.1643C236.562 76.742 236.37 76.3407 236.178 75.9395C236.093 75.7283 235.986 75.5382 235.901 75.3482L235.602 74.7569C235.41 74.3556 235.24 73.9544 235.112 73.532C234.984 73.1096 234.898 72.6661 234.898 72.2227C234.941 72.6661 235.048 73.0885 235.154 73.5109C235.282 73.9332 235.432 74.3345 235.624 74.7357C235.816 75.137 236.029 75.5171 236.221 75.9184C236.328 76.1084 236.413 76.3196 236.477 76.5308C236.562 76.742 236.626 76.9532 236.669 77.1643Z" fill="#0C3956"/>
<path d="M241.491 91.6094C241.597 91.6516 241.683 91.7572 241.768 91.8417C241.853 91.9261 241.917 92.0317 241.981 92.1373C242.109 92.3485 242.216 92.5597 242.301 92.792C242.472 93.2355 242.6 93.7001 242.707 94.1647C242.813 94.6293 242.856 95.115 242.941 95.5796C243.027 96.0442 243.133 96.5088 243.261 96.9734C243.517 97.9026 243.837 98.8107 244.221 99.6766C244.605 100.564 245.011 101.429 245.544 102.232C245.267 101.852 245.011 101.429 244.797 101.007C244.563 100.585 244.371 100.141 244.179 99.6977C243.795 98.8107 243.496 97.9026 243.24 96.9734C243.176 96.7411 243.133 96.5088 243.069 96.2765C243.027 96.0442 242.963 95.8119 242.92 95.5796C242.835 95.115 242.771 94.6293 242.664 94.1647C242.557 93.7001 242.451 93.2355 242.28 92.792C242.195 92.5597 242.088 92.3485 241.981 92.1373C241.832 91.9473 241.683 91.7361 241.491 91.6094C241.469 91.6305 241.469 91.6305 241.491 91.6094C241.469 91.6094 241.469 91.6094 241.491 91.6094Z" fill="#0C3956"/>
<path d="M246.312 101.301C246.397 101.154 246.397 100.985 246.355 100.816C246.312 100.647 246.248 100.499 246.184 100.351C246.035 100.055 245.843 99.7809 245.651 99.5064C245.288 98.9362 245.117 98.2815 244.947 97.648C244.797 96.9933 244.669 96.3386 244.584 95.684C244.499 95.0293 244.413 94.3535 244.371 93.6989V93.6777C245.245 94.4591 245.971 95.4094 246.504 96.4654C246.76 96.9933 246.995 97.5213 247.187 98.0915C247.379 98.6405 247.571 99.2107 247.677 99.7809C247.699 99.9288 247.72 100.077 247.72 100.224C247.72 100.309 247.72 100.372 247.699 100.457C247.677 100.499 247.677 100.541 247.635 100.562C247.592 100.583 247.549 100.605 247.507 100.605C247.336 100.562 247.229 100.457 247.144 100.351C247.037 100.246 246.952 100.119 246.867 100.013C246.525 99.5275 246.269 98.9996 246.013 98.4716C245.885 98.1971 245.779 97.9225 245.693 97.648C245.608 97.3734 245.501 97.0778 245.523 96.7821C245.523 96.7188 245.544 96.6343 245.608 96.5921C245.672 96.5498 245.757 96.5709 245.821 96.6132C245.949 96.6977 246.035 96.8244 246.099 96.9511C246.248 97.2045 246.355 97.479 246.461 97.7536C246.355 97.479 246.227 97.2045 246.077 96.9722C245.992 96.8455 245.928 96.7188 245.8 96.6343C245.736 96.5921 245.672 96.5709 245.608 96.6132C245.544 96.6554 245.523 96.7188 245.523 96.8032C245.523 97.0989 245.629 97.3734 245.715 97.648C245.821 97.9225 245.928 98.1971 246.035 98.4505C246.291 98.9784 246.547 99.5064 246.888 99.9921C246.973 100.119 247.059 100.224 247.165 100.33C247.272 100.436 247.379 100.541 247.507 100.562C247.571 100.583 247.613 100.52 247.635 100.457C247.656 100.393 247.656 100.309 247.656 100.246C247.656 100.098 247.635 99.9499 247.613 99.8232C247.507 99.253 247.315 98.6828 247.123 98.1337C246.931 97.5846 246.696 97.0355 246.44 96.5076C246.184 95.9796 245.864 95.4728 245.523 95.0082C245.16 94.5436 244.776 94.1001 244.328 93.72H244.349C244.477 95.0504 244.648 96.3598 244.968 97.648C245.117 98.2815 245.309 98.9362 245.651 99.5064C245.843 99.7809 246.035 100.055 246.163 100.351C246.227 100.499 246.291 100.668 246.333 100.816C246.419 100.985 246.419 101.154 246.312 101.301C246.333 101.301 246.333 101.301 246.312 101.301Z" fill="#0C3956"/>
<path d="M245.693 92.3477C245.928 92.411 246.12 92.6011 246.291 92.7911C246.44 92.9812 246.568 93.2135 246.653 93.4458C246.76 93.6781 246.824 93.9104 246.909 94.1427C246.973 94.375 247.037 94.6284 247.08 94.8607C247.315 95.8322 247.635 96.7614 247.997 97.6906L249.085 100.457C249.128 100.584 249.171 100.689 249.213 100.816C249.235 100.879 249.235 100.943 249.235 101.006V101.112L249.213 101.196C249.128 101.45 248.936 101.619 248.723 101.766C248.509 101.914 248.275 101.999 248.04 102.083C247.805 102.147 247.549 102.189 247.293 102.125C247.528 102.189 247.784 102.147 248.019 102.062C248.253 101.999 248.488 101.893 248.68 101.745C248.872 101.597 249.064 101.429 249.128 101.196C249.213 100.964 249.107 100.732 249.021 100.499C248.659 99.5701 248.296 98.662 247.955 97.7117C247.613 96.7825 247.272 95.8322 247.037 94.8819C246.909 94.3961 246.824 93.9104 246.611 93.4669C246.504 93.2346 246.397 93.0234 246.248 92.8123C246.12 92.6222 245.928 92.4321 245.693 92.3477Z" fill="#0C3956"/>
<path d="M241.641 78.1777L242.217 80.1206C242.409 80.7753 242.601 81.4088 242.814 82.0424C243.027 82.6759 243.262 83.3095 243.497 83.943C243.731 84.5766 243.987 85.2101 244.265 85.8226C243.966 85.2101 243.71 84.5977 243.454 83.9642C243.219 83.3306 242.985 82.6971 242.793 82.0424L242.174 80.1206C242.067 79.8038 241.982 79.4659 241.897 79.1492C241.811 78.8324 241.726 78.5156 241.641 78.1777Z" fill="#0C3956"/>
</g>
<path d="M239.826 95.8544L238.845 94.3127L238.077 93.0879L237.501 93.4469L237.714 94.1649L237.224 93.6158L236.008 94.3761C236.008 94.3761 236.562 95.6221 236.605 95.7066C236.648 95.791 235.73 94.5451 235.73 94.5451L235.09 94.9463L235.56 95.9389L234.834 95.0941L234.066 95.5798L234.152 95.7277L235.794 98.3463C235.986 98.642 236.242 98.8954 236.52 99.0644L240.146 96.8258C240.125 96.4879 240.018 96.15 239.826 95.8544Z" fill="#FFCCD3"/>
<path d="M240.168 96.8262L236.541 99.0647C237.138 99.4448 237.885 99.5504 238.568 99.3181C238.568 99.3393 238.589 99.3604 238.61 99.3815L240.914 103.056C241.085 103.331 241.448 103.394 241.704 103.246C241.981 103.077 242.045 102.718 241.896 102.465L239.592 98.7902C239.57 98.7691 239.57 98.7479 239.549 98.7268C240.018 98.22 240.253 97.502 240.168 96.8262Z" fill="#0C3956"/>
<path d="M235.559 95.9384L236.541 97.2899L235.239 94.8613L235.09 94.9458L235.559 95.9384Z" fill="#C97F89"/>
<path d="M237.715 94.1642L238.462 95.1779L237.63 93.3828L237.502 93.4462L237.715 94.1642Z" fill="#C97F89"/>
<path d="M236.605 95.7059L236.818 96.065L236.157 94.291L236.008 94.3755L236.605 95.7059Z" fill="#C97F89"/>
<path d="M248.744 89.7727L249.149 89.7305L249.341 91.5044C249.405 92.1168 249.171 92.7082 248.701 93.0883L245.587 95.6647C245.437 95.7914 245.373 95.9815 245.395 96.1504L245.48 96.8896" stroke="#0C3956" stroke-width="1.0969" stroke-miterlimit="10" stroke-linecap="round" stroke-linejoin="round"/>
<path d="M248.53 90.7238L235.602 92.0753C235.218 92.1176 234.855 91.8219 234.812 91.4418L234.77 90.9983C234.727 90.6182 235.026 90.2592 235.41 90.2169L248.338 88.8654C248.722 88.8231 249.084 89.1188 249.127 89.4989L249.17 89.9424C249.212 90.3436 248.914 90.7026 248.53 90.7238Z" fill="#0C3956"/>
<path d="M246.225 104.133C245.862 104.175 245.542 103.901 245.5 103.542L244.838 97.4176C244.796 97.0586 245.073 96.7418 245.436 96.6996C245.798 96.6574 246.118 96.9319 246.161 97.2909L246.822 103.415C246.865 103.774 246.588 104.091 246.225 104.133Z" fill="#B6CCFE"/>
<path d="M247.485 91.5888L236.797 92.7081C236.179 92.7714 235.624 92.328 235.56 91.7155L235.432 90.5963C235.368 89.9838 235.816 89.4347 236.435 89.3714L247.123 88.2521C247.741 88.1888 248.296 88.6323 248.36 89.2447L248.488 90.3639C248.552 90.9764 248.104 91.5255 247.485 91.5888Z" fill="#CECFFF"/>
<path d="M251.112 111.61C247.528 112.772 243.965 112.772 240.381 111.61V98.6016H251.112V111.61Z" fill="#B6CCFE"/>
<path d="M240.381 98.6016C240.381 98.6016 241.213 105.845 245.736 105.845C250.28 105.845 251.09 98.6016 251.09 98.6016" stroke="#0C3956" stroke-width="0.2567" stroke-miterlimit="10" stroke-linecap="round" stroke-linejoin="round"/>
<path d="M240.658 98.6016C240.509 98.6016 240.381 98.7283 240.381 98.8761C240.381 99.8475 240.402 103.163 241.042 103.142C241.789 103.121 241.469 100.84 241.938 100.861C242.216 100.882 242.216 101.178 242.301 101.368C242.45 101.727 242.706 101.621 242.856 101.347C243.048 101.03 242.984 100.65 243.09 100.312C243.154 100.08 243.474 100.038 243.602 100.249C243.666 100.333 243.666 100.439 243.688 100.544C243.73 101.094 243.538 101.621 243.56 102.171C243.581 102.403 243.624 102.699 243.794 102.889C244.221 103.311 244.541 102.656 244.648 102.34C244.818 101.854 244.818 101.347 244.84 100.84C244.84 100.692 244.797 100.185 245.01 100.122C245.373 100.016 245.565 100.861 245.672 101.072C245.864 101.474 246.312 101.474 246.354 100.988C246.376 100.692 246.482 100.333 246.717 100.143C246.909 99.9743 247.122 100.038 247.272 100.249C247.421 100.46 247.314 100.819 247.272 101.051C247.101 101.917 246.781 103.079 247.293 103.881C247.506 104.24 248.061 104.599 248.488 104.409C248.786 104.282 248.872 103.923 248.914 103.649C249.021 102.973 248.872 102.276 248.808 101.6C248.68 100.291 249.085 99.6786 249.49 100.207C249.896 100.735 249.661 101.431 250.472 101.241C251.133 101.094 251.112 99.5097 251.09 98.8761C251.09 98.7283 250.962 98.6227 250.813 98.6227H240.658V98.6016Z" fill="#FAE625" stroke="#FAE625" stroke-width="1.181" stroke-miterlimit="10"/>
<path d="M245.736 99.3189C248.693 99.3189 251.09 98.9974 251.09 98.6008C251.09 98.2043 248.693 97.8828 245.736 97.8828C242.778 97.8828 240.381 98.2043 240.381 98.6008C240.381 98.9974 242.778 99.3189 245.736 99.3189Z" fill="#CECFFF" stroke="#CECFFF" stroke-width="1.181" stroke-miterlimit="10"/>
<path d="M245.757 99.3828C248.714 99.3828 251.112 99.0803 251.112 98.707C251.112 98.3338 248.714 98.0312 245.757 98.0312C242.8 98.0312 240.402 98.3338 240.402 98.707C240.402 99.0803 242.8 99.3828 245.757 99.3828Z" fill="#FAD225" stroke="#FAD225" stroke-width="1.1544" stroke-miterlimit="10"/>
<path d="M241.447 111.842C238.695 112.75 235.943 112.729 233.191 111.842V101.832H241.447V111.842Z" fill="#CECFFF"/>
<path d="M233.191 101.832C233.191 101.832 233.831 107.407 237.33 107.407C240.829 107.407 241.469 101.832 241.469 101.832" stroke="#0C3956" stroke-width="0.2567" stroke-miterlimit="10" stroke-linecap="round" stroke-linejoin="round"/>
<path d="M237.33 102.381C239.616 102.381 241.469 102.136 241.469 101.832C241.469 101.529 239.616 101.283 237.33 101.283C235.044 101.283 233.191 101.529 233.191 101.832C233.191 102.136 235.044 102.381 237.33 102.381Z" fill="#CECFFF" stroke="#CECFFF" stroke-width="0.9099" stroke-miterlimit="10"/>
<path d="M237.33 102.445C239.604 102.445 241.448 102.208 241.448 101.917C241.448 101.625 239.604 101.389 237.33 101.389C235.056 101.389 233.213 101.625 233.213 101.917C233.213 102.208 235.056 102.445 237.33 102.445Z" fill="#B6CCFE"/>
<path d="M203.261 51.5062L172.072 51.5484C170.664 51.5484 169.533 50.4291 169.512 49.0353V41.3905C169.512 40.5458 170.216 39.8489 171.069 39.8489L204.242 39.8066C205.096 39.8066 205.8 40.5035 205.8 41.3483V48.9931C205.821 50.3658 204.669 51.5062 203.261 51.5062Z" fill="#B6CCFE"/>
<path d="M202.045 51.5066C202.045 50.0283 200.829 48.8457 199.335 48.8457L175.997 48.8668C174.503 48.8668 173.309 50.0706 173.309 51.5488" stroke="#0C3956" stroke-width="0.2364" stroke-miterlimit="10" stroke-linecap="round" stroke-linejoin="round"/>
<path d="M175.848 49.5426L199.528 49.5215" stroke="#0C3956" stroke-width="0.2364" stroke-miterlimit="10" stroke-linecap="round" stroke-linejoin="round"/>
<path d="M175.826 50.218L199.506 50.1758" stroke="#0C3956" stroke-width="0.2364" stroke-miterlimit="10" stroke-linecap="round" stroke-linejoin="round"/>
<path d="M175.805 50.8723L199.485 50.8301" stroke="#0C3956" stroke-width="0.2364" stroke-miterlimit="10" stroke-linecap="round" stroke-linejoin="round"/>
<path d="M203.41 46.0363H171.901C171.346 46.0363 170.877 45.5928 170.877 45.0226V42.0449C170.877 41.4959 171.325 41.0312 171.901 41.0312H203.41C203.965 41.0312 204.434 41.4747 204.434 42.0449V45.0226C204.434 45.5717 203.986 46.0363 203.41 46.0363Z" stroke="#0C3956" stroke-width="0.2364" stroke-miterlimit="10" stroke-linecap="round" stroke-linejoin="round"/>
<path d="M190.269 55.9606C189.714 55.8761 189.629 55.7283 189.416 54.778C189.202 53.7432 184.936 54.9258 184.936 54.9258C184.936 54.9258 185.362 56.2774 185.362 57.101C186.578 57.1855 189.138 57.2488 190.269 55.9606Z" fill="#FFCCD3"/>
<path d="M181.651 58.8127C181.672 58.4536 181.907 57.2921 182.227 56.2362C182.675 54.7579 183.102 53.5542 183.102 53.5542L181.438 53.3008C181.438 53.3008 178.963 57.6089 178.344 59.0872C177.726 60.5655 177.406 61.1146 178.622 62.5084C178.643 62.5295 178.664 62.5717 178.707 62.5928C179.091 60.1642 180.883 59.1506 181.651 58.8127Z" fill="#FFCCD3"/>
<path d="M190.141 41.0312L189.053 41.8337C189.053 41.8337 191.591 48.3382 191.783 49.6686C191.911 50.5556 191.89 52.2873 191.869 53.5333C192.722 53.2799 194.194 53.0476 195.495 53.8501C195.026 51.6538 194.322 49.2463 194.279 48.5494C194.237 47.6835 190.141 41.0312 190.141 41.0312Z" fill="#FFCCD3"/>
<path d="M191.869 53.5334C191.848 54.188 191.827 54.716 191.827 54.906C191.827 55.4974 191.08 56.0464 190.397 55.962C190.333 55.962 190.291 55.9408 190.248 55.9408C189.117 57.2291 186.557 57.1657 185.341 57.0601C185.341 57.3135 185.299 57.5247 185.171 57.6303C184.68 58.0316 183.613 59.003 182.803 59.0664C181.992 59.1297 181.629 58.9185 181.629 58.9185C181.629 58.9185 181.629 58.8763 181.629 58.8129C180.883 59.1297 179.069 60.1645 178.643 62.6142C179.88 63.9447 182.483 64.7683 182.483 64.7683L183.635 75.2641L195.389 75.4964C195.389 75.4964 195.005 68.6118 195.517 65.2751C196.029 61.9384 196.179 57.7993 195.773 55.3284C195.688 54.8638 195.603 54.3359 195.475 53.829C194.195 53.0688 192.723 53.3011 191.869 53.5334Z" fill="#CECFFF"/>
<path d="M201.876 110.996H199.081L195.945 112.517H201.684C201.919 112.517 202.089 112.305 202.068 112.094L201.876 110.996Z" fill="#0C3956"/>
<path d="M183.87 110.996H181.054L177.918 112.517H183.657C183.891 112.517 184.062 112.305 184.041 112.094L183.87 110.996Z" fill="#0C3956"/>
<path d="M182.504 64.7672L182.312 62.7188" stroke="#161B43" stroke-width="0.3066" stroke-miterlimit="10"/>
<path d="M191.742 49.436C191.742 49.436 191.934 48.9503 192.489 48.9714" stroke="#161B43" stroke-width="0.3066" stroke-miterlimit="10"/>
<path d="M197.437 91.3558C197.437 91.3558 196.093 84.5346 196.221 80.9234C196.328 77.9034 195.709 75.496 195.496 74.799L195.304 69.8574C192.957 69.3294 192.21 66.4996 192.104 65.2536L191.336 65.3169C191.208 64.4088 191.762 55.2857 191.762 55.2857C191.336 55.2646 191.186 55.8348 191.186 55.8348C190.674 57.9889 190.568 64.8523 190.568 65.3803L188.69 65.507C188.69 65.507 185.853 59.8684 183.656 58.7914L182.845 59.087C182.845 59.087 185.896 60.5442 187.73 65.5915L187.005 65.6337C186.621 68.717 183.058 69.5195 183.058 69.5195L183.613 74.4612C183.25 76.4674 182.93 78.7271 182.909 81.1557C182.845 86.2241 182.546 91.3347 182.546 91.3347L181.096 110.975H183.848L187.944 92.9819C188.2 91.8838 188.498 90.8067 188.882 89.7508L189.714 87.4278L191.357 91.3558L199.101 110.996H201.896L197.437 91.3558Z" fill="#6166FF"/>
<path d="M181.417 53.3216C181.417 53.3216 181.374 52.329 181.46 52.0334C181.524 51.7166 182.164 51.1042 182.59 51.1253C182.59 51.1253 182.91 50.534 183.188 50.6396C183.465 50.7452 183.593 51.6744 183.849 51.7166C184.084 51.7589 184.446 50.9986 184.446 50.9986C184.446 50.9986 184.638 51.9489 184.446 52.1812C184.254 52.4135 184.084 52.6458 183.806 52.857C183.529 53.0682 183.038 53.6384 183.038 53.6384L181.417 53.3216Z" fill="#FFCCD3"/>
<path d="M182.846 49.9419C182.761 50.0686 182.739 51.5046 183.315 52.4338C183.891 53.363 183.678 52.9407 184.147 54.3556C184.382 55.0947 185.001 55.5594 185.683 55.8761C186.643 56.3407 187.881 56.8687 188.649 55.7917C189.075 55.2003 189.395 55.3482 189.971 53.7221C190.526 52.0959 190.398 49.9419 189.865 49.2027C189.331 48.4636 188.073 47.2387 186.942 47.1543C185.79 47.0698 185.406 47.471 185.406 47.471C185.406 47.471 184.318 47.3232 183.721 47.9145C183.059 48.4847 182.846 49.9419 182.846 49.9419Z" fill="#0C3956"/>
<path d="M190.569 41.7909C190.313 41.3263 190.185 40.8195 190.163 40.2915C190.163 40.2915 190.163 40.2915 190.163 40.2704C190.142 39.8903 189.929 39.4679 189.502 39.2567C189.075 39.0455 188.969 39.0033 188.969 39.1511C188.969 39.1511 188.563 38.7288 188.243 39.0455C188.243 39.0455 187.795 38.8766 187.731 39.1934C187.731 39.1934 187.411 39.1511 187.305 39.3412C187.198 39.5313 187.667 40.376 187.667 40.3971C187.582 40.2493 187.411 40.1015 187.219 40.0803C187.177 40.0803 187.113 40.0803 187.07 40.1015C187.027 40.1226 187.027 40.1226 187.027 40.1648C187.027 40.2071 187.091 40.2704 187.113 40.2915C187.326 40.5872 187.539 40.904 187.774 41.1996C188.073 41.6009 188.009 41.6009 188.243 41.7909C188.499 41.9599 189.182 42.1288 189.289 42.3189L190.611 41.9176L190.569 41.7909Z" fill="#FFCCD3"/>
<path d="M187.73 39.2363C187.73 39.2363 187.922 39.4264 188.093 39.6798C188.264 39.9332 188.434 40.2711 188.434 40.2711" stroke="#0C3956" stroke-width="0.2103" stroke-miterlimit="10" stroke-linecap="round" stroke-linejoin="round"/>
<path d="M188.244 39.0879C188.244 39.0879 188.863 39.6792 188.969 39.9115" stroke="#0C3956" stroke-width="0.2103" stroke-miterlimit="10" stroke-linecap="round" stroke-linejoin="round"/>
<path d="M188.969 39.1934C188.969 39.1934 189.395 39.5524 189.459 39.6791" stroke="#0C3956" stroke-width="0.2103" stroke-miterlimit="10" stroke-linecap="round" stroke-linejoin="round"/>
<path d="M187.668 40.4395C187.668 40.4395 187.86 40.7773 187.945 40.8618" stroke="#0C3956" stroke-width="0.2103" stroke-miterlimit="10" stroke-linecap="round" stroke-linejoin="round"/>
<path d="M189.693 87.4491L191.251 84.1547L193.405 82.8242" stroke="#0C3956" stroke-width="0.2795" stroke-miterlimit="10" stroke-linecap="round" stroke-linejoin="round"/>
<path d="M184.808 74.8613C184.808 74.8613 184.168 79.7608 184.04 83.1397C183.912 86.5186 181.971 110.995 181.971 110.995" stroke="#0C3956" stroke-width="0.2795" stroke-miterlimit="10" stroke-linecap="round" stroke-linejoin="round"/>
</g>
<defs>
<clipPath id="clip0_15_277">
<rect width="144" height="88" fill="white" transform="translate(169 28)"/>
</clipPath>
</defs>
</svg>
