<svg width="55" height="15" viewBox="0 0 55 15" fill="none" xmlns="http://www.w3.org/2000/svg">
    <path d="M22.8908 9.108H23.7908C25.7588 9.108 27.0428 9.06 28.4828 8.796L28.6388 10.08C27.1508 10.356 25.8188 10.416 23.7908 10.416H22.8908V9.108ZM22.8908 2.94H27.9188V4.212H24.4868V9.6H22.8908V2.94ZM30.1028 1.956H31.6988V13.104H30.1028V1.956ZM27.3788 5.784H30.7748V7.08H27.3788V5.784ZM33.4139 10.488H43.4699V11.784H33.4139V10.488ZM37.6259 8.112H39.2219V10.8H37.6259V8.112ZM34.4699 2.664H36.0539V4.368H40.7939V2.664H42.3779V8.448H34.4699V2.664ZM36.0539 5.616V7.176H40.7939V5.616H36.0539ZM52.0969 1.956H53.7049V13.068H52.0969V1.956ZM48.8209 3.108H50.4049C50.4049 6.504 49.2529 9.288 45.3049 11.196L44.4769 9.924C47.6689 8.388 48.8209 6.372 48.8209 3.396V3.108ZM45.0649 3.108H49.5769V4.368H45.0649V3.108Z" fill="#2D8DF4"/>
    <path d="M6 8H0V6H6V0H8V6H14V8H8V14H6V8Z" fill="#2D8DF4"/>
</svg>
