<svg width="25" height="25" viewBox="0 0 25 25" fill="none" xmlns="http://www.w3.org/2000/svg">
    <mask id="mask0_1_3167" style="mask-type:alpha" maskUnits="userSpaceOnUse" x="0" y="0" width="25" height="25">
        <rect x="0.661133" y="0.561035" width="24" height="24" fill="#D9D9D9"/>
    </mask>
    <g mask="url(#mask0_1_3167)">
        <path d="M9.06111 17.2148L12.6611 13.6148L16.2611 17.2148L17.3149 16.161L13.7149 12.561L17.3149 8.96101L16.2611 7.90719L12.6611 11.5072L9.06111 7.90719L8.00728 8.96101L11.6073 12.561L8.00728 16.161L9.06111 17.2148ZM12.6628 22.061C11.3488 22.061 10.1138 21.8117 8.95768 21.313C7.80153 20.8143 6.79585 20.1376 5.94063 19.2827C5.0854 18.4279 4.40834 17.4226 3.90946 16.267C3.41057 15.1114 3.16113 13.8766 3.16113 12.5627C3.16113 11.2488 3.41047 10.0137 3.90913 8.85759C4.4078 7.70144 5.08455 6.69575 5.93938 5.84054C6.79423 4.9853 7.79947 4.30824 8.95511 3.80936C10.1107 3.31048 11.3455 3.06104 12.6594 3.06104C13.9734 3.06104 15.2084 3.31037 16.3645 3.80904C17.5207 4.3077 18.5264 4.98445 19.3816 5.83929C20.2368 6.69414 20.9139 7.69938 21.4128 8.85501C21.9116 10.0106 22.1611 11.2454 22.1611 12.5593C22.1611 13.8733 21.9118 15.1083 21.4131 16.2644C20.9144 17.4206 20.2377 18.4263 19.3828 19.2815C18.528 20.1367 17.5227 20.8138 16.3671 21.3127C15.2115 21.8115 13.9767 22.061 12.6628 22.061ZM12.6611 20.561C14.8944 20.561 16.7861 19.786 18.3361 18.236C19.8861 16.686 20.6611 14.7943 20.6611 12.561C20.6611 10.3277 19.8861 8.43601 18.3361 6.88601C16.7861 5.33601 14.8944 4.56101 12.6611 4.56101C10.4278 4.56101 8.53611 5.33601 6.98611 6.88601C5.43611 8.43601 4.66111 10.3277 4.66111 12.561C4.66111 14.7943 5.43611 16.686 6.98611 18.236C8.53611 19.786 10.4278 20.561 12.6611 20.561Z" fill="#7D8791"/>
    </g>
</svg>
