<svg width="24" height="24" viewBox="0 0 24 24" fill="none" xmlns="http://www.w3.org/2000/svg">
    <mask id="mask0_79_25" style="mask-type:alpha" maskUnits="userSpaceOnUse" x="0" y="0" width="24" height="24">
        <rect width="24" height="24" fill="#D9D9D9"/>
    </mask>
    <g mask="url(#mask0_79_25)">
        <path d="M7.99998 10.8846C8.24484 10.8846 8.45349 10.7984 8.62593 10.6259C8.79836 10.4535 8.88458 10.2448 8.88458 9.99998C8.88458 9.75511 8.79836 9.54646 8.62593 9.37402C8.45349 9.20159 8.24484 9.11538 7.99998 9.11538C7.75511 9.11538 7.54646 9.20159 7.37403 9.37402C7.20159 9.54646 7.11538 9.75511 7.11538 9.99998C7.11538 10.2448 7.20159 10.4535 7.37403 10.6259C7.54646 10.7984 7.75511 10.8846 7.99998 10.8846ZM12 10.8846C12.2448 10.8846 12.4535 10.7984 12.6259 10.6259C12.7984 10.4535 12.8846 10.2448 12.8846 9.99998C12.8846 9.75511 12.7984 9.54646 12.6259 9.37402C12.4535 9.20159 12.2448 9.11538 12 9.11538C11.7551 9.11538 11.5465 9.20159 11.374 9.37402C11.2016 9.54646 11.1154 9.75511 11.1154 9.99998C11.1154 10.2448 11.2016 10.4535 11.374 10.6259C11.5465 10.7984 11.7551 10.8846 12 10.8846ZM16 10.8846C16.2448 10.8846 16.4535 10.7984 16.6259 10.6259C16.7984 10.4535 16.8846 10.2448 16.8846 9.99998C16.8846 9.75511 16.7984 9.54646 16.6259 9.37402C16.4535 9.20159 16.2448 9.11538 16 9.11538C15.7551 9.11538 15.5465 9.20159 15.374 9.37402C15.2016 9.54646 15.1154 9.75511 15.1154 9.99998C15.1154 10.2448 15.2016 10.4535 15.374 10.6259C15.5465 10.7984 15.7551 10.8846 16 10.8846ZM2.5 21.0384V4.3077C2.5 3.80257 2.675 3.375 3.025 3.025C3.375 2.675 3.80257 2.5 4.3077 2.5H19.6923C20.1974 2.5 20.625 2.675 20.975 3.025C21.325 3.375 21.5 3.80257 21.5 4.3077V15.6923C21.5 16.1974 21.325 16.625 20.975 16.975C20.625 17.325 20.1974 17.5 19.6923 17.5H6.03845L2.5 21.0384ZM5.4 16H19.6923C19.7692 16 19.8397 15.9679 19.9038 15.9038C19.9679 15.8397 20 15.7692 20 15.6923V4.3077C20 4.23077 19.9679 4.16024 19.9038 4.09613C19.8397 4.03203 19.7692 3.99998 19.6923 3.99998H4.3077C4.23077 3.99998 4.16024 4.03203 4.09613 4.09613C4.03203 4.16024 3.99998 4.23077 3.99998 4.3077V17.3846L5.4 16Z" fill="#7D8791"/>
    </g>
</svg>
