<svg width="25" height="25" viewBox="0 0 25 25" fill="none" xmlns="http://www.w3.org/2000/svg">
    <mask id="mask0_1_2714" style="mask-type:alpha" maskUnits="userSpaceOnUse" x="0" y="0" width="25" height="25">
        <rect x="0.5" y="0.107178" width="24" height="24" fill="#D9D9D9"/>
    </mask>
    <g mask="url(#mask0_1_2714)">
        <path d="M2.5 22V20.1072H22.5V22H2.5ZM6.5 16.5206H7.73653L16.0366 8.236L15.4077 7.59752L14.7846 6.98407L6.5 15.2841V16.5206ZM5.00003 18.0206V14.6457L16.2097 3.45142C16.3545 3.30656 16.5189 3.19695 16.7029 3.1226C16.8869 3.04823 17.0783 3.01105 17.2771 3.01105C17.476 3.01105 17.6686 3.04823 17.855 3.1226C18.0414 3.19695 18.2122 3.31169 18.3673 3.46682L19.5692 4.68412C19.7243 4.82899 19.8365 4.99489 19.9057 5.18182C19.975 5.36877 20.0096 5.56195 20.0096 5.76135C20.0096 5.9483 19.9745 6.13426 19.9043 6.31925C19.8341 6.50423 19.7224 6.67327 19.5692 6.82637L8.37497 18.0206H5.00003ZM16.0366 8.236L15.4077 7.59752L14.7846 6.98407L16.0366 8.236Z" fill="#7D8791"/>
    </g>
</svg>
