<svg width="46" height="46" viewBox="0 0 46 46" fill="none" xmlns="http://www.w3.org/2000/svg">
    <mask id="mask0_133_4260" style="mask-type:alpha" maskUnits="userSpaceOnUse" x="11" y="11" width="25" height="25">
        <rect x="11.5" y="11.1071" width="24" height="24" fill="#D9D9D9"/>
    </mask>
    <g mask="url(#mask0_133_4260)">
        <path d="M13.5 33V31.1072H33.5V33H13.5ZM17.5 27.5206H18.7365L27.0366 19.236L26.4077 18.5975L25.7846 17.9841L17.5 26.2841V27.5206ZM16 29.0206V25.6457L27.2097 14.4514C27.3545 14.3066 27.5189 14.1969 27.7029 14.1226C27.8869 14.0482 28.0783 14.011 28.2771 14.011C28.476 14.011 28.6686 14.0482 28.855 14.1226C29.0414 14.1969 29.2122 14.3117 29.3673 14.4668L30.5692 15.6841C30.7243 15.829 30.8365 15.9949 30.9057 16.1818C30.975 16.3688 31.0096 16.5619 31.0096 16.7613C31.0096 16.9483 30.9745 17.1343 30.9043 17.3192C30.8341 17.5042 30.7224 17.6733 30.5692 17.8264L19.375 29.0206H16ZM27.0366 19.236L26.4077 18.5975L25.7846 17.9841L27.0366 19.236Z" fill="#7D8791"/>
    </g>
</svg>
