<svg width="28" height="28" viewBox="0 0 28 28" fill="none" xmlns="http://www.w3.org/2000/svg">
<rect width="28" height="28" rx="14" fill="#37393C"/>
<mask id="mask0_133_3091" style="mask-type:alpha" maskUnits="userSpaceOnUse" x="2" y="1" width="24" height="24">
<rect x="2" y="1" width="24" height="24" fill="#D9D9D9"/>
</mask>
<g mask="url(#mask0_133_3091)">
<path d="M14.3846 13.3846C13.3692 13.3846 12.5 13.0231 11.7769 12.3C11.0538 11.5769 10.6923 10.7077 10.6923 9.69231C10.6923 8.67692 11.0538 7.80769 11.7769 7.08462C12.5 6.36154 13.3692 6 14.3846 6C15.4 6 16.2692 6.36154 16.9923 7.08462C17.7154 7.80769 18.0769 8.67692 18.0769 9.69231C18.0769 10.7077 17.7154 11.5769 16.9923 12.3C16.2692 13.0231 15.4 13.3846 14.3846 13.3846ZM7 20.7692V18.1846C7 17.6615 7.13462 17.1808 7.40385 16.7423C7.67308 16.3038 8.03077 15.9692 8.47692 15.7385C9.43077 15.2615 10.4 14.9038 11.3846 14.6654C12.3692 14.4269 13.3692 14.3077 14.3846 14.3077C15.4 14.3077 16.4 14.4269 17.3846 14.6654C18.3692 14.9038 19.3385 15.2615 20.2923 15.7385C20.7385 15.9692 21.0962 16.3038 21.3654 16.7423C21.6346 17.1808 21.7692 17.6615 21.7692 18.1846V20.7692H7ZM8.84615 18.9231H19.9231V18.1846C19.9231 18.0154 19.8808 17.8615 19.7962 17.7231C19.7115 17.5846 19.6 17.4769 19.4615 17.4C18.6308 16.9846 17.7923 16.6731 16.9462 16.4654C16.1 16.2577 15.2462 16.1538 14.3846 16.1538C13.5231 16.1538 12.6692 16.2577 11.8231 16.4654C10.9769 16.6731 10.1385 16.9846 9.30769 17.4C9.16923 17.4769 9.05769 17.5846 8.97308 17.7231C8.88846 17.8615 8.84615 18.0154 8.84615 18.1846V18.9231ZM14.3846 11.5385C14.8923 11.5385 15.3269 11.3577 15.6885 10.9962C16.05 10.6346 16.2308 10.2 16.2308 9.69231C16.2308 9.18462 16.05 8.75 15.6885 8.38846C15.3269 8.02692 14.8923 7.84615 14.3846 7.84615C13.8769 7.84615 13.4423 8.02692 13.0808 8.38846C12.7192 8.75 12.5385 9.18462 12.5385 9.69231C12.5385 10.2 12.7192 10.6346 13.0808 10.9962C13.4423 11.3577 13.8769 11.5385 14.3846 11.5385Z" fill="white"/>
</g>
</svg>
