<svg width="75" height="26" viewBox="0 0 75 26" fill="none" xmlns="http://www.w3.org/2000/svg">
<path d="M72.8113 6.09277V16.6834H70.5803V6.09277H72.8113ZM69.3296 12.0728L69.5662 13.9274C67.0141 14.4821 64.5634 14.6381 62.1127 14.6381H60.7606V7.15011H62.9916V12.7661C65.0704 12.7141 67.1831 12.5234 69.3296 12.0728ZM68.6873 15.6608V15.9901C68.6873 17.8794 70.2423 19.7168 73.6732 20.2194L72.8282 22.0221C70.2761 21.5888 68.4676 20.4274 67.538 18.8501C66.6085 20.4274 64.8338 21.5888 62.2986 22.0221L61.4366 20.2194C64.8169 19.6994 66.3887 17.8794 66.3887 15.9901V15.6608H68.6873Z" fill="#2D8DF4"/>
<path d="M49.3872 8.60611C48.2548 8.60611 47.4436 9.16077 47.4436 10.1661C47.4436 11.1368 48.2548 11.6914 49.3872 11.6914C50.5365 11.6914 51.3309 11.1368 51.3309 10.1661C51.3309 9.16077 50.5365 8.60611 49.3872 8.60611ZM49.3872 13.5634C47.0379 13.5634 45.2971 12.1421 45.2971 10.1661C45.2971 8.15544 47.0379 6.75144 49.3872 6.75144C51.7365 6.75144 53.4605 8.15544 53.4605 10.1661C53.4605 12.1421 51.7365 13.5634 49.3872 13.5634ZM54.2548 13.9621L54.3901 15.6261C53.1394 15.8861 51.8379 16.0594 50.5703 16.1634V21.5888H48.3394V16.3021C47.0041 16.3541 45.7365 16.3714 44.6379 16.3714L44.3844 14.4994C47.1055 14.4994 50.9591 14.4648 54.2548 13.9621ZM55.1337 6.11011H57.3647V22.0568H55.1337V6.11011Z" fill="#2D8DF4"/>
<g clip-path="url(#clip0_91_4060)">
<path d="M28.9345 10.0257C28.2312 13.0603 27.1562 16.0224 25.4684 18.508C25.4282 18.5702 25.3779 18.6427 25.3378 18.7048C23.7403 19.8959 22.1128 18.4563 20.7263 16.2917C20.7464 16.2606 20.7665 16.2399 20.7866 16.2088C21.2287 15.5667 21.6205 14.8831 21.9621 14.1788C21.9822 14.1374 22.0023 14.1064 22.0123 14.0649C22.595 12.8739 23.0672 11.6207 23.4892 10.3468C24.1221 8.44112 24.4034 6.18331 26.4228 5.58261C27.1863 5.35476 28.0805 5.55154 28.613 6.21438C29.4167 7.18793 29.2359 8.73111 28.9345 10.0257Z" fill="url(#paint0_linear_91_4060)"/>
<path d="M25.3277 18.7048C25.2674 18.798 25.1971 18.8912 25.1368 18.974C24.2829 20.1444 23.2179 21.2215 21.9118 21.5633C20.3948 21.9568 18.7974 21.2629 17.5918 20.1547C16.3862 19.0465 15.5121 17.5551 14.6581 16.0948C13.9147 17.5034 13.121 18.9119 12.0359 19.989C10.9509 21.0765 9.51421 21.8015 8.06749 21.6254C6.55044 21.4286 5.26446 20.2687 4.2397 18.9948C4.089 18.8083 3.9383 18.6219 3.79765 18.4251C5.37498 19.7508 7.00254 18.4355 8.39903 16.3434C8.40908 16.3537 8.42917 16.3641 8.43922 16.3848C9.00183 15.4527 9.51421 14.4895 9.97636 13.4952C10.0366 13.3709 10.0969 13.2363 10.1572 13.112C10.6696 11.9831 11.1217 10.8231 11.5135 9.6321C11.6642 9.16604 11.835 8.64819 12.0359 8.1407C12.4478 7.11537 13.0004 6.13146 13.8644 5.67576C15.6025 4.74363 16.6976 6.67002 17.3104 8.26499C17.3506 8.36855 17.3908 8.48248 17.431 8.58605C17.4511 8.63783 17.4712 8.68962 17.4812 8.7414C18.2147 10.8749 19.0686 12.967 20.0331 14.9763C20.224 15.3698 20.4149 15.753 20.6158 16.1362C20.6158 16.1362 20.6158 16.1466 20.6259 16.1466C20.656 16.2087 20.6861 16.2605 20.7163 16.3123C20.7163 16.302 20.7263 16.302 20.7263 16.2916C22.1027 18.4458 23.7403 19.8854 25.3277 18.7048Z" fill="url(#paint1_linear_91_4060)"/>
<path d="M8.3988 16.333C7.00231 18.4251 5.37475 19.7508 3.79742 18.4148C3.78737 18.3941 3.77732 18.3837 3.76728 18.3733C1.92873 15.898 0.662848 12.8738 0.130373 9.7046C-0.0404205 8.69998 -0.120794 7.6125 0.311214 6.71145C0.843688 5.62398 2.14976 5.11649 3.16447 5.61362C4.26961 6.16253 4.78199 7.58143 5.22405 8.86569C5.82685 10.6574 6.47988 12.4181 7.1731 14.1581C7.20324 14.2306 7.23338 14.3031 7.26353 14.3756C7.55488 15.0902 7.86633 15.8255 8.3988 16.3123C8.38875 16.3227 8.3988 16.3227 8.3988 16.333Z" fill="url(#paint2_linear_91_4060)"/>
<path d="M34.3095 10.9059C35.7798 10.9059 36.9718 9.67712 36.9718 8.16133C36.9718 6.64554 35.7798 5.41675 34.3095 5.41675C32.8391 5.41675 31.6471 6.64554 31.6471 8.16133C31.6471 9.67712 32.8391 10.9059 34.3095 10.9059Z" fill="url(#paint3_linear_91_4060)"/>
<path d="M34.3095 21.6668C32.8426 21.6668 31.6471 20.4447 31.6471 18.9222V16.0844C31.6471 14.5723 32.8326 13.3398 34.3095 13.3398C35.7763 13.3398 36.9718 14.562 36.9718 16.0844V18.9326C36.9618 20.4447 35.7763 21.6668 34.3095 21.6668Z" fill="url(#paint4_linear_91_4060)"/>
</g>
<defs>
<linearGradient id="paint0_linear_91_4060" x1="33.8274" y1="5.40227" x2="20.6212" y2="15.6986" gradientUnits="userSpaceOnUse">
<stop stop-color="#77BDFF"/>
<stop offset="1" stop-color="#0074FE"/>
</linearGradient>
<linearGradient id="paint1_linear_91_4060" x1="7.50951" y1="31.3883" x2="29.1355" y2="-5.60452" gradientUnits="userSpaceOnUse">
<stop stop-color="#77BDFF"/>
<stop offset="1" stop-color="#0074FE"/>
</linearGradient>
<linearGradient id="paint2_linear_91_4060" x1="-6.17364" y1="8.3747" x2="11.3414" y2="14.7101" gradientUnits="userSpaceOnUse">
<stop stop-color="#77BDFF"/>
<stop offset="1" stop-color="#0074FE"/>
</linearGradient>
<linearGradient id="paint3_linear_91_4060" x1="31.6474" y1="8.16275" x2="36.9749" y2="8.16275" gradientUnits="userSpaceOnUse">
<stop stop-color="#77BDFF"/>
<stop offset="1" stop-color="#0074FE"/>
</linearGradient>
<linearGradient id="paint4_linear_91_4060" x1="31.6474" y1="17.5046" x2="36.965" y2="17.5046" gradientUnits="userSpaceOnUse">
<stop stop-color="#77BDFF"/>
<stop offset="1" stop-color="#0074FE"/>
</linearGradient>
<clipPath id="clip0_91_4060">
<rect width="36.9718" height="16.25" fill="white" transform="translate(0 5.41675)"/>
</clipPath>
</defs>
</svg>
