<svg width="23" height="23" viewBox="0 0 23 23" fill="none" xmlns="http://www.w3.org/2000/svg">
    <g clip-path="url(#clip0_1_2375)">
        <path fill-rule="evenodd" clip-rule="evenodd" d="M21.9981 12.2247C22.0193 11.8082 23.0253 11.3534 22.9998 10.907C22.9743 10.4692 21.9684 10.3587 21.9005 9.94641C21.8326 9.5341 22.7154 8.871 22.5966 8.44594C22.4777 8.02088 21.4718 8.1314 21.3148 7.74459C21.162 7.35779 21.8793 6.52042 21.6713 6.12512C21.4633 5.73831 20.5041 6.06136 20.2707 5.71706C20.0372 5.37276 20.5593 4.39937 20.2749 4.05932C19.9906 3.72353 19.1205 4.2506 18.8191 3.96156C18.5178 3.67677 18.8191 2.61412 18.4668 2.34208C18.1146 2.07854 17.3803 2.77564 17.0238 2.55886C16.6673 2.34633 16.7352 1.24118 16.332 1.05415C15.933 0.871373 15.3642 1.71299 14.9695 1.57697C14.5748 1.4452 14.405 0.3528 13.9721 0.255036C13.5434 0.161523 13.1699 1.10516 12.754 1.0584C12.3465 1.02865 11.9433 0 11.5019 0C11.0605 0 10.8992 1.00314 10.4875 1.0499C10.0758 1.09666 9.46039 0.178525 9.02747 0.272038C8.59879 0.369802 8.65397 1.38145 8.25925 1.51321C7.86452 1.64498 7.07083 0.884125 6.66762 1.0669C6.26866 1.25393 6.54029 2.23157 6.18377 2.4441C5.82725 2.65663 4.88501 2.08279 4.53273 2.35058C4.18469 2.61837 4.66006 3.51525 4.35871 3.80004C4.05736 4.08483 3.01326 3.72778 2.72464 4.06357C2.44027 4.39937 3.09815 5.17298 2.86471 5.51728C2.63127 5.86583 1.53623 5.73831 1.32402 6.12937C1.12029 6.52042 1.92671 7.13251 1.77392 7.51931C1.62112 7.90612 0.521839 8.02088 0.402998 8.44594C0.288402 8.871 1.20518 9.29606 1.14151 9.70837C1.0736 10.1207 0.0294977 10.465 -0.000212614 10.9113C-0.0214342 11.3491 0.967494 11.5701 0.988715 11.9824C1.00994 12.399 0.0634523 12.9601 0.135606 13.4021C0.207759 13.8357 1.22215 13.8357 1.33251 14.2353C1.44286 14.6348 0.640681 15.3914 0.801965 15.8037C0.967494 16.2118 1.95642 15.995 2.15166 16.3606C2.3469 16.7261 1.72298 17.64 1.96915 18.0055C2.21533 18.3711 3.13634 17.9418 3.40374 18.2606C3.67113 18.5794 3.25943 19.5995 3.582 19.9098C3.90032 20.2116 4.70674 19.5953 5.0378 19.8503C5.36886 20.1011 5.18211 21.1892 5.5641 21.423C5.94184 21.6483 6.59547 20.8747 6.97321 21.049C7.35096 21.2233 7.40189 22.3284 7.82208 22.4687C8.23802 22.6089 8.71339 21.7121 9.1166 21.8013C9.52405 21.8906 9.81267 22.9575 10.2541 23.0043C10.6912 23.051 10.9629 22.0734 11.3788 22.0734C11.7948 22.0734 12.3041 23.051 12.7455 23.0043C13.1827 22.9532 13.2378 21.9416 13.6411 21.8523C14.0485 21.7631 14.7573 22.6089 15.1775 22.4687C15.5934 22.3284 15.4279 21.3253 15.8057 21.151C16.1834 20.9767 17.0577 21.6483 17.4397 21.423C17.8175 21.1935 17.4397 20.2541 17.7708 19.9991C18.1018 19.7483 19.0993 20.2159 19.4218 19.9141C19.7401 19.6123 19.1714 18.7707 19.4388 18.4519C19.7062 18.1331 20.7843 18.3796 21.0347 18.0098C21.2808 17.6442 20.5423 16.9471 20.7376 16.5816C20.9328 16.216 22.0363 16.2203 22.2019 15.808C22.3631 15.3999 21.4931 14.8771 21.6076 14.4733C21.718 14.0737 22.7961 13.84 22.8682 13.4021C22.9361 12.9643 21.9727 12.6413 21.9981 12.2247ZM8.67095 16.0928L5.99277 11.3534L5.97155 11.3576L7.33398 16.4498L6.36203 16.7134L4.49453 9.73813L5.86545 9.36832L8.04703 13.2576L8.06401 13.2534L6.94775 9.07503L7.92394 8.8115L9.79145 15.7867L8.67095 16.0928ZM10.6148 15.5742L8.74734 8.59897L11.7311 7.7956L11.9985 8.79024L10.1055 9.29606L10.6021 11.1408L12.1046 10.737L12.372 11.7317L10.8695 12.1355L11.4425 14.2778L13.3355 13.7719L13.6029 14.7708L10.6148 15.5742ZM17.1426 13.823L15.3855 9.25356L15.3642 9.25781L16.1282 14.095L14.6767 14.4818L12.1046 7.69359L13.1572 7.4088L15.0799 12.6413L15.1011 12.637L14.1843 7.13676L15.377 6.81796L17.3294 12.042L17.3506 12.0335L16.4041 6.54167L17.3506 6.29089L18.505 13.4574L17.1426 13.823Z" fill="white"/>
    </g>
    <defs>
        <clipPath id="clip0_1_2375">
            <rect width="23" height="23" fill="white"/>
        </clipPath>
    </defs>
</svg>
