<svg width="24" height="24" viewBox="0 0 24 24" fill="none" xmlns="http://www.w3.org/2000/svg">
    <mask id="mask0_133_2277" style="mask-type:alpha" maskUnits="userSpaceOnUse" x="0" y="0" width="24" height="24">
        <rect width="24" height="24" fill="#D9D9D9"/>
    </mask>
    <g mask="url(#mask0_133_2277)">
        <path d="M8.15376 22H9.39028L18.65 12.7404L17.4134 11.5038L8.15376 20.7635V22ZM21.8576 11.6558L18.4826 8.31158L19.7865 7.00776C20.0801 6.71417 20.4371 6.56738 20.8576 6.56738C21.2781 6.56738 21.6352 6.71417 21.9287 7.00776L23.146 8.22503C23.4396 8.51862 23.5915 8.87053 23.6018 9.28078C23.612 9.69103 23.4704 10.0429 23.1768 10.3365L21.8576 11.6558ZM20.773 12.7557L10.0287 23.5H6.65381V20.125L17.398 9.38078L20.773 12.7557Z" fill="#7D8791"/>
        <path d="M6 8C5.16667 8 4.45833 7.70833 3.875 7.125C3.29167 6.54167 3 5.83333 3 5C3 4.16667 3.29167 3.45833 3.875 2.875C4.45833 2.29167 5.16667 2 6 2C6.83333 2 7.54167 2.29167 8.125 2.875C8.70833 3.45833 9 4.16667 9 5C9 5.83333 8.70833 6.54167 8.125 7.125C7.54167 7.70833 6.83333 8 6 8ZM0 14V12C0 11.6806 0.0868056 11.3785 0.260417 11.0938C0.434028 10.809 0.673611 10.5694 0.979167 10.375C1.74306 9.93056 2.55064 9.59028 3.40192 9.35417C4.25321 9.11806 5.11779 9 5.99567 9C6.87356 9 7.73958 9.11806 8.59375 9.35417C9.44792 9.59028 10.2569 9.93056 11.0208 10.375C11.3264 10.5556 11.566 10.7917 11.7396 11.0833C11.9132 11.375 12 11.6806 12 12V14H0ZM1.5 12.5H10.5V12C10.5 11.9281 10.479 11.8628 10.437 11.8039C10.395 11.7451 10.3396 11.6993 10.2708 11.6667C9.63194 11.2778 8.95139 10.9861 8.22917 10.7917C7.50694 10.5972 6.76389 10.5 6 10.5C5.23611 10.5 4.49306 10.5972 3.77083 10.7917C3.04861 10.9861 2.36806 11.2778 1.72917 11.6667C1.65972 11.7222 1.60417 11.7759 1.5625 11.8276C1.52083 11.8793 1.5 11.9368 1.5 12V12.5ZM6.00442 6.5C6.41814 6.5 6.77083 6.35269 7.0625 6.05808C7.35417 5.76346 7.5 5.40929 7.5 4.99558C7.5 4.58186 7.35269 4.22917 7.05808 3.9375C6.76346 3.64583 6.40929 3.5 5.99558 3.5C5.58186 3.5 5.22917 3.64731 4.9375 3.94192C4.64583 4.23654 4.5 4.59071 4.5 5.00442C4.5 5.41814 4.64731 5.77083 4.94192 6.0625C5.23654 6.35417 5.59071 6.5 6.00442 6.5Z" fill="#7D8791"/>
    </g>
</svg>
