<svg width="24" height="24" viewBox="0 0 24 24" fill="none" xmlns="http://www.w3.org/2000/svg">
    <mask id="mask0_133_2269" style="mask-type:alpha" maskUnits="userSpaceOnUse" x="0" y="0" width="24" height="24">
        <rect width="24" height="24" fill="#D9D9D9"/>
    </mask>
    <g mask="url(#mask0_133_2269)">
        <path d="M22.5422 23.5769L17.2615 18.2961C16.7615 18.7089 16.1865 19.032 15.5365 19.2653C14.8865 19.4987 14.214 19.6153 13.5192 19.6153C11.81 19.6153 10.3635 19.0236 9.17961 17.84C7.99574 16.6564 7.40381 15.2103 7.40381 13.5016C7.40381 11.7928 7.99559 10.3462 9.17916 9.16154C10.3627 7.97694 11.8089 7.38464 13.5176 7.38464C15.2263 7.38464 16.673 7.97658 17.8576 9.16044C19.0422 10.3443 19.6345 11.7908 19.6345 13.5C19.6345 14.2141 19.5147 14.8961 19.2749 15.5461C19.0352 16.1961 18.7153 16.7615 18.3153 17.2423L23.5961 22.5231L22.5422 23.5769ZM13.5192 18.1154C14.8076 18.1154 15.899 17.6683 16.7932 16.774C17.6874 15.8798 18.1346 14.7885 18.1346 13.5C18.1346 12.2115 17.6874 11.1202 16.7932 10.2259C15.899 9.33171 14.8076 8.88459 13.5192 8.88459C12.2307 8.88459 11.1393 9.33171 10.2451 10.2259C9.35089 11.1202 8.90378 12.2115 8.90378 13.5C8.90378 14.7885 9.35089 15.8798 10.2451 16.774C11.1393 17.6683 12.2307 18.1154 13.5192 18.1154Z" fill="#7D8791"/>
        <path fill-rule="evenodd" clip-rule="evenodd" d="M3.875 7.125C4.45833 7.70833 5.16667 8 6 8C6.83333 8 7.54167 7.70833 8.125 7.125C8.70833 6.54167 9 5.83333 9 5C9 4.16667 8.70833 3.45833 8.125 2.875C7.54167 2.29167 6.83333 2 6 2C5.16667 2 4.45833 2.29167 3.875 2.875C3.29167 3.45833 3 4.16667 3 5C3 5.83333 3.29167 6.54167 3.875 7.125ZM0 12V14H5.33333L5.83333 12.5H1.5V12C1.5 11.9368 1.52083 11.8793 1.5625 11.8276C1.60417 11.7759 1.65972 11.7222 1.72917 11.6667C2.36806 11.2778 3.04861 10.9861 3.77083 10.7917C4.49306 10.5972 5.23611 10.5 6 10.5C6.16612 10.5 6.33125 10.5046 6.4954 10.5138L6.98323 9.05031C6.65573 9.01677 6.32654 9 5.99567 9C5.11779 9 4.25321 9.11806 3.40192 9.35417C2.55064 9.59028 1.74306 9.93056 0.979167 10.375C0.673611 10.5694 0.434028 10.809 0.260417 11.0938C0.0868056 11.3785 0 11.6806 0 12ZM7.0625 6.05808C6.77083 6.35269 6.41814 6.5 6.00442 6.5C5.59071 6.5 5.23654 6.35417 4.94192 6.0625C4.64731 5.77083 4.5 5.41814 4.5 5.00442C4.5 4.59071 4.64583 4.23654 4.9375 3.94192C5.22917 3.64731 5.58186 3.5 5.99558 3.5C6.40929 3.5 6.76346 3.64583 7.05808 3.9375C7.35269 4.22917 7.5 4.58186 7.5 4.99558C7.5 5.40929 7.35417 5.76346 7.0625 6.05808Z" fill="#7D8791"/>
    </g>
</svg>
