<svg width="15" height="15" viewBox="0 0 15 15" fill="none" xmlns="http://www.w3.org/2000/svg">
    <path d="M7.38462 7.38462C6.36923 7.38462 5.5 7.02308 4.77692 6.3C4.05385 5.57692 3.69231 4.70769 3.69231 3.69231C3.69231 2.67692 4.05385 1.80769 4.77692 1.08462C5.5 0.361539 6.36923 0 7.38462 0C8.4 0 9.26923 0.361539 9.99231 1.08462C10.7154 1.80769 11.0769 2.67692 11.0769 3.69231C11.0769 4.70769 10.7154 5.57692 9.99231 6.3C9.26923 7.02308 8.4 7.38462 7.38462 7.38462ZM0 14.7692V12.1846C0 11.6615 0.134615 11.1808 0.403846 10.7423C0.673077 10.3038 1.03077 9.96923 1.47692 9.73846C2.43077 9.26154 3.4 8.90385 4.38462 8.66538C5.36923 8.42692 6.36923 8.30769 7.38462 8.30769C8.4 8.30769 9.4 8.42692 10.3846 8.66538C11.3692 8.90385 12.3385 9.26154 13.2923 9.73846C13.7385 9.96923 14.0962 10.3038 14.3654 10.7423C14.6346 11.1808 14.7692 11.6615 14.7692 12.1846V14.7692H0ZM1.84615 12.9231H12.9231V12.1846C12.9231 12.0154 12.8808 11.8615 12.7962 11.7231C12.7115 11.5846 12.6 11.4769 12.4615 11.4C11.6308 10.9846 10.7923 10.6731 9.94615 10.4654C9.1 10.2577 8.24615 10.1538 7.38462 10.1538C6.52308 10.1538 5.66923 10.2577 4.82308 10.4654C3.97692 10.6731 3.13846 10.9846 2.30769 11.4C2.16923 11.4769 2.05769 11.5846 1.97308 11.7231C1.88846 11.8615 1.84615 12.0154 1.84615 12.1846V12.9231ZM7.38462 5.53846C7.89231 5.53846 8.32692 5.35769 8.68846 4.99615C9.05 4.63462 9.23077 4.2 9.23077 3.69231C9.23077 3.18462 9.05 2.75 8.68846 2.38846C8.32692 2.02692 7.89231 1.84615 7.38462 1.84615C6.87692 1.84615 6.44231 2.02692 6.08077 2.38846C5.71923 2.75 5.53846 3.18462 5.53846 3.69231C5.53846 4.2 5.71923 4.63462 6.08077 4.99615C6.44231 5.35769 6.87692 5.53846 7.38462 5.53846Z" fill="#37393C"/>
</svg>
