<svg width="24" height="24" viewBox="0 0 24 24" fill="none" xmlns="http://www.w3.org/2000/svg">
    <mask id="mask0_133_2293" style="mask-type:alpha" maskUnits="userSpaceOnUse" x="0" y="0" width="24" height="24">
        <rect width="24" height="24" fill="#D9D9D9"/>
    </mask>
    <g mask="url(#mask0_133_2293)">
        <path d="M8.15376 22H9.39028L18.65 12.7404L17.4134 11.5038L8.15376 20.7635V22ZM21.8576 11.6558L18.4826 8.31158L19.7865 7.00776C20.0801 6.71417 20.4371 6.56738 20.8576 6.56738C21.2781 6.56738 21.6352 6.71417 21.9287 7.00776L23.146 8.22503C23.4396 8.51862 23.5915 8.87053 23.6018 9.28078C23.612 9.69103 23.4704 10.0429 23.1768 10.3365L21.8576 11.6558ZM20.773 12.7557L10.0287 23.5H6.65381V20.125L17.398 9.38078L20.773 12.7557Z" fill="#7D8791"/>
        <path d="M1.75625 15.5833C1.38649 15.5833 1.07076 15.4525 0.809066 15.1908C0.547358 14.9291 0.416504 14.6133 0.416504 14.2436V3.75644C0.416504 3.38667 0.547358 3.07094 0.809066 2.80925C1.07076 2.54754 1.38649 2.41669 1.75625 2.41669H5.52709C5.50999 2.02353 5.64246 1.67525 5.9245 1.37183C6.20656 1.0684 6.565 0.916687 6.99982 0.916687C7.43998 0.916687 7.80109 1.0684 8.08313 1.37183C8.36518 1.67525 8.49499 2.02353 8.47255 2.41669H12.2434C12.6131 2.41669 12.9289 2.54754 13.1906 2.80925C13.4523 3.07094 13.5831 3.38667 13.5831 3.75644V14.2436C13.5831 14.6133 13.4523 14.9291 13.1906 15.1908C12.9289 15.4525 12.6131 15.5833 12.2434 15.5833H1.75625ZM1.75625 14.5H12.2434C12.3075 14.5 12.3663 14.4733 12.4197 14.4199C12.4731 14.3664 12.4998 14.3077 12.4998 14.2436V3.75644C12.4998 3.69233 12.4731 3.63356 12.4197 3.58013C12.3663 3.52671 12.3075 3.5 12.2434 3.5H1.75625C1.69214 3.5 1.63337 3.52671 1.57994 3.58013C1.52652 3.63356 1.49982 3.69233 1.49982 3.75644V14.2436C1.49982 14.3077 1.52652 14.3664 1.57994 14.4199C1.63337 14.4733 1.69214 14.5 1.75625 14.5ZM3.20817 12.6955H8.79146V11.6122H3.20817V12.6955ZM3.20817 9.54165H10.7915V8.45835H3.20817V9.54165ZM3.20817 6.38781H10.7915V5.3045H3.20817V6.38781ZM6.99982 3.08013C7.14426 3.08013 7.26371 3.0329 7.35815 2.93846C7.45259 2.84401 7.49982 2.72457 7.49982 2.58013C7.49982 2.43568 7.45259 2.31624 7.35815 2.22179C7.26371 2.12735 7.14426 2.08013 6.99982 2.08013C6.85537 2.08013 6.73593 2.12735 6.64148 2.22179C6.54704 2.31624 6.49982 2.43568 6.49982 2.58013C6.49982 2.72457 6.54704 2.84401 6.64148 2.93846C6.73593 3.0329 6.85537 3.08013 6.99982 3.08013Z" fill="#7D8791"/>
    </g>
</svg>
