<svg width="32" height="32" viewBox="0 0 32 32" fill="none" xmlns="http://www.w3.org/2000/svg">
    <mask id="mask0_1_1533" style="mask-type:alpha" maskUnits="userSpaceOnUse" x="4" y="4" width="24" height="24">
        <rect x="4" y="4" width="24" height="24" fill="#D9D9D9"/>
    </mask>
    <g mask="url(#mask0_1_1533)">
        <path d="M26.5422 27.577L21.2615 22.2962C20.7615 22.7091 20.1865 23.0321 19.5365 23.2655C18.8865 23.4988 18.214 23.6155 17.5192 23.6155C15.81 23.6155 14.3635 23.0237 13.1796 21.8401C11.9957 20.6566 11.4038 19.2104 11.4038 17.5017C11.4038 15.793 11.9956 14.3463 13.1792 13.1617C14.3627 11.9771 15.8089 11.3848 17.5176 11.3848C19.2263 11.3848 20.673 11.9767 21.8576 13.1606C23.0422 14.3444 23.6345 15.7909 23.6345 17.5001C23.6345 18.2142 23.5147 18.8963 23.2749 19.5463C23.0352 20.1963 22.7153 20.7616 22.3153 21.2424L27.5961 26.5232L26.5422 27.577ZM17.5192 22.1155C18.8076 22.1155 19.899 21.6684 20.7932 20.7742C21.6874 19.8799 22.1346 18.7886 22.1346 17.5001C22.1346 16.2116 21.6874 15.1203 20.7932 14.2261C19.899 13.3318 18.8076 12.8847 17.5192 12.8847C16.2307 12.8847 15.1393 13.3318 14.2451 14.2261C13.3509 15.1203 12.9038 16.2116 12.9038 17.5001C12.9038 18.7886 13.3509 19.8799 14.2451 20.7742C15.1393 21.6684 16.2307 22.1155 17.5192 22.1155Z" fill="#2D8DF4"/>
        <path fill-rule="evenodd" clip-rule="evenodd" d="M5.22104 19C4.88404 19 4.59629 18.8751 4.35778 18.6253C4.11926 18.3755 4 18.0741 4 17.7211V7.71068C4 7.35772 4.11926 7.05634 4.35778 6.80654C4.59629 6.55673 4.88404 6.43182 5.22104 6.43182H8.65776C8.64218 6.05654 8.76291 5.72409 9.01997 5.43446C9.27703 5.14482 9.60371 5 10 5C10.4012 5 10.7303 5.14482 10.9873 5.43446C11.2444 5.72409 11.3627 6.05654 11.3422 6.43182H14.779C15.116 6.43182 15.4037 6.55673 15.6422 6.80654C15.8807 7.05634 16 7.35772 16 7.71068V9.5H15.0127V7.71068C15.0127 7.64948 14.9883 7.59338 14.9396 7.54238C14.891 7.49139 14.8374 7.4659 14.779 7.4659H5.22104C5.16261 7.4659 5.10905 7.49139 5.06035 7.54238C5.01167 7.59338 4.98733 7.64948 4.98733 7.71068V17.7211C4.98733 17.7823 5.01167 17.8384 5.06035 17.8894C5.10905 17.9404 5.16261 17.9659 5.22104 17.9659H10V19H5.22104ZM10 7.06511C10.1316 7.06511 10.2405 7.02003 10.3266 6.92988C10.4127 6.83973 10.4557 6.72571 10.4557 6.58783C10.4557 6.44995 10.4127 6.33594 10.3266 6.24579C10.2405 6.15563 10.1316 6.11056 10 6.11056C9.86835 6.11056 9.75949 6.15563 9.67342 6.24579C9.58734 6.33594 9.5443 6.44995 9.5443 6.58783C9.5443 6.72571 9.58734 6.83973 9.67342 6.92988C9.75949 7.02003 9.86835 7.06511 10 7.06511Z" fill="#2D8DF4"/>
        <path d="M14 19H14.779C15.116 19 15.4037 18.8751 15.6422 18.6253C15.8807 18.3755 16 18.0741 16 17.7211V15H15.0127V17.7211C15.0127 17.7823 14.9883 17.8384 14.9396 17.8894C14.891 17.9404 14.8374 17.9659 14.779 17.9659H14V19Z" fill="#2D8DF4"/>
        <path d="M6.54431 16.2434H9.6329V15.2094H6.54431V16.2434Z" fill="#2D8DF4"/>
        <path d="M6.54431 13.2329H10.4557V12.1989H6.54431V13.2329Z" fill="#2D8DF4"/>
        <path d="M6.54431 10.2225H13.4557V9.18838H6.54431V10.2225Z" fill="#2D8DF4"/>
    </g>
</svg>
