<svg width="24" height="24" viewBox="0 0 24 24" fill="none" xmlns="http://www.w3.org/2000/svg">
    <mask id="mask0_1_2119" style="mask-type:alpha" maskUnits="userSpaceOnUse" x="0" y="0" width="24" height="24">
        <rect width="24" height="24" fill="#D9D9D9"/>
    </mask>
    <g mask="url(#mask0_1_2119)">
        <path d="M22.5422 23.5769L17.2615 18.2961C16.7615 18.7089 16.1865 19.032 15.5365 19.2653C14.8865 19.4987 14.214 19.6153 13.5192 19.6153C11.81 19.6153 10.3635 19.0236 9.17961 17.84C7.99574 16.6564 7.40381 15.2103 7.40381 13.5016C7.40381 11.7928 7.99559 10.3462 9.17916 9.16154C10.3627 7.97694 11.8089 7.38464 13.5176 7.38464C15.2263 7.38464 16.673 7.97658 17.8576 9.16044C19.0422 10.3443 19.6345 11.7908 19.6345 13.5C19.6345 14.2141 19.5147 14.8961 19.2749 15.5461C19.0352 16.1961 18.7153 16.7615 18.3153 17.2423L23.5961 22.5231L22.5422 23.5769ZM13.5192 18.1154C14.8076 18.1154 15.899 17.6683 16.7932 16.774C17.6874 15.8798 18.1346 14.7885 18.1346 13.5C18.1346 12.2115 17.6874 11.1202 16.7932 10.2259C15.899 9.33171 14.8076 8.88459 13.5192 8.88459C12.2307 8.88459 11.1393 9.33171 10.2451 10.2259C9.35089 11.1202 8.90378 12.2115 8.90378 13.5C8.90378 14.7885 9.35089 15.8798 10.2451 16.774C11.1393 17.6683 12.2307 18.1154 13.5192 18.1154Z" fill="#7D8791"/>
        <path fill-rule="evenodd" clip-rule="evenodd" d="M1.22104 15C0.884041 15 0.596286 14.8751 0.357779 14.6253C0.11926 14.3755 0 14.0741 0 13.7211V3.71068C0 3.35772 0.11926 3.05634 0.357779 2.80654C0.596286 2.55673 0.884041 2.43182 1.22104 2.43182H4.65776C4.64218 2.05654 4.76291 1.72409 5.01997 1.43446C5.27703 1.14482 5.60371 1 6 1C6.40117 1 6.73027 1.14482 6.98733 1.43446C7.24439 1.72409 7.36269 2.05654 7.34224 2.43182H10.779C11.116 2.43182 11.4037 2.55673 11.6422 2.80654C11.8807 3.05634 12 3.35772 12 3.71068V5.5H11.0127V3.71068C11.0127 3.64948 10.9883 3.59338 10.9396 3.54238C10.891 3.49139 10.8374 3.4659 10.779 3.4659H1.22104C1.16261 3.4659 1.10905 3.49139 1.06035 3.54238C1.01167 3.59338 0.987326 3.64948 0.987326 3.71068V13.7211C0.987326 13.7823 1.01167 13.8384 1.06035 13.8894C1.10905 13.9404 1.16261 13.9659 1.22104 13.9659H6V15H1.22104ZM6 3.06511C6.13165 3.06511 6.24051 3.02003 6.32658 2.92988C6.41266 2.83973 6.4557 2.72571 6.4557 2.58783C6.4557 2.44995 6.41266 2.33594 6.32658 2.24579C6.24051 2.15563 6.13165 2.11056 6 2.11056C5.86835 2.11056 5.75949 2.15563 5.67342 2.24579C5.58734 2.33594 5.5443 2.44995 5.5443 2.58783C5.5443 2.72571 5.58734 2.83973 5.67342 2.92988C5.75949 3.02003 5.86835 3.06511 6 3.06511Z" fill="#7D8791"/>
        <path d="M10 15H10.779C11.116 15 11.4037 14.8751 11.6422 14.6253C11.8807 14.3755 12 14.0741 12 13.7211V11H11.0127V13.7211C11.0127 13.7823 10.9883 13.8384 10.9396 13.8894C10.891 13.9404 10.8374 13.9659 10.779 13.9659H10V15Z" fill="#7D8791"/>
        <path d="M2.54431 12.2434H5.6329V11.2094H2.54431V12.2434Z" fill="#7D8791"/>
        <path d="M2.54431 9.23294H6.45569V8.19888H2.54431V9.23294Z" fill="#7D8791"/>
        <path d="M2.54431 6.22245H9.45569V5.18838H2.54431V6.22245Z" fill="#7D8791"/>
    </g>
</svg>
