<svg width="24" height="24" viewBox="0 0 24 24" fill="none" xmlns="http://www.w3.org/2000/svg">
    <path d="M6 21.1729V20.11H11.3145V16.9214H10.783C9.45972 16.9214 8.33172 16.455 7.39903 15.5223C6.46634 14.5896 6 13.4617 6 12.1384C6 11.1558 6.2831 10.2619 6.8493 9.45657C7.41549 8.65124 8.16257 8.06529 9.09057 7.69874C9.12327 6.97379 9.43431 6.41169 10.0237 6.01241C10.613 5.61315 11.2382 5.52935 11.899 5.76101L11.1918 3.82737L12.2016 3.45536L11.8296 2.45787L13.0723 2L13.4321 3.00975L14.3601 2.67863L16.9969 9.87357L16.0689 10.2456L16.4409 11.2553L15.1981 11.7132L14.8384 10.7035L13.8286 11.1164L13.15 9.15817C12.9388 9.46068 12.6673 9.7012 12.3355 9.87971C12.0036 10.0582 11.647 10.1434 11.2654 10.1352C10.8212 10.127 10.4205 9.99725 10.0635 9.74584C9.70651 9.49441 9.43806 9.17044 9.25818 8.77391C8.58911 9.07097 8.05597 9.51997 7.65875 10.1209C7.26153 10.7218 7.06292 11.3943 7.06292 12.1384C7.06292 13.1717 7.42459 14.0501 8.14794 14.7734C8.87129 15.4968 9.74966 15.8585 10.783 15.8585H18.7547V16.9214H12.6227V20.11H19V21.1729H6ZM14.4173 9.86132L15.7827 9.32579L13.8123 3.88052L12.3937 4.37516L14.4173 9.86132ZM11.313 9.19497C11.6833 9.19497 11.9941 9.06973 12.2455 8.81926C12.4969 8.56881 12.6226 8.25847 12.6226 7.88823C12.6226 7.51799 12.4974 7.20716 12.247 6.95575C11.9965 6.70433 11.6862 6.57861 11.3159 6.57861C10.9457 6.57861 10.6348 6.70385 10.3834 6.95432C10.132 7.20477 10.0063 7.51512 10.0063 7.88536C10.0063 8.2556 10.1315 8.56642 10.382 8.81783C10.6324 9.06926 10.9428 9.19497 11.313 9.19497Z" fill="#2D8DF4"/>
</svg>
