<svg width="46" height="46" viewBox="0 0 46 46" fill="none" xmlns="http://www.w3.org/2000/svg">
    <mask id="mask0_133_4256" style="mask-type:alpha" maskUnits="userSpaceOnUse" x="11" y="11" width="46" height="46">
        <rect x="11" y="11" width="46" height="46" fill="#D9D9D9"/>
    </mask>
    <g mask="url(#mask0_133_4256)">
        <path d="M20.4 27.1538L23 24.5538L25.6 27.1538L26.6538 26.1L24.0538 23.5L26.6538 20.9L25.6 19.8462L23 22.4462L20.4 19.8462L19.3461 20.9L21.9461 23.5L19.3461 26.1L20.4 27.1538ZM18.3077 31.5C17.8026 31.5 17.375 31.325 17.025 30.975C16.675 30.625 16.5 30.1974 16.5 29.6923V17H15.5V15.5H20V14.6154H26V15.5H30.5V17H29.5V29.6923C29.5 30.1974 29.325 30.625 28.975 30.975C28.625 31.325 28.1974 31.5 27.6922 31.5H18.3077ZM28 17H18V29.6923C18 29.7692 18.032 29.8397 18.0961 29.9038C18.1602 29.9679 18.2308 30 18.3077 30H27.6922C27.7692 30 27.8397 29.9679 27.9038 29.9038C27.9679 29.8397 28 29.7692 28 29.6923V17Z" fill="#7D8791"/>
    </g>
</svg>
