<svg width="23" height="10" viewBox="0 0 23 10" fill="none" xmlns="http://www.w3.org/2000/svg">
<g clip-path="url(#clip0_133_2755)">
<path d="M18 2.83619C17.5625 4.70362 16.8938 6.52644 15.8438 8.05608C15.8188 8.09432 15.7875 8.13893 15.7625 8.17717C14.7688 8.91012 13.7563 8.02421 12.8938 6.69215C12.9063 6.67303 12.9188 6.66028 12.9313 6.64116C13.2063 6.24601 13.45 5.82536 13.6625 5.39196C13.675 5.36647 13.6875 5.34734 13.6938 5.32185C14.0563 4.5889 14.35 3.81771 14.6125 3.03377C15.0063 1.86105 15.1813 0.471628 16.4375 0.101966C16.9125 -0.0382504 17.4688 0.0828458 17.8 0.490749C18.3 1.08986 18.1875 2.03951 18 2.83619Z" fill="white"/>
<path d="M15.7563 8.17717C15.7188 8.23453 15.675 8.29189 15.6375 8.34288C15.1063 9.06308 14.4438 9.72592 13.6313 9.93625C12.6875 10.1784 11.6938 9.75142 10.9438 9.06945C10.1938 8.38749 9.65 7.46971 9.11875 6.57105C8.65625 7.43784 8.1625 8.30464 7.4875 8.96748C6.8125 9.63669 5.91875 10.0828 5.01875 9.97449C4.075 9.85339 3.275 9.13956 2.6375 8.35562C2.54375 8.2409 2.45 8.12618 2.3625 8.00508C3.34375 8.82089 4.35625 8.01145 5.225 6.72401C5.23125 6.73038 5.24375 6.73676 5.25 6.7495C5.6 6.17589 5.91875 5.58316 6.20625 4.9713C6.24375 4.89482 6.28125 4.81196 6.31875 4.73548C6.6375 4.04077 6.91875 3.32694 7.1625 2.59399C7.25625 2.30718 7.3625 1.98851 7.4875 1.67621C7.74375 1.04523 8.0875 0.439753 8.625 0.15932C9.70625 -0.414294 10.3875 0.771174 10.7688 1.75269C10.7937 1.81643 10.8188 1.88653 10.8438 1.95027C10.8562 1.98214 10.8687 2.014 10.875 2.04587C11.3313 3.35881 11.8625 4.64625 12.4625 5.88271C12.5813 6.1249 12.7 6.36072 12.825 6.59654C12.825 6.59654 12.825 6.60291 12.8313 6.60291C12.85 6.64116 12.8688 6.67302 12.8875 6.70489C12.8875 6.69852 12.8938 6.69852 12.8938 6.69214C13.75 8.01783 14.7688 8.90374 15.7563 8.17717Z" fill="white"/>
<path d="M5.22486 6.71764C4.35611 8.00508 3.34361 8.82089 2.36236 7.99871C2.35611 7.98596 2.34986 7.97959 2.34361 7.97322C1.19986 6.44995 0.412357 4.58889 0.0811066 2.63861C-0.0251434 2.02038 -0.0751434 1.35116 0.193607 0.79667C0.524857 0.127454 1.33736 -0.184847 1.96861 0.12108C2.65611 0.458875 2.97486 1.33204 3.24986 2.12236C3.62486 3.22497 4.03111 4.30846 4.46236 5.37921C4.48111 5.42382 4.49986 5.46844 4.51861 5.51305C4.69986 5.95282 4.89361 6.40534 5.22486 6.70489C5.21861 6.71127 5.22486 6.71127 5.22486 6.71764Z" fill="white"/>
<path d="M21.3437 3.37795C22.2585 3.37795 23 2.62177 23 1.68897C23 0.756179 22.2585 0 21.3437 0C20.429 0 19.6875 0.756179 19.6875 1.68897C19.6875 2.62177 20.429 3.37795 21.3437 3.37795Z" fill="white"/>
<path d="M21.3437 10C20.4312 10 19.6875 9.24794 19.6875 8.31104V6.56471C19.6875 5.63418 20.425 4.87573 21.3437 4.87573C22.2562 4.87573 23 5.6278 23 6.56471V8.31742C22.9937 9.24794 22.2562 10 21.3437 10Z" fill="white"/>
</g>
<defs>
<clipPath id="clip0_133_2755">
<rect width="23" height="10" fill="white"/>
</clipPath>
</defs>
</svg>
